<?xml version="1.0" encoding="utf-8"?>
<!-- Generator: Adobe Illustrator 16.0.4, SVG Export Plug-In . SVG Version: 6.00 Build 0)  -->
<!DOCTYPE svg PUBLIC "-//W3C//DTD SVG 1.1//EN" "http://www.w3.org/Graphics/SVG/1.1/DTD/svg11.dtd">
<svg version="1.1" id="Layer_1" xmlns="http://www.w3.org/2000/svg" xmlns:xlink="http://www.w3.org/1999/xlink" x="0px" y="0px"
	 width="20px" height="20px" viewBox="0 0 20 20" enable-background="new 0 0 20 20" xml:space="preserve">
<g>
	<g>
		<path fill="#CD040B" d="M10,1c4.963,0,9,4.037,9,9s-4.037,9-9,9s-9-4.037-9-9S5.037,1,10,1 M10,0C4.477,0,0,4.477,0,10
			s4.477,10,10,10s10-4.477,10-10S15.523,0,10,0"/>
	</g>
	<g>
		<path fill="#CD040B" d="M9.57,12.976l-0.442-6.07V4.366h1.792v2.539l-0.418,6.07H9.57z M9.192,15.819v-1.602h1.663v1.602H9.192z"
			/>
	</g>
</g>
</svg>
