<?xml version="1.0" encoding="utf-8"?>
<!-- Generator: Adobe Illustrator 16.0.0, SVG Export Plug-In . SVG Version: 6.00 Build 0)  -->
<!DOCTYPE svg PUBLIC "-//W3C//DTD SVG 1.1//EN" "http://www.w3.org/Graphics/SVG/1.1/DTD/svg11.dtd">
<svg version="1.1" id="Layer_1" xmlns="http://www.w3.org/2000/svg" xmlns:xlink="http://www.w3.org/1999/xlink" x="0px" y="0px"
	 width="192.593px" height="192.592px" viewBox="0 0 192.593 192.592" enable-background="new 0 0 192.593 192.592"
	 xml:space="preserve">
<g>
	<defs>
		<rect id="SVGID_1_" x="-1041.711" y="-1469.704" width="2560" height="2840"/>
	</defs>
	<clipPath id="SVGID_2_">
		<use xlink:href="#SVGID_1_"  overflow="visible"/>
	</clipPath>
	<g clip-path="url(#SVGID_2_)">
		<path fill="#959595" d="M390.189-6.764c-0.231,0.96-0.363,1.733-0.397,2.318h-0.069c-0.081-0.866-0.202-1.615-0.363-2.248
			l-4.706-18.585h-4.238l-5.088,18.445c-0.275,1.018-0.438,1.825-0.483,2.423h-0.086c-0.047-0.844-0.162-1.65-0.348-2.423
			l-4.498-18.445h-4.516l6.939,25.189h4.757l4.74-17.653c0.22-0.785,0.357-1.594,0.416-2.424h0.068
			c0.046,0.89,0.167,1.709,0.363,2.459l4.724,17.618h4.654l6.799-25.189H394.6L390.189-6.764z"/>
		<rect x="400.17" y="-18.076" fill="#959595" width="4.074" height="17.987"/>
		<path fill="#959595" d="M417.499-18.498c-2.475,0-4.367,1.136-5.677,3.408h-0.069v-2.986h-3.982v17.988h3.982v-10.26
			c0-1.417,0.395-2.591,1.18-3.521c0.787-0.931,1.763-1.686,2.971-1.686c2.313,0,4.127,0.952,4.057,5.33v10.137h3.404v-10.997
			c0-2.4-0.502-4.236-1.505-5.507S419.403-18.498,417.499-18.498"/>
		<path fill="#959595" d="M439.622-16.286h-0.069c-1.101-1.944-2.863-2.212-5.287-2.212c-2.448,0-4.406,0.896-5.876,2.688
			c-1.471,1.792-2.205,4.175-2.205,7.149c0,2.775,0.665,4.969,1.994,6.579c1.33,1.61,3.101,2.416,5.313,2.416
			c2.729,0,4.749-0.705,6.061-3.023h0.069v2.6h4.076v-26.63h-4.076V-16.286z M439.675-8.28c0,1.617-0.449,2.957-1.35,4.021
			c-0.899,1.064-2.073,1.597-3.52,1.597c-1.472,0-2.643-0.55-3.511-1.65c-0.869-1.101-1.305-2.599-1.305-4.496
			c0-2.091,0.453-3.726,1.359-4.906c0.906-1.179,2.148-1.769,3.729-1.769c1.337,0,2.438,0.462,3.3,1.386
			c0.863,0.925,1.296,2.049,1.296,3.374V-8.28z"/>
		<path fill="#959595" d="M455.555-18.499c-2.928,0-5.256,0.851-6.983,2.549c-1.727,1.697-2.59,4.058-2.59,7.079
			c0,2.775,0.828,5.004,2.484,6.684c1.657,1.681,3.874,2.521,6.649,2.521c2.857,0,5.132-0.862,6.824-2.591
			c1.692-1.727,2.538-4.025,2.538-6.895c0-2.928-0.785-5.217-2.354-6.869C460.555-17.673,458.366-18.499,455.555-18.499
			 M459.006-4.498c-0.861,1.066-2.094,1.599-3.698,1.599c-1.568,0-2.822-0.542-3.759-1.624c-0.938-1.083-1.404-2.568-1.404-4.454
			c0-1.955,0.462-3.489,1.387-4.603c0.925-1.112,2.184-1.669,3.776-1.669c1.604,0,2.837,0.539,3.698,1.616
			c0.86,1.078,1.291,2.606,1.291,4.585C460.297-7.08,459.867-5.563,459.006-4.498"/>
		<path fill="#959595" d="M483.749-5.06c-0.152,0.597-0.238,1.112-0.263,1.546h-0.122c-0.046-0.621-0.121-1.136-0.227-1.546
			l-3.209-13.018h-3.8l-3.611,12.93c-0.149,0.562-0.244,1.089-0.278,1.581h-0.123c-0.035-0.645-0.104-1.159-0.209-1.545
			l-3.242-12.966h-4.187l5.249,17.988h4.15l3.522-12.226c0.187-0.633,0.291-1.148,0.314-1.546h0.069
			c0.035,0.586,0.116,1.112,0.244,1.581l3.244,12.19h4.237l5.267-17.988h-3.854L483.749-5.06z"/>
		<path fill="#959595" d="M501.756-8.441c-0.4-0.415-0.883-0.787-1.449-1.115s-1.205-0.65-1.918-0.966
			c-0.539-0.199-1.018-0.384-1.433-0.554s-0.771-0.357-1.067-0.562c-0.297-0.204-0.521-0.441-0.672-0.711s-0.227-0.597-0.227-0.984
			c0-0.315,0.076-0.605,0.227-0.869s0.361-0.488,0.631-0.677c0.271-0.187,0.597-0.334,0.979-0.438
			c0.383-0.105,0.812-0.158,1.286-0.158c1.51,0,2.849,0.433,4.014,1.3v-3.565c-1.209-0.505-2.578-0.756-4.11-0.756
			c-0.863,0-1.698,0.113-2.509,0.343c-0.809,0.229-1.531,0.567-2.168,1.019c-0.638,0.451-1.145,1.008-1.522,1.669
			c-0.378,0.662-0.565,1.426-0.565,2.292c0,0.703,0.092,1.318,0.275,1.845c0.183,0.526,0.456,0.998,0.816,1.413
			c0.361,0.417,0.815,0.788,1.36,1.116c0.544,0.328,1.156,0.639,1.837,0.931c0.551,0.224,1.049,0.423,1.496,0.599
			c0.448,0.175,0.837,0.374,1.166,0.597c0.328,0.223,0.59,0.478,0.784,0.764c0.194,0.287,0.292,0.636,0.292,1.045
			c0,1.452-1.133,2.179-3.398,2.179c-1.694,0-3.242-0.579-4.646-1.739v3.777c1.327,0.655,2.897,0.983,4.71,0.983
			c0.938,0,1.831-0.108,2.678-0.325c0.848-0.217,1.594-0.548,2.242-0.992c0.646-0.445,1.165-1.008,1.554-1.687
			c0.388-0.679,0.583-1.476,0.583-2.389c0-0.749-0.108-1.396-0.324-1.941C502.461-7.546,502.155-8.025,501.756-8.441"/>
		<path fill="#959595" d="M402.325-26.241c-1.354,0-2.451,1.011-2.451,2.258c0,1.246,1.098,2.256,2.451,2.256
			s2.451-1.01,2.451-2.256C404.776-25.23,403.678-26.241,402.325-26.241"/>
		<path fill="#959595" d="M505.463-18.499c-0.597,0-1.105,0.208-1.526,0.623c-0.421,0.416-0.631,0.917-0.631,1.504
			s0.21,1.09,0.631,1.505c0.421,0.414,0.93,0.623,1.526,0.623c0.596,0,1.103-0.209,1.523-0.623c0.422-0.415,0.632-0.918,0.632-1.505
			s-0.21-1.088-0.632-1.504C506.566-18.291,506.059-18.499,505.463-18.499 M506.771-15.067c-0.36,0.359-0.796,0.541-1.308,0.541
			c-0.511,0-0.946-0.182-1.309-0.541c-0.359-0.36-0.541-0.795-0.541-1.305c0-0.509,0.182-0.943,0.541-1.304
			c0.362-0.359,0.798-0.54,1.309-0.54c0.512,0,0.947,0.181,1.308,0.54c0.36,0.36,0.54,0.795,0.54,1.304
			C507.311-15.862,507.131-15.428,506.771-15.067"/>
		<path fill="#959595" d="M505.77-16.263v-0.012c0.216-0.044,0.38-0.13,0.49-0.261c0.111-0.129,0.166-0.284,0.166-0.47
			c0-0.224-0.091-0.401-0.271-0.533c-0.183-0.131-0.44-0.195-0.774-0.195h-0.805v2.679h0.479v-1.084h0.224
			c0.153,0,0.297,0.156,0.43,0.465l0.263,0.619h0.599l-0.354-0.712C506.069-16.065,505.918-16.23,505.77-16.263 M505.416-16.522
			h-0.36v-0.808h0.301c0.19,0,0.331,0.031,0.42,0.093c0.088,0.06,0.133,0.164,0.133,0.31
			C505.909-16.657,505.744-16.522,505.416-16.522"/>
		<polygon fill="#959595" points="354.944,6.215 355.655,6.215 355.655,8.421 355.943,8.421 355.943,6.215 356.657,6.215 
			356.657,5.954 354.944,5.954 		"/>
		<path fill="#959595" d="M359.021,5.954l-0.772,1.714c-0.029,0.065-0.07,0.167-0.119,0.302h-0.01
			c-0.017-0.064-0.055-0.163-0.114-0.296l-0.757-1.72h-0.381v2.467h0.278V6.769c0-0.224-0.005-0.384-0.015-0.482h0.008
			c0.024,0.113,0.05,0.197,0.073,0.252l0.841,1.883h0.142l0.843-1.896c0.023-0.048,0.047-0.128,0.074-0.238h0.007
			c-0.015,0.188-0.024,0.349-0.024,0.479v1.655h0.287V5.954H359.021z"/>
		<polygon fill="#959595" points="315.027,0.932 328.886,3.674 328.886,-11.836 315.027,-11.836 		"/>
		<polygon fill="#959595" points="315.027,-13.564 328.886,-13.564 328.886,-29.044 315.027,-26.299 		"/>
		<polygon fill="#959595" points="331.055,-13.564 353.403,-13.564 353.403,-33.899 331.055,-29.473 		"/>
		<polygon fill="#959595" points="331.055,4.105 353.403,8.531 353.403,-11.837 331.055,-11.837 		"/>
	</g>
	<path clip-path="url(#SVGID_2_)" fill-rule="evenodd" clip-rule="evenodd" fill="#959595" d="M173.311,258.12
		c-1.303-8.456-16.366-13.843-38.878-15.12c-28.283-1.604-85.124,5.399-122.124,21.021c0.797-0.17,1.666-0.248,2.578-0.248
		c2.838,0,6.772,0.696,6.772,5.06v1.411h-5.002v-1.242c0-1.094-0.692-1.82-1.866-1.82c-1.265,0-1.7,0.714-1.836,1.352
		c-0.054,0.22-0.078,0.646,0.019,1.05c0.571,2.354,8.183,3.6,9.027,7.812c0.081,0.425,0.264,1.553,0.024,3.283
		c-0.486,3.357-3.466,4.595-7.091,4.595c-3.771,0-7.295-1.35-7.295-5.836v-1.534h5.387l0.004,1.931c0,1.098,0.75,1.828,2.006,1.828
		c1.342,0,1.794-0.684,1.956-1.356c0.1-0.377,0.159-0.997-0.037-1.482c-1.036-2.594-8.167-3.782-9.038-7.885
		c-0.21-1.013-0.187-1.803-0.038-2.705c0.219-1.351,0.842-2.344,1.748-3.046c-9.242,4.118-17.101,8.803-22.752,14.058
		c-4.347,4.043-6.556,7.913-5.988,11.604c1.015,6.582,8.566,10.268,19.515,12.682c17.945,3.958,48.107,3.399,78.53-1.408
		c23.186-3.663,46.488-9.734,64.256-17.458c-0.732,0.144-1.515,0.209-2.317,0.209c-3.55,0-6.724-1.297-7.05-4.956
		c-0.068-0.674-0.082-0.959-0.082-1.323v-8.438c0-0.369,0.061-0.983,0.101-1.329c0.442-3.752,3.481-4.955,7.045-4.955
		c3.556,0,6.656,1.193,7.037,4.955c0.062,0.642,0.037,1.329,0.037,1.329v0.659h-5.054v-1.115c0,0,0-0.484-0.062-0.772
		c-0.087-0.438-0.468-1.454-2.001-1.454c-1.466,0-1.899,0.966-1.996,1.454c-0.071,0.268-0.091,0.624-0.091,0.947v9.171
		c0,0.262,0.014,0.538,0.053,0.764c0.086,0.543,0.592,1.464,2.045,1.464c1.455,0,1.97-0.921,2.053-1.464
		c0.043-0.226,0.059-0.502,0.053-0.764v-2.903H140.9v-2.929h7.098v5.38c-0.011,0.364-0.016,0.649-0.072,1.323
		c-0.137,1.483-0.734,2.578-1.637,3.356c7.533-3.489,13.925-7.289,18.693-11.337C170.164,267.536,174.005,262.624,173.311,258.12
		 M106.06,264.413h-5.079v14.846c0.01,0.257,0,0.548-0.043,0.759c-0.107,0.5-0.53,1.459-1.929,1.459
		c-1.381,0-1.813-0.959-1.909-1.459c-0.054-0.211-0.059-0.502-0.054-0.759v-14.846h-5.073v14.382
		c-0.005,0.373,0.024,1.132,0.042,1.328c0.353,3.745,3.305,4.965,6.994,4.965c3.697,0,6.646-1.22,7.007-4.965
		c0.024-0.196,0.062-0.955,0.044-1.328V264.413z M59.432,264.413L56.9,280.096l-2.53-15.683h-8.188l-0.432,20.065h5.015
		l0.135-18.578l3.449,18.578h5.087l3.456-18.578l0.138,18.578h5.026l-0.448-20.065H59.432z M29.123,264.413l-3.717,20.065h5.419
		l2.803-18.578l2.732,18.578h5.382l-3.7-20.065H29.123z M123.791,280.566l-4.722-16.153h-7.446v19.855h4.921l-0.285-16.671
		l5.075,16.671h7.142v-19.855h-4.959L123.791,280.566z M78.232,269.635c-0.092-0.398-0.066-0.817-0.021-1.037
		c0.146-0.643,0.578-1.342,1.818-1.342c1.159,0,1.837,0.721,1.837,1.807v1.223h4.95v-1.396c0-4.324-3.878-5.003-6.685-5.003
		c-3.531,0-6.419,1.167-6.945,4.419c-0.141,0.884-0.174,1.671,0.049,2.673c0.857,4.058,7.92,5.235,8.944,7.8
		c0.181,0.484,0.13,1.104,0.036,1.471c-0.152,0.666-0.604,1.339-1.935,1.339c-1.247,0-1.999-0.719-1.999-1.802l-0.003-1.925h-5.324
		v1.531c0,4.434,3.475,5.773,7.217,5.773c3.583,0,6.543-1.223,7.021-4.545c0.226-1.714,0.053-2.831-0.036-3.251
		C86.325,273.206,78.799,271.955,78.232,269.635"/>
	<g clip-path="url(#SVGID_2_)">
		<polygon fill-rule="evenodd" clip-rule="evenodd" fill="#959595" points="113.48,-80.646 118.188,-96.658 126.296,-96.658 
			128.342,-89.815 134.224,-96.69 142.831,-96.69 138.353,-80.659 131.849,-80.638 134.224,-88.907 126.678,-80.638 
			123.481,-80.638 121.151,-89.484 118.533,-80.638 		"/>
		<polygon fill-rule="evenodd" clip-rule="evenodd" fill="#959595" points="170.755,-96.693 190.731,-96.658 189.531,-91.487 
			182.673,-91.487 179.855,-80.646 173.534,-80.638 176.162,-91.441 169.411,-91.441 		"/>
		<path fill-rule="evenodd" clip-rule="evenodd" fill="#959595" d="M224.335-96.664v3.724h0.011l-0.78,3.097h6.849
			c0,0,1.663-0.287,1.758-1.806c0.078-1.343-1.17-1.249-1.17-1.249l-6.668-0.022v-3.738l10.318-0.005c0,0,4.416,0.334,3.984,4.154
			c-0.441,3.818-4.501,5.036-4.501,5.036s-0.247,0.244-0.055,0.389c0.192,0.142,1.707,0.427,1.899,1.855
			c0.191,1.433-0.497,2.473-0.497,2.906c0,0.426,0.044,1.284,0.586,1.664h-6.52c0,0-1.164-0.179-1.062-1.38
			c0.097-1.188,0.15-2.233,0.15-2.233s-0.097-1.245-1.844-1.097l-4.767-0.049l-1.358,4.772h-5.979l4.551-16.019H224.335z"/>
		<polygon fill-rule="evenodd" clip-rule="evenodd" fill="#959595" points="269.615,-96.664 275.736,-96.664 272.769,-85.046 
			282.839,-85.046 281.668,-80.632 265.435,-80.632 		"/>
		<polygon fill-rule="evenodd" clip-rule="evenodd" fill="#959595" points="302.4,-96.678 306.073,-80.638 299.707,-80.638 
			299.033,-83.418 299.009,-83.472 291.298,-83.472 291.271,-83.446 289.408,-80.646 284.018,-80.638 294.903,-96.678 
			297.013,-91.948 293.857,-87.275 293.948,-87.24 298.037,-87.24 298.111,-87.25 297.013,-91.948 294.903,-96.678 		"/>
		<path fill-rule="evenodd" clip-rule="evenodd" fill="#959595" d="M157.094-93.113c1.942,0,3.853,0.96,4.155,2.354
			c0.922,4.459-3.833,6.368-3.275,6.088c-2.735,1.355-6.892,0.921-7.381-1.891c-0.463-2.7,1.624-5.362,3.379-5.997
			C155.175-92.992,156.166-93.175,157.094-93.113l0.014-0.043l0.021-4.155c-1.257,0.024-2.672,0.182-3.789,0.399
			c-4.793,0.919-10.836,5.274-9.771,10.788c0.896,4.659,7.218,7.161,14.304,5.791c6.646-1.276,10.997-6.394,10.061-10.933
			c-0.9-4.394-6.101-6.046-10.805-6.046v3.595L157.094-93.113z"/>
		<path fill-rule="evenodd" clip-rule="evenodd" fill="#959595" d="M203.557-93.113c1.939,0,3.858,0.96,4.142,2.354
			c0.938,4.459-3.821,6.368-3.254,6.088c-2.74,1.355-6.9,0.921-7.386-1.891c-0.469-2.7,1.618-5.362,3.379-5.997
			C201.637-92.992,202.641-93.175,203.557-93.113l0.014-0.043l0.027-4.155c-1.252,0.024-2.675,0.182-3.797,0.399
			c-4.79,0.919-10.841,5.274-9.777,10.788c0.896,4.659,7.233,7.161,14.307,5.791c6.652-1.276,11.008-6.394,10.071-10.933
			c-0.902-4.394-6.102-6.046-10.804-6.046v3.595L203.557-93.113z"/>
		<path fill-rule="evenodd" clip-rule="evenodd" fill="#959595" d="M254.071-93.156c1.938,0.108,3.839,1.003,4.133,2.397
			c0.931,4.459-3.828,6.368-3.257,6.088c-2.741,1.355-6.898,0.921-7.387-1.891c-0.467-2.701,1.615-5.362,3.379-5.997
			C252.382-93.083,252.947-93.229,254.071-93.156l0.024-4.155c-1.25,0.024-2.66,0.182-3.797,0.398
			c-4.783,0.92-10.828,5.275-9.769,10.789c0.896,4.659,7.228,7.161,14.307,5.791c6.646-1.276,11.005-6.394,10.06-10.933
			c-0.898-4.394-6.1-6.046-10.801-6.046v3.595L254.071-93.156z"/>
		<path fill-rule="evenodd" clip-rule="evenodd" fill="#959595" d="M209.848-209.396c27.027,0,48.3,21.768,48.3,48.282
			c0,26.671-21.629,48.285-48.3,48.285c-26.67,0-48.287-21.614-48.287-48.285C161.561-187.786,183.178-209.396,209.848-209.396
			 M209.74-150.99l-13.508-44.813l-17.49,57.376h3.282c0,0,2.21-9.981,5.791-15.944c1.954-3.23,4.964-5.879,8.989-5.803
			c2.837,0.051,5.289,1.604,8.356,5.884c1.843,2.575,4.683,9.125,4.683,9.125s2.838-6.542,4.688-9.125
			c3.055-4.279,5.512-5.833,8.353-5.884c4.017-0.076,7.038,2.572,8.984,5.81c3.589,5.956,5.791,15.938,5.791,15.938h3.289
			l-17.5-57.376l-13.509,44.813l-0.091,0.081L209.74-150.99z"/>
	</g>
	<g clip-path="url(#SVGID_2_)">
		<polygon fill="#959595" points="-19.813,-61.881 -4.393,-61.881 -4.393,-22.755 18.517,-22.755 18.517,-9.694 -19.813,-9.694 		
			"/>
		<path fill="#959595" d="M58.448-14.896c-2.733,4.148-7.779,6.498-14.08,6.498c-13.557,0-22.391-10.803-22.391-27.482
			c0-16.92,9.93-27.347,26.386-27.347c6.559,0,12.162,1.758,16.497,5.065c4.37,3.465,5.992,6.869,6.695,13.75H55.432
			c-0.44-4.027-3.453-6.602-7.416-6.602c-6.235,0-9.881,5.762-9.881,15.344c0,9.721,3.788,15.555,10.156,15.555
			c5.014,0,7.917-2.787,9.109-9.025h-9.95v-10.984h24.105v30.428H58.448V-14.896"/>
		<path fill="#959595" d="M25.802-200.99c-33.562,0-60.81,27.231-60.81,60.863s27.247,60.862,60.81,60.862
			c33.641,0,60.893-27.23,60.893-60.862S59.442-200.99,25.802-200.99 M40.382-118.249v4.767H23.417v-53.354h4.86v48.588H40.382z
			 M61.868-104.11c-9.615,9.632-22.416,14.916-36.066,14.916c-13.564,0-26.369-5.284-35.977-14.916
			c-9.615-9.631-14.919-22.415-14.919-36.033c0-28.104,22.844-50.954,50.896-50.954c0.615,0,1.84,0.01,2.476,0.033v4.755
			c-0.582-0.012-1.917-0.016-2.454-0.016c-12.309,0-23.904,4.814-32.654,13.523c-8.709,8.693-13.517,20.314-13.517,32.654
			c0,12.336,4.808,23.96,13.517,32.649c8.75,8.737,20.346,13.561,32.654,13.561c24.44,0,44.479-19.071,46.097-43.089
			c0.008-0.101,0.017-0.598,0.021-0.707H40.415v-4.715h34.367l2.002-0.008v2.312C76.784-126.53,71.479-113.741,61.868-104.11
			 M13.713-159.555c0,4.012-3.283,7.274-7.31,7.274c-4.007,0-7.29-3.263-7.29-7.274c0-4.047,3.283-7.31,7.29-7.31
			C10.43-166.865,13.713-163.602,13.713-159.555"/>
	</g>
	<g clip-path="url(#SVGID_2_)">
		<path fill="#959595" d="M347.268-417.725H332.3v28.124h13.944l9.688,9.69h15.56v-13.472l-10.518-10.636l10.518-10.397v-13.629
			h-13.904L347.268-417.725z M347.189-391.136l-14.259-12.882l14.259-12.881V-391.136z M359.873-390.939h-11.816l11.816-11.816
			V-390.939z M359.873-405.277l-11.816-11.817h11.816V-405.277z"/>
		<rect x="377.204" y="-417.566" fill="#959595" width="5.356" height="27.729"/>
		<polygon fill="#959595" points="397.581,-417.566 391.909,-417.566 382.771,-404.122 392.749,-389.837 398.947,-389.837 
			388.233,-404.856 		"/>
		<path fill="#959595" d="M412.811-405.907h-9.61v-11.659h-4.569v13.444c0,1.051,0.945,2.205,1.996,2.205h11.134v7.668h-11.66v4.412
			h13.972c1.574,0,3.045-1.155,3.045-2.94v-24.789h-4.307V-405.907z"/>
		<path fill="#959595" d="M437.706-417.566h-16.387c-1.043,0-1.891,0.846-1.891,1.89v23.949c0,1.044,0.848,1.891,1.891,1.891h16.387
			c1.044,0,1.891-0.847,1.891-1.891v-23.949C439.596-416.721,438.75-417.566,437.706-417.566 M434.239-394.249h-9.349v-18.486h9.349
			V-394.249z"/>
		<path fill="#959595" d="M441.591-415.676v23.948c0,1.045,0.847,1.891,1.891,1.891h15.336v-4.411h-11.764v-18.487h11.764v-4.832
			h-15.336C442.438-417.567,441.591-416.72,441.591-415.676"/>
		<path fill="#959595" d="M459.973-415.676v23.948c0,1.045,0.847,1.891,1.891,1.891H477.2v-4.411h-11.765v-7.353h11.239v-4.832
			h-11.239v-6.303H477.2v-4.832h-15.336C460.82-417.567,459.973-416.72,459.973-415.676"/>
		<path fill="#959595" d="M496.106-402.231c0.841,0,1.786-0.735,1.786-1.68v-10.924c0-1.472-1.155-2.731-2.626-2.731h-16.281v27.729
			h4.727v-22.794h9.034v7.038h-6.724l8.614,15.756h5.671l-7.037-12.395H496.106z"/>
		<path fill="#959595" d="M514.909-417.566h-14.391v4.936h13.024v7.038h-11.449c-1.47,0-2.416,1.051-2.416,2.206v10.713
			c0,1.682,1.472,2.837,3.152,2.837h15.335v-25.209C518.165-416.517,516.274-417.566,514.909-417.566 M513.542-394.354h-9.033
			v-7.248h9.033V-394.354z"/>
		<path fill="#959595" d="M522.337-419.212c-1.355,0-2.563,0.938-2.563,2.549c0,1.61,1.208,2.549,2.563,2.549
			c1.348,0,2.556-0.938,2.556-2.549C524.893-418.274,523.685-419.212,522.337-419.212 M522.337-414.701v-0.007
			c-1.012,0.007-1.827-0.782-1.827-1.955s0.815-1.955,1.827-1.955c0.983,0,1.819,0.782,1.819,1.955S523.321-414.701,522.337-414.701
			"/>
		<path fill="#959595" d="M523.477-417.21c0-0.627-0.418-0.829-1.126-0.829h-1.025v2.744h0.586v-1.153h0.277l0.634,1.153h0.694
			l-0.701-1.2C523.18-416.522,523.477-416.704,523.477-417.21 M522.432-416.913h-0.521v-0.661h0.412
			c0.224,0,0.526,0.021,0.526,0.304C522.85-416.967,522.695-416.913,522.432-416.913"/>
	</g>
	<polygon clip-path="url(#SVGID_2_)" fill-rule="evenodd" clip-rule="evenodd" fill="#959595" points="408.622,110.271 
		421.285,110.271 421.285,130.961 427.28,130.961 427.28,110.271 440.274,110.271 440.274,104.62 408.622,104.599 	"/>
	<path clip-path="url(#SVGID_2_)" fill-rule="evenodd" clip-rule="evenodd" fill="#959595" d="M450.603,117.278
		c0-2.979,0.525-7.341,4.332-7.341h21.658V104.6H453.27c-5.786,0.158-8.331,6.549-8.331,10.679v5.671
		c0,5.366,3.726,9.848,10.662,10.012h20.992v-5.339h-20.325C450.385,125.702,450.603,121.143,450.603,117.278"/>
	<path clip-path="url(#SVGID_2_)" fill-rule="evenodd" clip-rule="evenodd" fill="#959595" d="M359.31,96.257
		c0-3.257-11.972-16.018-14.992-16.018c-5.667,0-5.419,12.877-5.332,16.686c0,3.347,1.496,15.35,3.999,15.35
		C348.173,112.274,359.31,101.13,359.31,96.257"/>
	<path clip-path="url(#SVGID_2_)" fill-rule="evenodd" clip-rule="evenodd" fill="#959595" d="M304.355,96.257
		c0-3.257-11.975-16.018-14.994-16.018c-5.666,0-5.417,12.877-5.331,16.686c0,3.347,1.496,15.35,3.998,15.35
		C293.216,112.274,304.355,101.13,304.355,96.257"/>
	<path clip-path="url(#SVGID_2_)" fill-rule="evenodd" clip-rule="evenodd" fill="#959595" d="M376.969,115.278
		c0-3.396,3.098-5.34,6.663-5.34h6.332c4.603,0,7.662,1.33,7.662,6.007v15.016h5.332v-17.018c0-6.668-5.067-9.462-7.997-9.677
		l-17.992,0.021v-8.364l-5.663-0.01v35.048h5.663V115.278z"/>
	<path clip-path="url(#SVGID_2_)" fill-rule="evenodd" clip-rule="evenodd" fill="#959595" d="M298.337,78.572
		c0,2.093,13.329,12.38,13.329,17.685v0.334c0,5.616-12.996,14.817-12.996,17.687c0,13.338,5.61,17.017,17.992,17.017
		c21.371,0,15.768-16.187,16.837-32.02l-0.176-13.694c0-4.218-0.742-14.687-1.896-17.458c-1.073-2.578-1.303-4.547-4.3-5.371
		c-5.67-1.56-22.404-3.03-26.064,2.199C298.449,68.687,298.337,74.171,298.337,78.572"/>
	<g clip-path="url(#SVGID_2_)">
		<path fill="#959595" d="M308.083-188.213h-9.27v-30.475h16.039l18.398,22.751v-22.751h9.273v30.475h-15.714l-18.728-23.14
			V-188.213z M374.101-195.547c2.119,0,2.866-0.121,3.368-0.568c0.479-0.418,0.688-0.953,0.688-2.741v-9.305
			c0-1.789-0.209-2.325-0.688-2.743c-0.502-0.448-1.249-0.567-3.368-0.567h-15.061c-2.114,0-2.859,0.119-3.367,0.567
			c-0.477,0.418-0.686,0.954-0.686,2.743v9.305c0,1.788,0.209,2.323,0.686,2.741c0.508,0.447,1.253,0.568,3.367,0.568H374.101z
			 M386.895-197.634c0,4.232-0.776,5.691-2.058,7.096c-1.969,2.087-4.832,2.713-10.35,2.713h-15.83
			c-5.52,0-8.381-0.626-10.349-2.713c-1.28-1.404-2.058-2.863-2.058-7.096v-11.749c0-4.235,0.777-5.696,2.058-7.097
			c1.968-2.087,4.829-2.715,10.349-2.715h15.83c5.518,0,8.381,0.628,10.35,2.715c1.281,1.4,2.058,2.861,2.058,7.097V-197.634z
			 M416.742-218.688h12.793l-17.268,14.254l19.473,16.221h-13.687l-17.683-15.893v15.893h-9.691v-30.475h9.691v14.582
			L416.742-218.688z M433.529-218.688h9.692v30.475h-9.692V-218.688z M461.914-200.141h12.049l-6.024-11.029L461.914-200.141z
			 M480.164-188.213l-2.861-5.308h-18.756l-2.836,5.308h-10.702l17.175-30.475h12.047l17.178,30.475H480.164z"/>
		<polygon fill="#959595" points="308.083,-188.213 298.814,-188.213 298.814,-218.688 314.853,-218.688 333.251,-195.937 
			333.251,-218.688 342.525,-218.688 342.525,-188.213 326.81,-188.213 308.083,-211.353 		"/>
		<path fill="#959595" d="M374.101-195.548c2.119,0,2.865-0.12,3.367-0.567c0.48-0.417,0.688-0.953,0.688-2.741v-9.305
			c0-1.789-0.208-2.325-0.688-2.743c-0.502-0.448-1.248-0.567-3.367-0.567h-15.061c-2.115,0-2.859,0.119-3.367,0.567
			c-0.477,0.418-0.686,0.954-0.686,2.743v9.305c0,1.788,0.209,2.324,0.686,2.741c0.508,0.447,1.252,0.567,3.367,0.567H374.101z
			 M386.895-197.634c0,4.232-0.777,5.692-2.058,7.096c-1.969,2.087-4.83,2.713-10.35,2.713h-15.831
			c-5.519,0-8.381-0.626-10.347-2.713c-1.282-1.403-2.059-2.863-2.059-7.096v-11.749c0-4.235,0.776-5.696,2.059-7.096
			c1.966-2.088,4.828-2.716,10.347-2.716h15.831c5.52,0,8.381,0.628,10.35,2.716c1.28,1.399,2.058,2.86,2.058,7.096V-197.634z"/>
		<rect x="390.679" y="-218.687" fill="#959595" width="9.692" height="30.474"/>
		<polygon fill="#959595" points="416.741,-218.688 429.535,-218.688 412.267,-204.434 431.739,-188.213 418.054,-188.213 
			400.371,-204.105 		"/>
		<rect x="433.529" y="-218.688" fill="#959595" width="9.693" height="30.474"/>
		<path fill="#959595" d="M461.914-200.141h12.049l-6.024-11.029L461.914-200.141z M480.164-188.213l-2.861-5.308h-18.756
			l-2.836,5.308h-10.702l17.175-30.475h12.047l17.178,30.475H480.164z"/>
		<polygon fill="#959595" points="308.083,-188.213 298.814,-188.213 298.814,-218.688 314.853,-218.688 333.251,-195.937 
			333.251,-218.688 342.525,-218.688 342.525,-188.213 326.81,-188.213 308.083,-211.353 		"/>
		<path fill="#959595" d="M374.101-195.548c2.119,0,2.865-0.12,3.367-0.567c0.48-0.417,0.688-0.953,0.688-2.741v-9.305
			c0-1.789-0.208-2.325-0.688-2.743c-0.502-0.448-1.248-0.567-3.367-0.567h-15.061c-2.115,0-2.859,0.119-3.367,0.567
			c-0.477,0.418-0.686,0.954-0.686,2.743v9.305c0,1.788,0.209,2.324,0.686,2.741c0.508,0.447,1.252,0.567,3.367,0.567H374.101z
			 M386.895-197.634c0,4.232-0.777,5.692-2.058,7.096c-1.969,2.087-4.83,2.713-10.35,2.713h-15.831
			c-5.519,0-8.381-0.626-10.347-2.713c-1.282-1.403-2.059-2.863-2.059-7.096v-11.749c0-4.235,0.776-5.696,2.059-7.096
			c1.966-2.088,4.828-2.716,10.347-2.716h15.831c5.52,0,8.381,0.628,10.35,2.716c1.28,1.399,2.058,2.86,2.058,7.096V-197.634z"/>
		<rect x="390.679" y="-218.687" fill="#959595" width="9.692" height="30.474"/>
		<polygon fill="#959595" points="416.741,-218.688 429.535,-218.688 412.267,-204.434 431.739,-188.213 418.054,-188.213 
			400.371,-204.105 		"/>
		<rect x="433.529" y="-218.688" fill="#959595" width="9.693" height="30.474"/>
		<path fill="#959595" d="M461.914-200.141h12.049l-6.024-11.029L461.914-200.141z M480.164-188.213l-2.861-5.308h-18.756
			l-2.836,5.308h-10.702l17.175-30.475h12.047l17.178,30.475H480.164z"/>
	</g>
	<g clip-path="url(#SVGID_2_)">
		<path fill-rule="evenodd" clip-rule="evenodd" fill="#959595" d="M260.233-399.789c6.534-8.155,11.293-19.378,10.063-30.689
			c-9.759,0.357-21.383,6.436-28.307,14.646c-6.236,7.07-11.649,18.735-10.098,29.707
			C242.501-385.422,253.407-391.58,260.233-399.789"/>
		<path fill-rule="evenodd" clip-rule="evenodd" fill="#959595" d="M288.495-310.623H155.573l0.017-0.009h132.747v-0.291
			c-3.04-6.123-4.425-15.695-3.262-23.449v-0.29h0.01c1.216-10.153,7.757-20.542,12.984-24.312c0.062-0.044,0.135-0.098,0.205-0.155
			v-0.022h0.013c1.161-1.278,4.465-3.931,6.698-5.538c-8.244-12.129-21.742-18.673-35.487-18.881
			c-13.86-1.165-28.244,8.771-36.001,8.545c-7.504,0.227-18.839-8.741-30.801-8.174l-0.119-0.019c-0.267,0-2.422,0.119-2.422,0.119
			c-15.856,0.391-29.912,9.734-37.893,23.903v0.044h-0.049v-0.044c-3.157,5.104-6.944,17.003-7.509,24.534v0.401
			c-0.765,4.779-0.026,17.514,0.833,23.638c0.036,0.106,0.044,0.218,0.053,0.308l0.018-0.014c0.668,6.105,3.77,17.901,6.093,23.668
			v0.054h-0.012c2.231,6.374,8.465,18.327,12.489,24.441v0.045h0.044c8.125,11.667,17.694,24.78,30.306,24.218
			c12.186-0.465,16.672-8.094,31.349-7.979c14.671-0.115,18.729,7.611,31.583,7.67c13.107-0.562,21.229-12.226,29.359-23.909
			c3.979-6.021,10.226-17.607,12.434-24.486h0.031c0.248-0.728,0.617-1.844,0.881-2.658
			C301.546-291.707,291.877-303.061,288.495-310.623"/>
	</g>
	<path clip-path="url(#SVGID_2_)" fill="#959595" d="M96.299,0C43.116,0,0,43.116,0,96.298c0,53.183,43.116,96.294,96.299,96.294
		c53.182,0,96.294-43.111,96.294-96.294C192.593,43.116,149.481,0,96.299,0 M50.132,109.102H31.778l5.008-23.192h17.609
		c11.44,0,14.16,5.644,14.16,10.089C68.555,102.294,64.475,109.102,50.132,109.102 M56.492,74.215H38.133l5.008-23.176H60.75
		c11.44,0,14.16,5.626,14.16,10.075C74.91,67.427,70.83,74.215,56.492,74.215 M90.765,145.409H72.41l5.009-23.193h17.617
		c11.427,0,14.143,5.639,14.143,10.105C109.179,138.616,105.103,145.409,90.765,145.409 M97.578,109.102H79.219l5.013-23.192h17.613
		c11.423,0,14.151,5.644,14.151,10.089C115.996,102.294,111.92,109.102,97.578,109.102 M103.934,74.215H85.587l5-23.176H108.2
		c11.436,0,14.152,5.626,14.152,10.075C122.352,67.427,118.276,74.215,103.934,74.215 M140.372,131.274h-18.355l5.008-23.181h17.609
		c11.436,0,14.152,5.631,14.152,10.08C158.786,124.47,154.71,131.274,140.372,131.274 M147.206,94.95h-18.35l5.012-23.192h17.609
		c11.427,0,14.151,5.643,14.151,10.092C165.628,88.163,161.548,94.95,147.206,94.95"/>
	<path clip-path="url(#SVGID_2_)" fill-rule="evenodd" clip-rule="evenodd" fill="#959595" d="M44.268-417.115
		c7.829,0,15.243,1.438,21.896,4.013l9.792-15.08c0.523-0.81,1.608-1.041,2.419-0.514c0.81,0.526,1.04,1.611,0.513,2.42
		l-9.454,14.561c15.642,7.219,26.297,20.957,26.602,36.774H-7.498c0.305-15.817,10.961-29.556,26.604-36.774l-9.455-14.561
		c-0.527-0.809-0.297-1.894,0.514-2.42c0.81-0.527,1.894-0.296,2.42,0.514l9.792,15.08
		C29.027-415.674,36.443-417.115,44.268-417.115 M34.833-273.854v25.842c0,6.395-5.231,11.627-11.626,11.627
		c-6.394,0-11.625-5.232-11.625-11.627v-25.842H1.828c-5.176,0-9.411-4.235-9.411-9.41v-84.705H96.122v84.705
		c0,5.175-4.236,9.41-9.414,9.41h-9.753v25.842c0,6.395-5.228,11.627-11.623,11.627c-6.393,0-11.623-5.232-11.623-11.627v-25.842
		H34.833z M-26.377-367.569L-26.377-367.569c6.394,0,11.625,5.231,11.625,11.625v46.5c0,6.396-5.231,11.625-11.625,11.625
		s-11.625-5.229-11.625-11.625v-46.5C-38.002-362.337-32.771-367.569-26.377-367.569 M114.917-367.569L114.917-367.569
		c6.395,0,11.627,5.231,11.627,11.625v46.5c0,6.396-5.232,11.625-11.627,11.625s-11.627-5.229-11.627-11.625v-46.5
		C103.29-362.337,108.521-367.569,114.917-367.569 M21.891-401.375c3.288,0,5.955,2.667,5.955,5.954
		c0,3.289-2.667,5.956-5.955,5.956c-3.288,0-5.954-2.667-5.954-5.956C15.937-398.708,18.603-401.375,21.891-401.375 M66.647-401.375
		c3.287,0,5.954,2.667,5.954,5.954c0,3.289-2.667,5.956-5.954,5.956s-5.954-2.667-5.954-5.956
		C60.693-398.708,63.36-401.375,66.647-401.375"/>
	<g clip-path="url(#SVGID_2_)">
		<path fill="#959595" d="M306.757,242.93c-6.66,0-13.727,2.281-17.732,5.934c-3.195,2.908-4.826,6.915-4.826,10.96
			c0,4.073,1.558,8.055,4.826,10.975c4.305,3.878,10.768,5.961,17.732,5.961c6.979,0,13.58-2.059,17.777-5.961
			c3.105-2.88,4.758-7.058,4.758-10.975c0-4.051-1.548-8.036-4.758-10.951C320.028,244.778,314.129,242.93,306.757,242.93
			 M316.278,268.645c-2.398,2.38-5.819,3.657-9.521,3.657c-3.672,0-7.171-1.308-9.529-3.657c-2.271-2.256-3.48-5.445-3.48-8.821
			c0-3.406,1.199-6.597,3.48-8.853c2.358-2.334,5.867-3.637,9.529-3.637c3.643,0,7.146,1.307,9.521,3.637
			c2.286,2.256,3.479,5.437,3.479,8.853C319.757,263.366,318.657,266.276,316.278,268.645"/>
		<path fill="#959595" d="M271.714,257.871c-0.968-0.452-2.492-0.998-3.73-1.312c-2.428-0.585-7.894-1.322-10.522-1.593
			c-2.743-0.29-7.505-0.679-9.402-1.273c-0.58-0.176-1.75-0.737-1.75-2.103c0-0.97,0.531-1.794,1.592-2.463
			c1.691-1.048,5.098-1.705,8.651-1.705c4.197-0.011,7.745,0.938,10.016,1.955c0.768,0.345,1.661,0.837,2.385,1.421
			c0.801,0.663,1.94,2.021,2.349,3.927h3.785v-10.307h-4.232v1.204c0,0.384-0.397,0.88-1.159,0.468
			c-1.888-0.993-7.25-3.137-13.821-3.146c-3.726,0-7.952,0.693-11.55,2.306c-3.312,1.479-6.035,3.868-6.035,7.845
			c0,3.562,2.271,5.662,2.212,5.607c0.973,0.885,2.525,2.408,6.586,3.293c1.817,0.398,5.711,1.008,9.574,1.41
			c3.843,0.418,7.628,0.786,9.166,1.186c1.224,0.313,3.277,0.736,3.277,3.037c0,2.295-2.162,2.992-2.546,3.146
			c-0.373,0.152-2.968,1.336-7.642,1.336c-3.446,0-7.589-1.032-9.099-1.567c-1.739-0.619-3.567-1.44-5.269-3.523
			c-0.422-0.521-1.091-1.932-1.091-3.343h-4.227v11.846h4.698v-1.603c0-0.183,0.226-0.935,1.013-0.575
			c0.983,0.446,3.868,1.593,6.871,2.227c2.467,0.517,4.06,0.879,7.131,0.879c5.004,0,7.702-0.814,9.561-1.346
			c1.749-0.502,3.912-1.401,5.676-2.807c0.949-0.758,3.033-2.698,3.033-6.237c0-3.371-1.819-5.476-2.458-6.124
			C273.891,259.07,272.831,258.393,271.714,257.871"/>
		<path fill="#959595" d="M363.154,248.572h3.883c1.789,0,2.094,0.693,2.113,2.34l0.206,12.553l-20.663-18.647h-14.771v3.76h3.288
			c2.381,0,2.538,1.343,2.538,2.478v17.595c0,1.047,0.059,2.492-1.454,2.492h-4.063v3.76h17.353v-3.76h-4.246
			c-1.681,0-1.76-0.771-1.789-2.413v-15.064l23.798,21.237h6.056l-0.315-23.989c0.01-1.755,0.128-2.34,1.947-2.34h3.794v-3.75
			h-17.674V248.572z"/>
		<path fill="#959595" d="M413.03,271.073l-0.815-0.732l-0.079-0.806v-5.934l0.138-0.55c0.285-0.339,10.96-12.513,11.432-13.054
			c1.032-1.17,1.592-1.42,2.969-1.42h3.795v-3.761h-16.977v3.761h2.557c0.727,0,0.952,0.757,0.618,1.159l-7.195,8.438l-0.206-0.024
			l-7.049-8.429c-0.49-0.604-0.107-1.149,0.473-1.149h2.497v-3.756h-20.722v3.761h3.677c1.611,0,2.664,1.002,3.254,1.666
			c0.48,0.53,11.028,12.487,11.304,12.837l0.255,0.521v5.934l-0.088,0.806l-0.806,0.732l-1.042,0.063h-3.687v3.76h20.613v-3.76
			h-3.873L413.03,271.073z"/>
		<path fill="#959595" d="M428.788,273.191l-0.03-0.904c-0.039-0.698-0.324-0.821-0.6-0.939c0.314-0.19,0.688-0.457,0.688-1.198
			c0-1.062-0.825-1.348-1.641-1.348h-2.311v4.999h0.678v-2.138h1.633c0.815,0,0.895,0.477,0.895,0.884l0.117,1.254h0.826v-0.103
			L428.788,273.191z M427.135,271.078h-1.563v-1.701h1.682c0.334,0,0.904,0.064,0.904,0.841
			C428.158,270.955,427.637,271.078,427.135,271.078"/>
		<path fill="#959595" d="M426.811,267.284c-2.241,0-4.069,1.827-4.069,4.063c0,2.241,1.828,4.07,4.069,4.07s4.069-1.829,4.069-4.07
			C430.88,269.111,429.052,267.284,426.811,267.284 M426.811,274.945c-1.985,0-3.607-1.611-3.607-3.598
			c0-1.985,1.622-3.606,3.607-3.606s3.599,1.621,3.599,3.606C430.41,273.334,428.796,274.945,426.811,274.945"/>
	</g>
	<g clip-path="url(#SVGID_2_)">
		<path fill="#959595" d="M323.796-357.232h19.564c0,6.521,0,13.043,0,19.564h-19.564V-357.232z"/>
		<path fill="#959595" d="M345.359-357.232h19.564c0,6.521,0.001,13.043-0.001,19.564c-6.521-0.001-13.042,0-19.563,0
			C345.357-344.189,345.359-350.71,345.359-357.232"/>
		<path fill="#959595" d="M500.226-349.778c1.804-1.174,4.134-1.282,6.166-0.724c0.018,1.208,0.002,2.417,0.009,3.626
			c-0.966-0.425-2.103-0.702-3.119-0.285c-0.806,0.32-1.285,1.147-1.411,1.975c-0.15,1.049-0.053,2.112-0.079,3.168
			c2.064,0.005,4.128,0.001,6.191,0.002c0.015-1.339-0.017-2.681,0.017-4.021c1.403-0.398,2.791-0.847,4.188-1.267
			c0.012,1.764-0.016,3.531,0.015,5.297c1.396-0.021,2.791-0.005,4.187-0.01v3.436c-1.4-0.057-2.803-0.015-4.203-0.02
			c0.007,1.975,0.002,3.951,0.003,5.927c0.021,1.094-0.06,2.194,0.069,3.284c0.077,0.643,0.312,1.354,0.914,1.688
			c1.01,0.565,2.291,0.318,3.217-0.302v3.47c-1.209,0.525-2.56,0.686-3.867,0.592c-1.241-0.092-2.527-0.543-3.336-1.529
			c-0.937-1.115-1.178-2.625-1.195-4.037c-0.011-3.032,0.001-6.064-0.005-9.097c-2.065-0.001-4.129-0.003-6.193,0.002
			c-0.002,4.758-0.001,9.515-0.001,14.272h-4.23c0-4.757-0.006-9.512,0.002-14.269c-0.981-0.019-1.963,0.005-2.945-0.016
			c0.004-1.129,0.009-2.26-0.002-3.39c0.977-0.022,1.954-0.013,2.934-0.006c0.071-1.502-0.158-3.047,0.291-4.51
			C498.218-347.84,499.063-349.033,500.226-349.778"/>
		<path fill="#959595" d="M409.63-349.531c0.854-0.129,1.777,0.162,2.342,0.83c0.664,0.73,0.785,1.895,0.295,2.748
			c-0.543,0.964-1.758,1.411-2.817,1.18c-1.099-0.197-2.014-1.219-1.965-2.356C407.454-348.329,408.456-349.397,409.63-349.531"/>
		<path fill="#959595" d="M377.203-349.006h6.154c1.914,4.864,3.845,9.722,5.762,14.586c0.49,1.216,0.949,2.447,1.462,3.653
			c2.464-6.077,4.964-12.14,7.409-18.226c1.973-0.032,3.947-0.007,5.921-0.012c-0.005,8.225-0.002,16.449-0.001,24.673
			c-1.424-0.003-2.848,0.012-4.27-0.008c0.015-6.069-0.002-12.138,0.006-18.209c0.003-0.273-0.006-0.545-0.025-0.818
			c-0.084,0.127-0.158,0.259-0.222,0.396c-2.446,6.213-4.938,12.408-7.369,18.626c-1.013,0.036-2.027,0.002-3.041,0.019
			c-2.522-6.213-5.015-12.438-7.524-18.657c-0.065-0.129-0.136-0.255-0.213-0.376c-0.051,2.66-0.008,5.321-0.021,7.98
			c0,3.683-0.002,7.365,0,11.048c-1.342,0.004-2.686,0-4.027,0.001C377.202-332.555,377.201-340.782,377.203-349.006"/>
		<path fill="#959595" d="M421.276-342.033c2.042-0.582,4.243-0.558,6.284,0.02c0.422,0.116,0.83,0.28,1.207,0.503
			c-0.022,1.348,0,2.695-0.012,4.045c-1.365-1.042-3.096-1.702-4.83-1.484c-1.377,0.125-2.69,0.839-3.515,1.952
			c-1.06,1.38-1.303,3.212-1.121,4.899c0.136,1.32,0.683,2.64,1.71,3.516c1.067,0.948,2.563,1.284,3.959,1.178
			c1.379-0.158,2.682-0.742,3.797-1.558c0.012,1.277-0.007,2.555,0.01,3.832c-1.73,1.029-3.805,1.295-5.784,1.197
			c-2.026-0.107-4.046-0.874-5.513-2.299c-1.594-1.535-2.457-3.726-2.561-5.92c-0.104-2.28,0.361-4.659,1.674-6.564
			C417.681-340.341,419.402-341.492,421.276-342.033"/>
		<path fill="#959595" d="M467.498-342.301c1.955-0.345,4.004-0.093,5.856,0.609c0.002,1.297,0,2.594,0.001,3.89
			c-1.294-0.89-2.875-1.367-4.444-1.312c-0.791,0.03-1.661,0.365-2.022,1.117c-0.285,0.744-0.088,1.719,0.615,2.165
			c1.199,0.802,2.631,1.143,3.873,1.862c0.979,0.55,1.928,1.269,2.424,2.306c0.933,1.941,0.537,4.506-1.101,5.954
			c-1.563,1.461-3.815,1.866-5.888,1.788c-1.471-0.096-2.949-0.385-4.303-0.987c0.007-1.364-0.008-2.727,0.008-4.09
			c1.138,0.826,2.449,1.417,3.839,1.657c0.967,0.156,2.019,0.164,2.92-0.269c0.862-0.429,1.019-1.655,0.505-2.405
			c-0.479-0.577-1.184-0.896-1.847-1.209c-1.247-0.56-2.558-1.028-3.652-1.868c-0.771-0.602-1.353-1.447-1.58-2.401
			c-0.339-1.406-0.233-2.992,0.585-4.221C464.22-341.148,465.843-342.006,467.498-342.301"/>
		<path fill="#959595" d="M438.23-341.745c1.168-0.701,2.651-0.76,3.927-0.331c-0.007,1.411,0,2.822-0.003,4.233
			c-0.836-0.54-1.877-0.772-2.861-0.673c-1.2,0.138-2.152,1.06-2.646,2.117c-0.535,1.119-0.637,2.386-0.603,3.611
			c0,2.817,0.002,5.637,0,8.456h-4.171c-0.004-5.892,0.005-11.784-0.004-17.676c1.393-0.019,2.785-0.012,4.178-0.004
			c-0.006,1.012,0,2.023-0.004,3.036C436.496-340.075,437.168-341.145,438.23-341.745"/>
		<path fill="#959595" d="M407.87-342.01c1.403-0.006,2.807-0.021,4.21,0.007c-0.016,5.891-0.001,11.782-0.008,17.673h-4.2
			C407.869-330.223,407.873-336.117,407.87-342.01"/>
		<path fill="#959595" d="M459.697-337.886c-0.734-1.635-2.06-2.998-3.695-3.736c-1.886-0.858-4.027-0.973-6.058-0.714
			c-2.133,0.269-4.209,1.271-5.563,2.973c-1.235,1.519-1.838,3.468-1.952,5.404c-0.171,2.281,0.211,4.701,1.55,6.604
			c1.141,1.643,2.941,2.772,4.888,3.188c1.628,0.342,3.328,0.343,4.954,0.004c1.903-0.391,3.68-1.444,4.858-2.997
			c1.151-1.463,1.729-3.308,1.86-5.149C460.671-334.195,460.481-336.148,459.697-337.886 M455.61-329.77
			c-0.403,0.91-1.144,1.679-2.079,2.042c-1.093,0.421-2.32,0.444-3.449,0.152c-1.147-0.302-2.121-1.132-2.651-2.188
			c-0.681-1.361-0.784-2.935-0.642-4.428c0.127-1.356,0.6-2.753,1.633-3.688c0.75-0.701,1.772-1.043,2.785-1.1
			c1.271-0.083,2.625,0.276,3.539,1.201c0.978,0.961,1.355,2.356,1.461,3.687C456.281-332.635,456.221-331.119,455.61-329.77"/>
		<path fill="#959595" d="M493.583-337.375c-0.65-1.756-1.953-3.274-3.634-4.114c-1.927-0.973-4.169-1.115-6.281-0.853
			c-1.702,0.218-3.376,0.864-4.675,2.006c-1.587,1.366-2.518,3.375-2.791,5.431c-0.261,2.055-0.173,4.219,0.665,6.144
			c0.804,1.887,2.39,3.419,4.299,4.17c1.884,0.741,3.978,0.824,5.959,0.504c2.027-0.335,3.947-1.4,5.202-3.041
			c1.341-1.694,1.918-3.888,1.914-6.023C494.272-334.583,494.093-336.033,493.583-337.375 M489.767-331.38
			c-0.161,0.931-0.483,1.858-1.094,2.596c-0.615,0.74-1.529,1.191-2.472,1.33c-1.013,0.151-2.08,0.079-3.026-0.329
			c-1.023-0.433-1.815-1.317-2.232-2.335c-0.501-1.213-0.602-2.556-0.501-3.853c0.096-1.257,0.452-2.546,1.282-3.522
			c0.756-0.912,1.916-1.416,3.088-1.481c1.193-0.084,2.471,0.192,3.39,0.999c0.847,0.703,1.315,1.757,1.531,2.816
			C489.974-333.917,489.972-332.629,489.767-331.38"/>
		<path fill="#959595" d="M323.796-335.67c6.521,0.002,13.043-0.001,19.564,0.002c0.002,6.521,0,13.042,0,19.563h-19.564V-335.67z"
			/>
		<path fill="#959595" d="M345.36-335.668c6.521-0.002,13.042-0.001,19.563-0.001v19.565h-19.564
			C345.36-322.626,345.358-329.149,345.36-335.668"/>
	</g>
</g>
</svg>
