<?xml version="1.0" encoding="utf-8"?>
<!-- Generator: Adobe Illustrator 16.0.4, SVG Export Plug-In . SVG Version: 6.00 Build 0)  -->
<!DOCTYPE svg PUBLIC "-//W3C//DTD SVG 1.1//EN" "http://www.w3.org/Graphics/SVG/1.1/DTD/svg11.dtd">
<svg version="1.1" id="Layer_1" xmlns="http://www.w3.org/2000/svg" xmlns:xlink="http://www.w3.org/1999/xlink" x="0px" y="0px"
	 width="120px" height="120px" viewBox="0 0 120 120" enable-background="new 0 0 120 120" xml:space="preserve">
<path fill="#999999" d="M60,0C26.863,0,0,26.863,0,60c0,33.136,26.863,60,60,60c33.137,0,60-26.863,60-60C120,26.863,93.137,0,60,0
	 M33.556,32.241c0-1.586,1.285-2.871,2.87-2.871h47.147c1.586,0,2.871,1.285,2.871,2.871v31.541c0,1.586-1.285,2.871-2.871,2.871
	H36.426c-1.585,0-2.87-1.285-2.87-2.871V32.241z M97.104,86.728H22.895c-1.903,0-2.733-2.405-1.236-3.579l11.353-8.899
	c0.352-0.277,0.787-0.428,1.235-0.428h51.505c0.448,0,0.883,0.15,1.235,0.428l11.353,8.899
	C99.838,84.323,99.007,86.728,97.104,86.728"/>
</svg>
