<?xml version="1.0" encoding="utf-8"?>
<!-- Generator: Adobe Illustrator 16.0.4, SVG Export Plug-In . SVG Version: 6.00 Build 0)  -->
<!DOCTYPE svg PUBLIC "-//W3C//DTD SVG 1.1//EN" "http://www.w3.org/Graphics/SVG/1.1/DTD/svg11.dtd">
<svg version="1.1" id="Layer_1" xmlns="http://www.w3.org/2000/svg" xmlns:xlink="http://www.w3.org/1999/xlink" x="0px" y="0px"
	 width="120px" height="120px" viewBox="0 0 120 120" enable-background="new 0 0 120 120" xml:space="preserve">
<g>
	<path fill="#CD040B" d="M67.041,56.148c-0.657,0-1.205,0.112-1.641,0.334c-0.436,0.223-0.784,0.499-1.045,0.827
		c-0.261,0.33-0.445,0.678-0.552,1.046c-0.106,0.367-0.169,0.696-0.188,0.986h6.706c-0.192-1.045-0.536-1.839-1.03-2.381
		C68.796,56.42,68.046,56.148,67.041,56.148"/>
	<path fill="#CD040B" d="M28.735,57.615c-0.281-0.436-0.644-0.789-1.089-1.06c-0.445-0.271-1.006-0.406-1.683-0.406
		c-0.678,0-1.249,0.135-1.713,0.406c-0.465,0.271-0.838,0.629-1.118,1.074c-0.281,0.445-0.484,0.953-0.609,1.524
		c-0.127,0.57-0.189,1.166-0.189,1.785c0,0.58,0.068,1.161,0.203,1.742c0.135,0.58,0.353,1.098,0.653,1.553s0.677,0.823,1.132,1.104
		s1.002,0.421,1.641,0.421c0.677,0,1.243-0.136,1.698-0.407c0.454-0.271,0.817-0.633,1.089-1.088
		c0.271-0.455,0.464-0.974,0.58-1.554c0.116-0.581,0.174-1.18,0.174-1.8c0-0.619-0.058-1.214-0.174-1.786
		C29.214,58.555,29.015,58.05,28.735,57.615"/>
	<path fill="#CD040B" d="M83.705,56.148c-0.658,0-1.205,0.112-1.641,0.334c-0.438,0.223-0.784,0.499-1.046,0.827
		c-0.261,0.33-0.444,0.678-0.552,1.046c-0.105,0.367-0.17,0.696-0.188,0.986h6.706c-0.193-1.045-0.537-1.839-1.031-2.381
		S84.708,56.148,83.705,56.148"/>
	<path fill="#CD040B" d="M60,0C26.863,0,0,26.863,0,60c0,33.138,26.863,60,60,60c33.138,0,60-26.862,60-60S93.137,0,60,0
		 M33.481,68.458h-3.92v-1.916h-0.058c-0.484,0.813-1.117,1.398-1.901,1.757c-0.784,0.357-1.669,0.537-2.656,0.537
		c-1.123,0-2.11-0.218-2.961-0.653c-0.852-0.436-1.553-1.025-2.105-1.771c-0.551-0.745-0.968-1.602-1.248-2.568
		c-0.281-0.969-0.421-1.975-0.421-3.02c0-1.006,0.14-1.979,0.421-2.918c0.28-0.938,0.697-1.765,1.248-2.481
		c0.552-0.717,1.243-1.292,2.076-1.728c0.832-0.436,1.799-0.653,2.903-0.653c0.889,0,1.737,0.188,2.54,0.566
		c0.803,0.377,1.437,0.934,1.901,1.669h0.058V47.73h4.123V68.458z M53.745,68.458h-4.239l-2.671-10.073h-0.058l-2.554,10.073h-4.268
		l-4.761-15.009h4.355l2.758,10.19h0.058l2.496-10.19h4.007l2.554,10.161h0.058l2.758-10.161h4.239L53.745,68.458z M74.443,61.955
		H63.615c0.059,1.335,0.396,2.304,1.016,2.903c0.621,0.6,1.511,0.9,2.672,0.9c0.832,0,1.548-0.208,2.147-0.624
		c0.601-0.416,0.968-0.856,1.104-1.321h3.629c-0.58,1.8-1.472,3.087-2.671,3.861c-1.199,0.773-2.65,1.16-4.354,1.16
		c-1.182,0-2.245-0.188-3.194-0.564c-0.947-0.378-1.752-0.915-2.408-1.612c-0.658-0.697-1.166-1.528-1.523-2.496
		c-0.359-0.968-0.537-2.032-0.537-3.193c0-1.122,0.184-2.167,0.551-3.136c0.369-0.968,0.891-1.805,1.568-2.511
		c0.678-0.707,1.484-1.263,2.424-1.67c0.938-0.406,1.979-0.609,3.121-0.609c1.276,0,2.391,0.247,3.34,0.74
		c0.946,0.493,1.727,1.157,2.336,1.988c0.609,0.833,1.05,1.781,1.32,2.846C74.423,59.681,74.52,60.795,74.443,61.955 M91.106,61.955
		H80.279c0.059,1.335,0.396,2.304,1.016,2.903s1.51,0.9,2.672,0.9c0.831,0,1.548-0.208,2.147-0.624
		c0.599-0.416,0.968-0.856,1.104-1.321h3.629c-0.581,1.8-1.472,3.087-2.671,3.861c-1.2,0.773-2.652,1.16-4.354,1.16
		c-1.181,0-2.245-0.188-3.192-0.564c-0.948-0.378-1.752-0.915-2.41-1.612c-0.657-0.697-1.166-1.528-1.523-2.496
		s-0.537-2.032-0.537-3.193c0-1.122,0.185-2.167,0.553-3.136c0.367-0.968,0.89-1.805,1.566-2.511
		c0.678-0.707,1.485-1.263,2.426-1.67c0.938-0.406,1.978-0.609,3.119-0.609c1.277,0,2.391,0.247,3.34,0.74
		c0.946,0.493,1.727,1.157,2.336,1.988c0.608,0.833,1.05,1.781,1.322,2.846C91.085,59.681,91.183,60.795,91.106,61.955
		 M101.791,56.207H98.77v7.433c0,0.696,0.116,1.161,0.349,1.393c0.232,0.233,0.696,0.35,1.395,0.35c0.232,0,0.454-0.011,0.667-0.029
		c0.213-0.02,0.416-0.048,0.61-0.087v3.192c-0.351,0.059-0.736,0.098-1.162,0.116c-0.426,0.02-0.842,0.029-1.248,0.029
		c-0.639,0-1.243-0.043-1.814-0.13c-0.57-0.088-1.072-0.257-1.51-0.509c-0.436-0.251-0.778-0.609-1.029-1.074
		c-0.252-0.464-0.379-1.074-0.379-1.829v-8.854h-2.495v-2.758h2.495v-4.5h4.123v4.5h3.02V56.207L101.791,56.207z"/>
</g>
</svg>
