<?xml version="1.0" encoding="utf-8"?>
<!-- Generator: Adobe Illustrator 16.0.0, SVG Export Plug-In . SVG Version: 6.00 Build 0)  -->
<!DOCTYPE svg PUBLIC "-//W3C//DTD SVG 1.1//EN" "http://www.w3.org/Graphics/SVG/1.1/DTD/svg11.dtd">
<svg version="1.1" id="Layer_1" xmlns="http://www.w3.org/2000/svg" xmlns:xlink="http://www.w3.org/1999/xlink" x="0px" y="0px"
	 width="83.578px" height="21.105px" viewBox="0 0 83.578 21.105" enable-background="new 0 0 83.578 21.105" xml:space="preserve">
<g>
	<defs>
		<rect id="SVGID_1_" x="-2721.228" y="-256.289" width="2560" height="1810"/>
	</defs>
	<clipPath id="SVGID_2_">
		<use xlink:href="#SVGID_1_"  overflow="visible"/>
	</clipPath>
	<rect x="-2721.228" y="-256.289" clip-path="url(#SVGID_2_)" fill="#F4F4F4" width="2560" height="1810"/>
	<rect x="-2721.228" y="1216.711" clip-path="url(#SVGID_2_)" width="2560" height="337"/>
	<rect x="-2721.228" y="779.711" clip-path="url(#SVGID_2_)" fill="#EAEAEA" width="2560" height="440"/>
	<g clip-path="url(#SVGID_2_)">
		<defs>
			<rect id="SVGID_3_" x="-2721.228" y="-256.289" width="2560" height="1810"/>
		</defs>
		<clipPath id="SVGID_4_">
			<use xlink:href="#SVGID_3_"  overflow="visible"/>
		</clipPath>
		<path clip-path="url(#SVGID_4_)" fill="#959595" d="M-1440.95,819.711c-33.124,0-59.977,26.863-59.977,60s26.853,60,59.977,60
			s59.976-26.863,59.976-60S-1407.826,819.711-1440.95,819.711 M-1444.635,896.312v18.085c-15.617,0-28.322-13.521-28.322-30.142
			v-30.142h18.078v11.271h25.39c-3.766,4.975-5.346,11.244-5.524,18.085h-19.866v0.786
			C-1454.879,890.904-1450.283,896.312-1444.635,896.312 M-1400.042,872.199c-5.642,0-10.235,5.399-10.244,12.037
			c-0.025,16.661-12.732,30.161-28.323,30.161v-18.085c5.639,0,10.235-5.4,10.245-12.036c0.02-16.66,12.726-30.162,28.322-30.162
			V872.199z"/>
	</g>
	<g clip-path="url(#SVGID_2_)">
		<text transform="matrix(1 0 0 1 -1600.4541 1010.9102)"><tspan x="0" y="0" fill="#4B4B4B" font-family="'Gotham-Bold'" font-size="40" letter-spacing="-2">W</tspan><tspan x="42.48" y="0" fill="#4B4B4B" font-family="'Gotham-Bold'" font-size="40">O</tspan><tspan x="75.52" y="0" fill="#4B4B4B" font-family="'Gotham-Bold'" font-size="40">RK </tspan><tspan x="143.358" y="0" fill="#4B4B4B" font-family="'Gotham-Bold'" font-size="40" letter-spacing="-1">W</tspan><tspan x="186.798" y="0" fill="#4B4B4B" font-family="'Gotham-Bold'" font-size="40" letter-spacing="-1">I</tspan><tspan x="198.598" y="0" fill="#4B4B4B" font-family="'Gotham-Bold'" font-size="40" letter-spacing="-1">T</tspan><tspan x="223.078" y="0" fill="#4B4B4B" font-family="'Gotham-Bold'" font-size="40">H</tspan><tspan x="252.678" y="0" fill="#4B4B4B" font-family="'Gotham-Bold'" font-size="40"> </tspan><tspan x="263.917" y="0" fill="#4B4B4B" font-family="'Gotham-Bold'" font-size="40" letter-spacing="-1">U</tspan><tspan x="293.157" y="0" fill="#4B4B4B" font-family="'Gotham-Bold'" font-size="40">S</tspan></text>
	</g>
	<g clip-path="url(#SVGID_2_)">
		<text transform="matrix(1.0285 0 0 1 -2041.4766 1050.9102)"><tspan x="0" y="0" fill="#959595" font-family="'ArialMT'" font-size="30">D</tspan><tspan x="20.945" y="0" fill="#959595" font-family="'ArialMT'" font-size="30">o</tspan><tspan x="37.03" y="0" fill="#959595" font-family="'ArialMT'" font-size="30"> </tspan><tspan x="44.795" y="0" fill="#959595" font-family="'ArialMT'" font-size="30" letter-spacing="-0.972">y</tspan><tspan x="58.504" y="0" fill="#959595" font-family="'ArialMT'" font-size="30">o</tspan><tspan x="74.259" y="0" fill="#959595" font-family="'ArialMT'" font-size="30">u</tspan><tspan x="90.344" y="0" fill="#959595" font-family="'ArialMT'" font-size="30"> </tspan><tspan x="98.109" y="0" fill="#959595" font-family="'ArialMT'" font-size="30" letter-spacing="-0.972">h</tspan><tspan x="113.803" y="0" fill="#959595" font-family="'ArialMT'" font-size="30" letter-spacing="-0.972">a</tspan><tspan x="129.018" y="0" fill="#959595" font-family="'ArialMT'" font-size="30" letter-spacing="-0.972">v</tspan><tspan x="142.608" y="0" fill="#959595" font-family="'ArialMT'" font-size="30">e</tspan><tspan x="158.692" y="0" fill="#959595" font-family="'ArialMT'" font-size="30"> </tspan><tspan x="166.457" y="0" fill="#959595" font-family="'ArialMT'" font-size="30">t</tspan><tspan x="173.982" y="0" fill="#959595" font-family="'ArialMT'" font-size="30">h</tspan><tspan x="189.737" y="0" fill="#959595" font-family="'ArialMT'" font-size="30">e</tspan><tspan x="205.821" y="0" fill="#959595" font-family="'ArialMT'" font-size="30"> </tspan><tspan x="213.586" y="0" fill="#959595" font-family="'ArialMT'" font-size="30">n</tspan><tspan x="229.341" y="0" fill="#959595" font-family="'ArialMT'" font-size="30" letter-spacing="-0.972">e</tspan><tspan x="244.435" y="0" fill="#959595" font-family="'ArialMT'" font-size="30">x</tspan><tspan x="259.165" y="0" fill="#959595" font-family="'ArialMT'" font-size="30">t </tspan><tspan x="274.695" y="0" fill="#959595" font-family="'ArialMT'" font-size="30">b</tspan><tspan x="290.45" y="0" fill="#959595" font-family="'ArialMT'" font-size="30">i</tspan><tspan x="296.275" y="0" fill="#959595" font-family="'ArialMT'" font-size="30">g</tspan><tspan x="312.36" y="0" fill="#959595" font-family="'ArialMT'" font-size="30"> </tspan><tspan x="320.125" y="0" fill="#959595" font-family="'ArialMT'" font-size="30">i</tspan><tspan x="325.98" y="0" fill="#959595" font-family="'ArialMT'" font-size="30">d</tspan><tspan x="341.704" y="0" fill="#959595" font-family="'ArialMT'" font-size="30">e</tspan><tspan x="357.459" y="0" fill="#959595" font-family="'ArialMT'" font-size="30" letter-spacing="-1.945">a</tspan><tspan x="371.893" y="0" fill="#959595" font-family="'ArialMT'" font-size="30">?</tspan><tspan x="387.978" y="0" fill="#959595" font-family="'ArialMT'" font-size="30"> </tspan><tspan x="395.743" y="0" fill="#959595" font-family="'ArialMT'" font-size="30">C</tspan><tspan x="416.778" y="0" fill="#959595" font-family="'ArialMT'" font-size="30">o</tspan><tspan x="432.622" y="0" fill="#959595" font-family="'ArialMT'" font-size="30" letter-spacing="-0.972">n</tspan><tspan x="448.077" y="0" fill="#959595" font-family="'ArialMT'" font-size="30">t</tspan><tspan x="455.782" y="0" fill="#959595" font-family="'ArialMT'" font-size="30" letter-spacing="-0.972">a</tspan><tspan x="471.386" y="0" fill="#959595" font-family="'ArialMT'" font-size="30">c</tspan><tspan x="485.756" y="0" fill="#959595" font-family="'ArialMT'" font-size="30">t </tspan><tspan x="501.286" y="0" fill="#959595" font-family="'ArialMT'" font-size="30" letter-spacing="-0.972">u</tspan><tspan x="516.981" y="0" fill="#959595" font-family="'ArialMT'" font-size="30">s </tspan><tspan x="539.176" y="0" fill="#959595" font-family="'ArialMT'" font-size="30" letter-spacing="-0.972">t</tspan><tspan x="546.401" y="0" fill="#959595" font-family="'ArialMT'" font-size="30">o</tspan><tspan x="562.485" y="0" fill="#959595" font-family="'ArialMT'" font-size="30"> </tspan><tspan x="570.25" y="0" fill="#959595" font-family="'ArialMT'" font-size="30">f</tspan><tspan x="578.435" y="0" fill="#959595" font-family="'ArialMT'" font-size="30" letter-spacing="-0.972">i</tspan><tspan x="584.111" y="0" fill="#959595" font-family="'ArialMT'" font-size="30">n</tspan><tspan x="599.895" y="0" fill="#959595" font-family="'ArialMT'" font-size="30">d</tspan><tspan x="615.979" y="0" fill="#959595" font-family="'ArialMT'" font-size="30"> </tspan><tspan x="623.744" y="0" fill="#959595" font-family="'ArialMT'" font-size="30">o</tspan><tspan x="639.499" y="0" fill="#959595" font-family="'ArialMT'" font-size="30" letter-spacing="-0.972">u</tspan><tspan x="655.134" y="0" fill="#959595" font-family="'ArialMT'" font-size="30">t </tspan><tspan x="670.664" y="0" fill="#959595" font-family="'ArialMT'" font-size="30">h</tspan><tspan x="686.478" y="0" fill="#959595" font-family="'ArialMT'" font-size="30" letter-spacing="-0.972">o</tspan><tspan x="702.053" y="0" fill="#959595" font-family="'ArialMT'" font-size="30">w</tspan><tspan x="723.117" y="0" fill="#959595" font-family="'ArialMT'" font-size="30"> </tspan><tspan x="730.882" y="0" fill="#959595" font-family="'ArialMT'" font-size="30">o</tspan><tspan x="746.637" y="0" fill="#959595" font-family="'ArialMT'" font-size="30" letter-spacing="-0.972">u</tspan><tspan x="762.302" y="0" fill="#959595" font-family="'ArialMT'" font-size="30">r</tspan><tspan x="771.691" y="0" fill="#959595" font-family="'ArialMT'" font-size="30"> </tspan><tspan x="779.456" y="0" fill="#959595" font-family="'ArialMT'" font-size="30">n</tspan><tspan x="795.182" y="0" fill="#959595" font-family="'ArialMT'" font-size="30" letter-spacing="-0.972">e</tspan><tspan x="810.636" y="0" fill="#959595" font-family="'ArialMT'" font-size="30">t</tspan><tspan x="818.941" y="0" fill="#959595" font-family="'ArialMT'" font-size="30" letter-spacing="-0.972">w</tspan><tspan x="839.466" y="0" fill="#959595" font-family="'ArialMT'" font-size="30">o</tspan><tspan x="855.31" y="0" fill="#959595" font-family="'ArialMT'" font-size="30">r</tspan><tspan x="864.821" y="0" fill="#959595" font-family="'ArialMT'" font-size="30">k</tspan><tspan x="879.221" y="0" fill="#959595" font-family="'ArialMT'" font-size="30"> </tspan><tspan x="886.985" y="0" fill="#959595" font-family="'ArialMT'" font-size="30">c</tspan><tspan x="901.595" y="0" fill="#959595" font-family="'ArialMT'" font-size="30" letter-spacing="-0.972">a</tspan><tspan x="917.29" y="0" fill="#959595" font-family="'ArialMT'" font-size="30">n</tspan><tspan x="933.375" y="0" fill="#959595" font-family="'ArialMT'" font-size="30"> </tspan><tspan x="941.14" y="0" fill="#959595" font-family="'ArialMT'" font-size="30">h</tspan><tspan x="956.954" y="0" fill="#959595" font-family="'ArialMT'" font-size="30">o</tspan><tspan x="972.799" y="0" fill="#959595" font-family="'ArialMT'" font-size="30" letter-spacing="-0.972">s</tspan><tspan x="986.719" y="0" fill="#959595" font-family="'ArialMT'" font-size="30">t </tspan><tspan x="1002.249" y="0" fill="#959595" font-family="'ArialMT'" font-size="30" letter-spacing="-0.972">y</tspan><tspan x="1015.959" y="0" fill="#959595" font-family="'ArialMT'" font-size="30">o</tspan><tspan x="1031.714" y="0" fill="#959595" font-family="'ArialMT'" font-size="30" letter-spacing="-0.972">u</tspan><tspan x="1047.378" y="0" fill="#959595" font-family="'ArialMT'" font-size="30">r</tspan><tspan x="1056.768" y="0" fill="#959595" font-family="'ArialMT'" font-size="30"> </tspan><tspan x="1064.534" y="0" fill="#959595" font-family="'ArialMT'" font-size="30">s</tspan><tspan x="1078.663" y="0" fill="#959595" font-family="'ArialMT'" font-size="30">o</tspan><tspan x="1094.508" y="0" fill="#959595" font-family="'ArialMT'" font-size="30" letter-spacing="-0.972">l</tspan><tspan x="1100.153" y="0" fill="#959595" font-family="'ArialMT'" font-size="30" letter-spacing="-0.972">u</tspan><tspan x="1115.788" y="0" fill="#959595" font-family="'ArialMT'" font-size="30">ti</tspan><tspan x="1129.168" y="0" fill="#959595" font-family="'ArialMT'" font-size="30">o</tspan><tspan x="1145.012" y="0" fill="#959595" font-family="'ArialMT'" font-size="30" letter-spacing="-0.972">n</tspan><tspan x="1160.467" y="0" fill="#959595" font-family="'ArialMT'" font-size="30">.</tspan></text>
	</g>
	<g clip-path="url(#SVGID_2_)">
		<defs>
			<rect id="SVGID_5_" x="-2721.228" y="-256.289" width="2560" height="1810"/>
		</defs>
		<clipPath id="SVGID_6_">
			<use xlink:href="#SVGID_5_"  overflow="visible"/>
		</clipPath>
		<path clip-path="url(#SVGID_6_)" fill="#959595" d="M-1549.228,1079.711h215.262c3.169,0,5.738,2.569,5.738,5.738v48.523
			c0,3.169-2.569,5.738-5.738,5.738h-215.262c-3.169,0-5.738-2.569-5.738-5.738v-48.523
			C-1554.966,1082.28-1552.396,1079.711-1549.228,1079.711"/>
	</g>
	<g clip-path="url(#SVGID_2_)">
		<text transform="matrix(1 0 0 1 -1522.167 1117.4414)"><tspan x="0" y="0" fill="#FFFFFF" font-family="'Gotham-Medium'" font-size="24">C</tspan><tspan x="17.256" y="0" fill="#FFFFFF" font-family="'Gotham-Medium'" font-size="24">ON</tspan><tspan x="56.615" y="0" fill="#FFFFFF" font-family="'Gotham-Medium'" font-size="24" letter-spacing="-2">T</tspan><tspan x="70.007" y="0" fill="#FFFFFF" font-family="'Gotham-Medium'" font-size="24" letter-spacing="-1">A</tspan><tspan x="87.911" y="0" fill="#FFFFFF" font-family="'Gotham-Medium'" font-size="24">CT US</tspan></text>
	</g>
	<g clip-path="url(#SVGID_2_)">
		<defs>
			<rect id="SVGID_7_" x="-2721.228" y="-256.289" width="2560" height="1810"/>
		</defs>
		<clipPath id="SVGID_8_">
			<use xlink:href="#SVGID_7_"  overflow="visible"/>
		</clipPath>
		<polygon clip-path="url(#SVGID_8_)" fill="#CD040B" points="-602.995,1367.249 -607.354,1376.599 -609.003,1373.051 
			-610.784,1373.051 -608.077,1378.854 -606.639,1378.854 -601.228,1367.249 		"/>
		<path clip-path="url(#SVGID_8_)" fill="#FFFFFF" d="M-621.741,1384.609h3.521v-6.434c0-1.468,0.857-2.506,2.122-2.506
			c1.22,0,1.851,0.858,1.851,2.077v6.862h3.522v-7.54c0-2.552-1.535-4.357-4.019-4.357c-1.58,0-2.687,0.678-3.521,1.919h-0.068
			v-1.58h-3.408V1384.609z M-628.649,1372.735c-3.68,0-6.141,2.641-6.141,6.117c0,3.454,2.461,6.118,6.141,6.118
			s6.141-2.664,6.141-6.118C-622.509,1375.376-624.97,1372.735-628.649,1372.735 M-628.673,1382.375c-1.67,0-2.551-1.4-2.551-3.522
			c0-2.145,0.881-3.521,2.551-3.521c1.672,0,2.598,1.377,2.598,3.521C-626.075,1380.975-627.001,1382.375-628.673,1382.375
			 M-644.813,1384.609h9.888v-2.776h-5.598v-0.068l5.35-6.005v-2.709h-9.64v2.777h5.418v0.066l-5.418,6.051V1384.609z
			 M-649.329,1384.609h3.545v-11.559h-3.545V1384.609z M-657.547,1384.609h3.522v-5.306c0-2.415,1.445-3.476,3.657-3.183h0.067
			v-3.047c-0.181-0.068-0.384-0.091-0.722-0.091c-1.377,0-2.303,0.632-3.093,1.986h-0.068v-1.919h-3.364V1384.609z
			 M-664.025,1382.396c-1.558,0-2.506-1.016-2.687-2.572h8.33c0.023-2.484-0.632-4.471-2.009-5.712
			c-0.971-0.903-2.258-1.4-3.883-1.4c-3.478,0-5.892,2.642-5.892,6.096c0,3.477,2.303,6.141,6.117,6.141
			c1.445,0,2.596-0.385,3.545-1.039c1.016-0.699,1.737-1.715,1.941-2.731h-3.387
			C-662.288,1381.945-662.986,1382.396-664.025,1382.396 M-664.206,1375.241c1.241,0,2.1,0.925,2.235,2.279h-4.719
			C-666.419,1376.144-665.674,1375.241-664.206,1375.241 M-677.21,1384.609h3.703l4.019-11.559h-3.544l-2.258,7.427h-0.046
			l-2.257-7.427h-3.635L-677.21,1384.609z M-649.329,1368.942h3.545v3.138h-3.545V1368.942z"/>
	</g>
	<g clip-path="url(#SVGID_2_)">
		<text transform="matrix(1 0 0 1 -2281.2246 1384.4727)"><tspan x="0" y="0" fill="#FFFFFF" font-family="'NHaasGroteskTXPro-55Rg'" font-size="12">© 2</tspan><tspan x="20.724" y="0" fill="#FFFFFF" font-family="'NHaasGroteskTXPro-55Rg'" font-size="12">0</tspan><tspan x="28.56" y="0" fill="#FFFFFF" font-family="'NHaasGroteskTXPro-55Rg'" font-size="12">16 </tspan><tspan x="43.991" y="0" fill="#FFFFFF" font-family="'NHaasGroteskTXPro-55Rg'" font-size="12">V</tspan><tspan x="51.191" y="0" fill="#FFFFFF" font-family="'NHaasGroteskTXPro-55Rg'" font-size="12">eri</tspan><tspan x="65.315" y="0" fill="#FFFFFF" font-family="'NHaasGroteskTXPro-55Rg'" font-size="12">z</tspan><tspan x="71.231" y="0" fill="#FFFFFF" font-family="'NHaasGroteskTXPro-55Rg'" font-size="12">on. All Rig</tspan><tspan x="126.202" y="0" fill="#FFFFFF" font-family="'NHaasGroteskTXPro-55Rg'" font-size="12">h</tspan><tspan x="132.946" y="0" fill="#FFFFFF" font-family="'NHaasGroteskTXPro-55Rg'" font-size="12">ts </tspan><tspan x="146.614" y="0" fill="#FFFFFF" font-family="'NHaasGroteskTXPro-55Rg'" font-size="12">R</tspan><tspan x="154.954" y="0" fill="#FFFFFF" font-family="'NHaasGroteskTXPro-55Rg'" font-size="12">e</tspan><tspan x="161.877" y="0" fill="#FFFFFF" font-family="'NHaasGroteskTXPro-55Rg'" font-size="12">s</tspan><tspan x="168.261" y="0" fill="#FFFFFF" font-family="'NHaasGroteskTXPro-55Rg'" font-size="12">er</tspan><tspan x="179.733" y="0" fill="#FFFFFF" font-family="'NHaasGroteskTXPro-55Rg'" font-size="12">v</tspan><tspan x="185.529" y="0" fill="#FFFFFF" font-family="'NHaasGroteskTXPro-55Rg'" font-size="12">ed.</tspan></text>
	</g>
	<g clip-path="url(#SVGID_2_)">
		<text transform="matrix(1 0 0 1 -751.165 1384.4727)"><tspan x="0" y="0" fill="#FFFFFF" font-family="'NHaasGroteskTXPro-55Rg'" font-size="12">P</tspan><tspan x="7.596" y="0" fill="#FFFFFF" font-family="'NHaasGroteskTXPro-55Rg'" font-size="12">ow</tspan><tspan x="23.88" y="0" fill="#FFFFFF" font-family="'NHaasGroteskTXPro-55Rg'" font-size="12">e</tspan><tspan x="30.804" y="0" fill="#FFFFFF" font-family="'NHaasGroteskTXPro-55Rg'" font-size="12">r</tspan><tspan x="35.111" y="0" fill="#FFFFFF" font-family="'NHaasGroteskTXPro-55Rg'" font-size="12">ed </tspan><tspan x="52.379" y="0" fill="#FFFFFF" font-family="'NHaasGroteskTXPro-55Rg'" font-size="12">b</tspan><tspan x="59.399" y="0" fill="#FFFFFF" font-family="'NHaasGroteskTXPro-55Rg'" font-size="12">y</tspan></text>
	</g>
	<g clip-path="url(#SVGID_2_)">
		<defs>
			<rect id="SVGID_9_" x="-2721.228" y="-256.289" width="2560" height="1810"/>
		</defs>
		<clipPath id="SVGID_10_">
			<use xlink:href="#SVGID_9_"  overflow="visible"/>
		</clipPath>
		<rect x="-2281.228" y="1346.711" clip-path="url(#SVGID_10_)" fill="#4B4B4B" width="1680" height="1"/>
		<path clip-path="url(#SVGID_10_)" fill="#959595" d="M-696.228,1296.711c-8.284,0-15,6.716-15,15s6.716,15,15,15s15-6.716,15-15
			S-687.943,1296.711-696.228,1296.711 M-689.358,1308.674c0.004,0.132,0.008,0.264,0.008,0.396c0,4.034-2.997,8.689-8.475,8.689
			c-1.682,0-3.249-0.507-4.565-1.372c0.231,0.027,0.469,0.043,0.709,0.043c1.396,0,2.682-0.489,3.702-1.307
			c-1.307-0.027-2.403-0.907-2.784-2.12c0.183,0.035,0.369,0.054,0.559,0.054c0.275,0-0.079-0.039,0.169-0.108
			c-1.363-0.278-3.008-1.516-3.008-2.996v-0.035c0,0.225,1.48,0.364,1.97,0.38c-0.803-0.546-1.017-1.484-1.017-2.543
			c0-0.558,0.301-1.085,0.557-1.535c1.469,1.849,3.74,3.062,6.217,3.19c-0.054-0.225-0.039-0.457-0.039-0.694
			c0-1.686,1.354-3.054,2.998-3.054c0.855,0,1.641,0.368,2.184,0.961c0.679-0.136,1.318-0.387,1.896-0.74
			c-0.221,0.713-0.691,1.314-1.308,1.69c0.604-0.074,1.179-0.236,1.71-0.481C-688.271,1307.705-688.777,1308.244-689.358,1308.674"
			/>
		<path clip-path="url(#SVGID_10_)" fill="#959595" d="M-656.228,1296.711c-8.284,0-15,6.716-15,15s6.716,15,15,15s15-6.716,15-15
			S-647.943,1296.711-656.228,1296.711 M-649.073,1318.09c0,0.426-0.35,0.775-0.775,0.775h-3.648v-5.396h1.648l0.279-2.325h-1.928
			v-1.506c0-0.62-0.026-0.82,0.865-0.82h1.461v-2.145c-0.388-0.028-0.988-0.086-1.775-0.086c-1.637,0-2.876,1-2.876,2.837v1.72
			h-1.938v2.325h1.938v5.396h-6.784c-0.426,0-0.775-0.35-0.775-0.775v-12.758c0-0.426,0.35-0.775,0.775-0.775h12.758
			c0.426,0,0.775,0.35,0.775,0.775V1318.09z"/>
		<path clip-path="url(#SVGID_10_)" fill="#959595" d="M-617.686,1317.358c-0.19,0.271-0.347,0.42-0.52,0.42
			c-0.114,0-0.171-0.049-0.192-0.182v-0.333v-3.511h-0.902v3.748c0,0.33,0.043,0.554,0.101,0.697
			c0.097,0.236,0.289,0.367,0.565,0.367c0.316,0,0.606-0.197,0.948-0.59v0.522h0.902v-4.745h-0.902V1317.358z"/>
		<path clip-path="url(#SVGID_10_)" fill="#959595" d="M-616.251,1308.725c0.279,0,0.427-0.236,0.38-0.71v-1.898
			c0.048-0.475-0.101-0.697-0.38-0.697c-0.28,0-0.428,0.223-0.379,0.697v1.898C-616.679,1308.488-616.531,1308.725-616.251,1308.725
			"/>
		<path clip-path="url(#SVGID_10_)" fill="#959595" d="M-614.311,1313.676c-0.315,0-0.63,0.194-0.908,0.536l0.001-2.073h-0.854
			v6.359h0.854l0.001-0.478c0.287,0.354,0.601,0.539,0.906,0.539c0.342,0,0.592-0.184,0.707-0.536
			c0.057-0.201,0.095-0.511,0.095-0.949v-1.898c0-0.449-0.058-0.757-0.115-0.947
			C-613.738,1313.873-613.969,1313.676-614.311,1313.676 M-614.41,1317.121c0,0.476-0.112,0.657-0.36,0.657
			c-0.141,0-0.304-0.073-0.448-0.217l0.001-2.878c0.145-0.143,0.307-0.217,0.447-0.217c0.248,0,0.36,0.14,0.36,0.614V1317.121z"/>
		<polygon clip-path="url(#SVGID_10_)" fill="#959595" points="-619.156,1312.139 -622.146,1312.139 -622.146,1313.04 
			-621.149,1313.04 -621.149,1318.498 -620.2,1318.498 -620.2,1313.04 -619.156,1313.04 		"/>
		<path clip-path="url(#SVGID_10_)" fill="#959595" d="M-616.228,1296.711c-8.284,0-15,6.716-15,15s6.716,15,15,15s15-6.716,15-15
			S-607.943,1296.711-616.228,1296.711 M-614.306,1304.645h0.902v3.56v0.332c0.021,0.134,0.077,0.182,0.191,0.182
			c0.174,0,0.329-0.149,0.521-0.419v-3.654h0.901v4.793h-0.901v-0.521c-0.342,0.392-0.632,0.59-0.948,0.59
			c-0.277,0-0.47-0.131-0.566-0.367c-0.058-0.144-0.1-0.368-0.1-0.697V1304.645z M-616.251,1304.609
			c0.379,0,0.757,0.135,0.996,0.462c0.183,0.242,0.285,0.627,0.285,1.14v1.708c0,0.51-0.084,0.861-0.266,1.102
			c-0.24,0.327-0.637,0.5-1.016,0.5s-0.769-0.173-1.009-0.5c-0.185-0.24-0.272-0.592-0.272-1.102l0.001-1.704
			c0-0.513,0.099-0.901,0.284-1.144C-617.008,1304.744-616.682,1304.609-616.251,1304.609 M-619.669,1303.031l0.666,2.5l0.663-2.5
			h0.997l-1.187,3.797v2.609h-0.949v-2.609c0,0-0.983-3.201-1.187-3.797H-619.669z M-609.142,1315.962
			c0,1.142-0.142,2.283-0.142,2.283s-0.138,0.973-0.563,1.4c-0.539,0.562-1.143,0.565-1.42,0.598
			c-1.982,0.143-4.961,0.147-4.961,0.147s-3.686-0.032-4.818-0.142c-0.315-0.059-1.023-0.041-1.562-0.604
			c-0.425-0.428-0.562-1.4-0.562-1.4s-0.143-1.142-0.143-2.283v-1.07c0-1.142,0.143-2.283,0.143-2.283s0.138-0.972,0.562-1.4
			c0.539-0.562,1.143-0.564,1.42-0.598c1.982-0.143,4.958-0.143,4.958-0.143h0.006c0,0,2.976,0,4.958,0.143
			c0.277,0.033,0.881,0.036,1.42,0.598c0.426,0.429,0.563,1.4,0.563,1.4s0.142,1.142,0.142,2.283V1315.962z"/>
		<path clip-path="url(#SVGID_10_)" fill="#959595" d="M-610.327,1316.268v-0.971c0-0.507-0.101-0.878-0.279-1.117
			c-0.241-0.325-0.583-0.497-1.014-0.497c-0.439,0-0.781,0.172-1.03,0.497c-0.183,0.239-0.289,0.632-0.289,1.139v1.661
			c0,0.504,0.116,0.856,0.3,1.094c0.248,0.324,0.591,0.486,1.04,0.486s0.802-0.17,1.039-0.515c0.104-0.152,0.172-0.324,0.201-0.515
			c0.008-0.086,0.03-0.282,0.03-0.559v-0.135h-0.901c0,0.345,0.001,0.55-0.007,0.597c-0.049,0.229-0.172,0.345-0.383,0.345
			c-0.296,0-0.421-0.221-0.418-0.659v-0.852H-610.327z M-612.038,1315.031c0-0.443,0.122-0.564,0.409-0.564
			c0.285,0,0.398,0.132,0.398,0.57v0.519l-0.808,0.001V1315.031z"/>
		<path clip-path="url(#SVGID_10_)" fill="#959595" d="M-736.228,1296.711c-8.285,0-15,6.716-15,15s6.715,15,15,15
			c8.284,0,15-6.716,15-15S-727.943,1296.711-736.228,1296.711 M-740.161,1318.817h-2.952v-9.493h2.952V1318.817z
			 M-741.638,1308.025c-0.944,0-1.709-0.766-1.709-1.71s0.765-1.712,1.709-1.712c0.943,0,1.711,0.768,1.711,1.712
			S-740.694,1308.025-741.638,1308.025 M-729.108,1318.817h-2.949v-4.616c0-1.103-0.02-2.519-1.533-2.519
			c-1.536,0-1.771,1.2-1.771,2.439v4.695h-2.949v-9.493h2.83v1.298h0.04c0.396-0.747,1.357-1.533,2.792-1.533
			c2.988,0,3.54,1.965,3.54,4.522V1318.817z"/>
	</g>
	<g clip-path="url(#SVGID_2_)">
		<text transform="matrix(1 0 0 1 -2280.813 1320.3662)"><tspan x="0" y="0" fill="#959595" font-family="'Gotham-Book'" font-size="20">S</tspan><tspan x="9.44" y="0" fill="#959595" font-family="'Gotham-Book'" font-size="20">ol</tspan><tspan x="24.14" y="0" fill="#959595" font-family="'Gotham-Book'" font-size="20">u</tspan><tspan x="34.54" y="0" fill="#959595" font-family="'Gotham-Book'" font-size="20">t</tspan><tspan x="40.319" y="0" fill="#959595" font-family="'Gotham-Book'" font-size="20">i</tspan><tspan x="44.399" y="0" fill="#959595" font-family="'Gotham-Book'" font-size="20">o</tspan><tspan x="54.919" y="0" fill="#959595" font-family="'Gotham-Book'" font-size="20">n</tspan><tspan x="65.519" y="0" fill="#959595" font-family="'Gotham-Book'" font-size="20">s</tspan></text>
	</g>
	<g clip-path="url(#SVGID_2_)">
		<text transform="matrix(1 0 0 1 -2154.5928 1320.3662)"><tspan x="0" y="0" fill="#959595" font-family="'Gotham-Book'" font-size="20">I</tspan><tspan x="4.32" y="0" fill="#959595" font-family="'Gotham-Book'" font-size="20">n</tspan><tspan x="15" y="0" fill="#959595" font-family="'Gotham-Book'" font-size="20">n</tspan><tspan x="25.66" y="0" fill="#959595" font-family="'Gotham-Book'" font-size="20" letter-spacing="-1">o</tspan><tspan x="35.6" y="0" fill="#959595" font-family="'Gotham-Book'" font-size="20">v</tspan><tspan x="44.459" y="0" fill="#959595" font-family="'Gotham-Book'" font-size="20">a</tspan><tspan x="53.419" y="0" fill="#959595" font-family="'Gotham-Book'" font-size="20">t</tspan><tspan x="59.199" y="0" fill="#959595" font-family="'Gotham-Book'" font-size="20">i</tspan><tspan x="63.279" y="0" fill="#959595" font-family="'Gotham-Book'" font-size="20">o</tspan><tspan x="73.779" y="0" fill="#959595" font-family="'Gotham-Book'" font-size="20">n</tspan></text>
	</g>
	<g clip-path="url(#SVGID_2_)">
		<text transform="matrix(1 0 0 1 -2016.313 1320.3662)"><tspan x="0" y="0" fill="#959595" font-family="'Gotham-Book'" font-size="20">P</tspan><tspan x="10.02" y="0" fill="#959595" font-family="'Gotham-Book'" font-size="20">a</tspan><tspan x="19.24" y="0" fill="#959595" font-family="'Gotham-Book'" font-size="20">r</tspan><tspan x="25.66" y="0" fill="#959595" font-family="'Gotham-Book'" font-size="20">t</tspan><tspan x="31.52" y="0" fill="#959595" font-family="'Gotham-Book'" font-size="20">ne</tspan><tspan x="51.839" y="0" fill="#959595" font-family="'Gotham-Book'" font-size="20">r</tspan><tspan x="57.899" y="0" fill="#959595" font-family="'Gotham-Book'" font-size="20">s</tspan></text>
	</g>
	<g clip-path="url(#SVGID_2_)">
		<text transform="matrix(1 0 0 1 -1898.793 1320.3662)"><tspan x="0" y="0" fill="#959595" font-family="'Gotham-Book'" font-size="20">D</tspan><tspan x="12.92" y="0" fill="#959595" font-family="'Gotham-Book'" font-size="20">e</tspan><tspan x="21.979" y="0" fill="#959595" font-family="'Gotham-Book'" font-size="20" letter-spacing="-1">v</tspan><tspan x="30.559" y="0" fill="#959595" font-family="'Gotham-Book'" font-size="20">e</tspan><tspan x="40.119" y="0" fill="#959595" font-family="'Gotham-Book'" font-size="20">l</tspan><tspan x="44.279" y="0" fill="#959595" font-family="'Gotham-Book'" font-size="20">o</tspan><tspan x="54.799" y="0" fill="#959595" font-family="'Gotham-Book'" font-size="20">p</tspan></text>
	</g>
	<g clip-path="url(#SVGID_2_)">
		<text transform="matrix(1 0 0 1 -1782.6128 1320.3662)"><tspan x="0" y="0" fill="#959595" font-family="'Gotham-Book'" font-size="20">M</tspan><tspan x="15.72" y="0" fill="#959595" font-family="'Gotham-Book'" font-size="20">a</tspan><tspan x="24.939" y="0" fill="#959595" font-family="'Gotham-Book'" font-size="20">n</tspan><tspan x="35.58" y="0" fill="#959595" font-family="'Gotham-Book'" font-size="20">a</tspan><tspan x="44.719" y="0" fill="#959595" font-family="'Gotham-Book'" font-size="20">g</tspan><tspan x="55.459" y="0" fill="#959595" font-family="'Gotham-Book'" font-size="20">e</tspan></text>
	</g>
	<g clip-path="url(#SVGID_2_)">
		<text transform="matrix(1 0 0 1 -1667.793 1320.3662)"><tspan x="0" y="0" fill="#959595" font-family="'Gotham-Book'" font-size="20">C</tspan><tspan x="11.12" y="0" fill="#959595" font-family="'Gotham-Book'" font-size="20">o</tspan><tspan x="21.64" y="0" fill="#959595" font-family="'Gotham-Book'" font-size="20">n</tspan><tspan x="32.06" y="0" fill="#959595" font-family="'Gotham-Book'" font-size="20">t</tspan><tspan x="38.179" y="0" fill="#959595" font-family="'Gotham-Book'" font-size="20">a</tspan><tspan x="47.379" y="0" fill="#959595" font-family="'Gotham-Book'" font-size="20">c</tspan><tspan x="56.079" y="0" fill="#959595" font-family="'Gotham-Book'" font-size="20">t</tspan></text>
	</g>
	<g clip-path="url(#SVGID_2_)">
		<defs>
			<rect id="SVGID_11_" x="-2721.228" y="-256.289" width="2560" height="1810"/>
		</defs>
		<clipPath id="SVGID_12_">
			<use xlink:href="#SVGID_11_"  overflow="visible"/>
		</clipPath>
		<rect x="-2281.228" y="1275.711" clip-path="url(#SVGID_12_)" fill="#4B4B4B" width="1680" height="1"/>
		<path clip-path="url(#SVGID_12_)" fill="#CD040B" d="M-2008.228,391.032c-33.137,0-60,26.863-60,60c0,33.137,26.863,60,60,60
			c33.138,0,60-26.863,60-60C-1948.228,417.896-1975.09,391.032-2008.228,391.032 M-1998.726,479.532
			c0,1.542-1.133,2.813-2.608,3.048c-0.128,1.096-1.05,1.952-2.177,1.952h-9.433c-1.128,0-2.049-0.855-2.178-1.952
			c-1.474-0.235-2.608-1.506-2.608-3.048v-6.956c0-1.07,0.875-1.944,1.945-1.944h15.115c1.069,0,1.944,0.874,1.944,1.944V479.532z
			 M-1992.647,448.471c-0.037,0.067-0.078,0.133-0.123,0.197c-0.344,0.487-0.685,0.956-1.023,1.42
			c-0.945,1.298-1.838,2.525-2.692,4.032c-2.134,3.772-2.029,7.246-1.985,8.73c0.006,0.193,0.011,0.354,0.011,0.479v0.174
			c0,1.105-0.896,2-2,2h-15.524c-1.105,0-2-0.895-2-2v-0.148c-0.002-0.108,0.001-0.259,0.005-0.448
			c0.033-1.371,0.119-5.013-2.015-8.785c-0.856-1.509-1.749-2.735-2.694-4.034c-0.337-0.464-0.679-0.932-1.023-1.42
			c-0.073-0.104-0.135-0.213-0.186-0.326c-2.563-3.818-3.81-7.484-3.81-11.196c0-10.815,8.738-19.613,19.478-19.613
			c10.74,0,19.478,8.793,19.478,19.602C-1988.75,440.896-1990.025,444.605-1992.647,448.471"/>
		<path clip-path="url(#SVGID_12_)" fill="#FFFFFF" d="M-1762.758,533.711h-491.098c-4.071,0-7.371,2.568-7.371,5.735v48.498
			c0,3.167,3.3,5.735,7.371,5.735h491.098c4.159,0,7.531-2.568,7.531-5.735v-48.498
			C-1755.227,536.279-1758.599,533.711-1762.758,533.711"/>
		<path clip-path="url(#SVGID_12_)" fill="#CD040B" d="M-1418.489,653.711h215.262c3.169,0,5.738,2.569,5.738,5.738v48.523
			c0,3.169-2.569,5.738-5.738,5.738h-215.262c-3.169,0-5.738-2.569-5.738-5.738v-48.523
			C-1424.228,656.28-1421.658,653.711-1418.489,653.711"/>
	</g>
	<g clip-path="url(#SVGID_2_)">
		<text transform="matrix(1 0 0 1 -1350.4111 691.4414)"><tspan x="0" y="0" fill="#FFFFFF" font-family="'Gotham-Medium'" font-size="24">T</tspan><tspan x="15.552" y="0" fill="#FFFFFF" font-family="'Gotham-Medium'" font-size="24">R</tspan><tspan x="32.328" y="0" fill="#FFFFFF" font-family="'Gotham-Medium'" font-size="24">Y IT</tspan></text>
	</g>
	<g clip-path="url(#SVGID_2_)">
		<defs>
			<rect id="SVGID_13_" x="-2721.228" y="-256.289" width="2560" height="1810"/>
		</defs>
		<clipPath id="SVGID_14_">
			<use xlink:href="#SVGID_13_"  overflow="visible"/>
		</clipPath>
		<path clip-path="url(#SVGID_14_)" fill="#CD040B" d="M-1463.228,653.711c3.169,0,5.738,2.569,5.738,5.738v48.523
			c0,3.169-2.569,5.738-5.738,5.738h-215.262c-3.169,0-5.738-2.569-5.738-5.738v-48.523c0-3.169,2.569-5.738,5.738-5.738H-1463.228
			 M-1463.228,651.711h-215.262c-4.267,0-7.738,3.471-7.738,7.738v48.523c0,4.268,3.471,7.738,7.738,7.738h215.262
			c4.267,0,7.738-3.471,7.738-7.738v-48.523C-1455.49,655.182-1458.96,651.711-1463.228,651.711"/>
	</g>
	<g clip-path="url(#SVGID_2_)">
		<text transform="matrix(1 0 0 1 -1628.6636 691.4414)" fill="#CD040B" font-family="'Gotham-Medium'" font-size="24">SHARE IT</text>
	</g>
	<g clip-path="url(#SVGID_2_)">
		<defs>
			<rect id="SVGID_15_" x="-2721.228" y="-256.289" width="2560" height="1810"/>
		</defs>
		<clipPath id="SVGID_16_">
			<use xlink:href="#SVGID_15_"  overflow="visible"/>
		</clipPath>
		<path clip-path="url(#SVGID_16_)" fill="#CCCCCC" d="M-606.966,364.711c2.613,0,4.738,2.125,4.738,4.738v238.524
			c0,2.612-2.125,4.738-4.738,4.738h-534.523c-2.612,0-4.738-2.126-4.738-4.738V369.449c0-2.613,2.126-4.738,4.738-4.738H-606.966
			 M-606.966,363.711h-534.523c-3.169,0-5.738,2.569-5.738,5.738v238.524c0,3.169,2.569,5.738,5.738,5.738h534.523
			c3.169,0,5.738-2.569,5.738-5.738V369.449C-601.228,366.28-603.797,363.711-606.966,363.711"/>
		<path clip-path="url(#SVGID_16_)" fill="#CCCCCC" d="M-1173.966,364.711c2.613,0,4.738,2.125,4.738,4.738v238.524
			c0,2.612-2.125,4.738-4.738,4.738h-534.524c-2.612,0-4.738-2.126-4.738-4.738V369.449c0-2.613,2.126-4.738,4.738-4.738H-1173.966
			 M-1173.966,363.711h-534.524c-3.169,0-5.738,2.569-5.738,5.738v238.524c0,3.169,2.569,5.738,5.738,5.738h534.524
			c3.169,0,5.738-2.569,5.738-5.738V369.449C-1168.228,366.28-1170.797,363.711-1173.966,363.711"/>
		<path clip-path="url(#SVGID_16_)" fill="#CCCCCC" d="M-1740.965,364.711c2.613,0,4.738,2.125,4.738,4.738v238.524
			c0,2.612-2.125,4.738-4.738,4.738h-534.524c-2.612,0-4.738-2.126-4.738-4.738V369.449c0-2.613,2.126-4.738,4.738-4.738H-1740.965
			 M-1740.965,363.711h-534.524c-3.169,0-5.738,2.569-5.738,5.738v238.524c0,3.169,2.569,5.738,5.738,5.738h534.524
			c3.169,0,5.738-2.569,5.738-5.738V369.449C-1735.228,366.28-1737.796,363.711-1740.965,363.711"/>
		<path clip-path="url(#SVGID_16_)" fill="#CD040B" d="M-1434.188,450.416c-0.657,0-1.205,0.112-1.64,0.334
			c-0.436,0.223-0.784,0.499-1.045,0.827c-0.261,0.33-0.445,0.678-0.552,1.046c-0.106,0.367-0.169,0.696-0.188,0.986h6.706
			c-0.193-1.045-0.537-1.838-1.031-2.38C-1432.432,450.688-1433.182,450.416-1434.188,450.416"/>
		<path clip-path="url(#SVGID_16_)" fill="#CD040B" d="M-1472.493,451.883c-0.281-0.436-0.644-0.789-1.089-1.06
			c-0.445-0.271-1.006-0.406-1.683-0.406c-0.678,0-1.249,0.135-1.713,0.406c-0.465,0.271-0.838,0.629-1.118,1.074
			c-0.281,0.446-0.484,0.954-0.609,1.525c-0.127,0.57-0.189,1.166-0.189,1.785c0,0.58,0.068,1.161,0.203,1.742
			c0.135,0.58,0.353,1.098,0.653,1.553c0.3,0.455,0.677,0.823,1.132,1.103c0.455,0.281,1.002,0.421,1.641,0.421
			c0.677,0,1.243-0.135,1.698-0.407c0.454-0.27,0.817-0.633,1.089-1.088c0.271-0.455,0.464-0.973,0.58-1.553
			c0.116-0.581,0.174-1.18,0.174-1.8c0-0.619-0.058-1.214-0.174-1.786C-1472.014,452.822-1472.213,452.317-1472.493,451.883"/>
		<path clip-path="url(#SVGID_16_)" fill="#CD040B" d="M-1417.524,450.416c-0.658,0-1.205,0.112-1.64,0.334
			c-0.437,0.223-0.784,0.499-1.046,0.827c-0.261,0.33-0.444,0.678-0.552,1.046c-0.105,0.367-0.169,0.696-0.188,0.986h6.706
			c-0.194-1.045-0.537-1.838-1.031-2.38S-1416.519,450.416-1417.524,450.416"/>
		<path clip-path="url(#SVGID_16_)" fill="#CD040B" d="M-1441.228,394.268c-33.137,0-60,26.863-60,60c0,33.137,26.863,60,60,60
			s60-26.863,60-60C-1381.228,421.13-1408.091,394.268-1441.228,394.268 M-1467.747,462.726h-3.92v-1.916h-0.058
			c-0.484,0.813-1.117,1.398-1.901,1.756c-0.784,0.358-1.669,0.537-2.656,0.537c-1.123,0-2.11-0.217-2.961-0.653
			c-0.852-0.435-1.553-1.025-2.105-1.771c-0.551-0.745-0.968-1.602-1.248-2.569c-0.281-0.968-0.421-1.974-0.421-3.019
			c0-1.006,0.14-1.979,0.421-2.918c0.28-0.938,0.697-1.765,1.248-2.482c0.552-0.716,1.243-1.292,2.076-1.727
			c0.832-0.436,1.799-0.653,2.903-0.653c0.889,0,1.737,0.188,2.54,0.566c0.803,0.377,1.437,0.934,1.901,1.669h0.058v-7.548h4.123
			V462.726z M-1447.483,462.726h-4.239l-2.671-10.074h-0.058l-2.554,10.074h-4.268l-4.761-15.009h4.355l2.758,10.19h0.058
			l2.496-10.19h4.007l2.554,10.161h0.058l2.758-10.161h4.239L-1447.483,462.726z M-1426.785,456.223h-10.828
			c0.058,1.335,0.396,2.303,1.016,2.903s1.51,0.9,2.671,0.9c0.832,0,1.548-0.208,2.148-0.624c0.6-0.416,0.968-0.856,1.103-1.321
			h3.629c-0.58,1.8-1.471,3.087-2.671,3.861c-1.199,0.774-2.65,1.161-4.354,1.161c-1.182,0-2.245-0.189-3.194-0.565
			c-0.948-0.378-1.752-0.915-2.409-1.612c-0.658-0.697-1.166-1.529-1.523-2.496c-0.359-0.968-0.537-2.033-0.537-3.194
			c0-1.122,0.183-2.167,0.551-3.135c0.368-0.968,0.89-1.805,1.568-2.511c0.677-0.707,1.484-1.263,2.424-1.67
			c0.938-0.406,1.979-0.609,3.121-0.609c1.276,0,2.39,0.247,3.339,0.74c0.947,0.493,1.727,1.157,2.336,1.988
			c0.61,0.833,1.05,1.781,1.321,2.846C-1426.805,453.948-1426.708,455.062-1426.785,456.223 M-1410.122,456.223h-10.827
			c0.058,1.335,0.396,2.303,1.016,2.903c0.619,0.6,1.509,0.9,2.671,0.9c0.831,0,1.548-0.208,2.148-0.624
			c0.599-0.416,0.968-0.856,1.103-1.321h3.629c-0.581,1.8-1.471,3.087-2.671,3.861s-2.652,1.161-4.354,1.161
			c-1.181,0-2.245-0.189-3.193-0.565c-0.948-0.378-1.752-0.915-2.41-1.612c-0.657-0.697-1.166-1.529-1.523-2.496
			c-0.358-0.968-0.537-2.033-0.537-3.194c0-1.122,0.184-2.167,0.552-3.135c0.367-0.968,0.89-1.805,1.567-2.511
			c0.678-0.707,1.485-1.263,2.425-1.67c0.938-0.406,1.978-0.609,3.12-0.609c1.277,0,2.39,0.247,3.339,0.74
			c0.947,0.493,1.727,1.157,2.337,1.988c0.608,0.833,1.049,1.781,1.321,2.846C-1410.142,453.948-1410.045,455.062-1410.122,456.223
			 M-1399.438,450.475h-3.02v7.432c0,0.696,0.116,1.161,0.349,1.393c0.232,0.233,0.696,0.349,1.394,0.349
			c0.232,0,0.454-0.01,0.667-0.029s0.416-0.048,0.61-0.087v3.193c-0.35,0.058-0.736,0.097-1.161,0.116
			c-0.426,0.019-0.842,0.029-1.249,0.029c-0.638,0-1.243-0.043-1.814-0.13c-0.57-0.088-1.073-0.257-1.51-0.509
			c-0.435-0.251-0.778-0.609-1.029-1.074c-0.252-0.464-0.379-1.074-0.379-1.829v-8.854h-2.495v-2.758h2.495v-4.5h4.123v4.5h3.02
			V450.475z"/>
	</g>
	<g clip-path="url(#SVGID_2_)">
		<text transform="matrix(1 0 0 1 -2281.4619 329.9912)"><tspan x="0" y="0" fill="#4B4B4B" font-family="'Gotham-Bold'" font-size="36" letter-spacing="-1">C</tspan><tspan x="25.164" y="0" fill="#4B4B4B" font-family="'Gotham-Bold'" font-size="36">o</tspan><tspan x="48.275" y="0" fill="#4B4B4B" font-family="'Gotham-Bold'" font-size="36">n</tspan><tspan x="70.055" y="0" fill="#4B4B4B" font-family="'Gotham-Bold'" font-size="36">n</tspan><tspan x="91.726" y="0" fill="#4B4B4B" font-family="'Gotham-Bold'" font-size="36">e</tspan><tspan x="112.858" y="0" fill="#4B4B4B" font-family="'Gotham-Bold'" font-size="36">c</tspan><tspan x="132.802" y="0" fill="#4B4B4B" font-family="'Gotham-Bold'" font-size="36">t </tspan><tspan x="157.173" y="0" fill="#4B4B4B" font-family="'Gotham-Bold'" font-size="36" letter-spacing="-1">T</tspan><tspan x="179.385" y="0" fill="#4B4B4B" font-family="'Gotham-Bold'" font-size="36">h</tspan><tspan x="200.984" y="0" fill="#4B4B4B" font-family="'Gotham-Bold'" font-size="36">in</tspan><tspan x="232.556" y="0" fill="#4B4B4B" font-family="'Gotham-Bold'" font-size="36">g</tspan><tspan x="256.135" y="0" fill="#4B4B4B" font-family="'Gotham-Bold'" font-size="36">S</tspan><tspan x="278.419" y="0" fill="#4B4B4B" font-family="'Gotham-Bold'" font-size="36" letter-spacing="-1">p</tspan><tspan x="301.71" y="0" fill="#4B4B4B" font-family="'Gotham-Bold'" font-size="36">a</tspan><tspan x="322.158" y="0" fill="#4B4B4B" font-family="'Gotham-Bold'" font-size="36" letter-spacing="-1">c</tspan><tspan x="341.274" y="0" fill="#4B4B4B" font-family="'Gotham-Bold'" font-size="36">e </tspan><tspan x="372.773" y="0" fill="#4B4B4B" font-family="'Gotham-Bold'" font-size="36" letter-spacing="-1">t</tspan><tspan x="386.562" y="0" fill="#4B4B4B" font-family="'Gotham-Bold'" font-size="36">o </tspan><tspan x="419.896" y="0" fill="#4B4B4B" font-family="'Gotham-Bold'" font-size="36">a</tspan><tspan x="440.488" y="0" fill="#4B4B4B" font-family="'Gotham-Bold'" font-size="36"> </tspan><tspan x="450.604" y="0" fill="#4B4B4B" font-family="'Gotham-Bold'" font-size="36">S</tspan><tspan x="472.888" y="0" fill="#4B4B4B" font-family="'Gotham-Bold'" font-size="36">m</tspan><tspan x="506.368" y="0" fill="#4B4B4B" font-family="'Gotham-Bold'" font-size="36">a</tspan><tspan x="526.996" y="0" fill="#4B4B4B" font-family="'Gotham-Bold'" font-size="36">r</tspan><tspan x="541.54" y="0" fill="#4B4B4B" font-family="'Gotham-Bold'" font-size="36">t </tspan><tspan x="565.911" y="0" fill="#4B4B4B" font-family="'Gotham-Bold'" font-size="36">l</tspan><tspan x="575.811" y="0" fill="#4B4B4B" font-family="'Gotham-Bold'" font-size="36" letter-spacing="-1">i</tspan><tspan x="585.674" y="0" fill="#4B4B4B" font-family="'Gotham-Bold'" font-size="36">g</tspan><tspan x="609.29" y="0" fill="#4B4B4B" font-family="'Gotham-Bold'" font-size="36">h</tspan><tspan x="630.817" y="0" fill="#4B4B4B" font-family="'Gotham-Bold'" font-size="36">t</tspan></text>
	</g>
	<g clip-path="url(#SVGID_2_)">
		<defs>
			<rect id="SVGID_17_" x="-2721.228" y="-256.289" width="2560" height="1810"/>
		</defs>
		<clipPath id="SVGID_18_">
			<use xlink:href="#SVGID_17_"  overflow="visible"/>
		</clipPath>
		<path clip-path="url(#SVGID_18_)" fill="#CD040B" d="M-874.228,387.466c-33.137,0-60,26.863-60,60s26.863,60,60,60
			c33.138,0,60-26.863,60-60S-841.09,387.466-874.228,387.466 M-866.433,472.578c0,4.217-3.418,7.636-7.636,7.636h-0.319
			c-4.218,0-7.636-3.419-7.636-7.636c0-4.218,3.418-7.636,7.636-7.636h0.319C-869.851,464.942-866.433,468.36-866.433,472.578z
			 M-868.572,459.337c-0.037,0.354-0.138,0.684-0.272,0.995c-1.604-0.687-3.37-1.07-5.224-1.07h-0.319
			c-1.854,0-3.618,0.383-5.224,1.07c-0.134-0.312-0.235-0.641-0.271-0.995l-4.27-41.504c-0.207-2.012,1.372-3.761,3.396-3.761
			h13.059c2.022,0,3.602,1.749,3.395,3.761L-868.572,459.337z"/>
	</g>
	<g clip-path="url(#SVGID_2_)">
		<text transform="matrix(1.0285 0 0 1 -2240.2422 573.1899)"><tspan x="0" y="0" fill="#CD040B" font-family="'ArialMT'" font-size="30">S</tspan><tspan x="19.29" y="0" fill="#CD040B" font-family="'ArialMT'" font-size="30">M</tspan><tspan x="43.8" y="0" fill="#CD040B" font-family="'ArialMT'" font-size="30">A</tspan><tspan x="63.3" y="0" fill="#CD040B" font-family="'ArialMT'" font-size="30" letter-spacing="-0.972">R</tspan><tspan x="83.794" y="0" fill="#CD040B" font-family="'ArialMT'" font-size="30">T</tspan><tspan x="101.52" y="0" fill="#CD040B" font-family="'ArialMT'" font-size="30"> </tspan><tspan x="109.285" y="0" fill="#CD040B" font-family="'ArialMT'" font-size="30" letter-spacing="-0.972">L</tspan><tspan x="124.649" y="0" fill="#CD040B" font-family="'ArialMT'" font-size="30">I</tspan><tspan x="132.054" y="0" fill="#CD040B" font-family="'ArialMT'" font-size="30">G</tspan><tspan x="154.759" y="0" fill="#CD040B" font-family="'ArialMT'" font-size="30">H</tspan><tspan x="175.464" y="0" fill="#CD040B" font-family="'ArialMT'" font-size="30">T </tspan><tspan x="200.985" y="0" fill="#CD040B" font-family="'ArialMT'" font-size="30">I</tspan><tspan x="208.509" y="0" fill="#CD040B" font-family="'ArialMT'" font-size="30">D </tspan><tspan x="237.369" y="0" fill="#CD040B" font-family="'ArialMT'" font-size="30" letter-spacing="-1.945">1</tspan><tspan x="252.074" y="0" fill="#CD040B" font-family="'ArialMT'" font-size="30">0</tspan><tspan x="268.279" y="0" fill="#CD040B" font-family="'ArialMT'" font-size="30">95</tspan><tspan x="300.508" y="0" fill="#CD040B" font-family="'ArialMT'" font-size="30">8</tspan><tspan x="316.712" y="0" fill="#CD040B" font-family="'ArialMT'" font-size="30">02</tspan><tspan x="348.161" y="0" fill="#CD040B" font-family="'ArialMT'" font-size="30">0</tspan><tspan x="365.206" y="0" fill="#CD040B" font-family="'ArialMT'" font-size="30">-</tspan><tspan x="375.466" y="0" fill="#CD040B" font-family="'ArialMT'" font-size="30">Q</tspan><tspan x="398.111" y="0" fill="#CD040B" font-family="'ArialMT'" font-size="30">8</tspan><tspan x="413.896" y="0" fill="#CD040B" font-family="'ArialMT'" font-size="30">G</tspan><tspan x="436.511" y="0" fill="#CD040B" font-family="'ArialMT'" font-size="30">J</tspan></text>
	</g>
	<g clip-path="url(#SVGID_2_)">
		<defs>
			<rect id="SVGID_19_" x="-2721.228" y="-256.289" width="2560" height="1810"/>
		</defs>
		<clipPath id="SVGID_20_">
			<use xlink:href="#SVGID_19_"  overflow="visible"/>
		</clipPath>
		<path clip-path="url(#SVGID_20_)" fill="#CD040B" d="M-1195.758,535.711c2.998,0,5.53,1.71,5.53,3.735v48.498
			c0,2.025-2.532,3.735-5.53,3.735h-491.098c-2.912,0-5.371-1.71-5.371-3.735v-48.498c0-2.025,2.459-3.735,5.371-3.735H-1195.758
			 M-1195.758,533.711h-491.098c-4.071,0-7.371,2.568-7.371,5.735v48.498c0,3.167,3.3,5.735,7.371,5.735h491.098
			c4.159,0,7.53-2.568,7.53-5.735v-48.498C-1188.228,536.279-1191.599,533.711-1195.758,533.711"/>
		<path clip-path="url(#SVGID_20_)" fill="#FFFFFF" d="M-628.758,533.711h-491.099c-4.07,0-7.371,2.568-7.371,5.735v48.498
			c0,3.167,3.301,5.735,7.371,5.735h491.099c4.159,0,7.53-2.568,7.53-5.735v-48.498
			C-621.228,536.279-624.599,533.711-628.758,533.711"/>
	</g>
	<g clip-path="url(#SVGID_2_)">
		<text transform="matrix(1.0285 0 0 1 -1573.4854 573.1899)"><tspan x="0" y="0" fill="#CD040B" font-family="'ArialMT'" font-size="30">C</tspan><tspan x="21.035" y="0" fill="#CD040B" font-family="'ArialMT'" font-size="30">o</tspan><tspan x="36.85" y="0" fill="#CD040B" font-family="'ArialMT'" font-size="30" letter-spacing="-0.972">n</tspan><tspan x="52.514" y="0" fill="#CD040B" font-family="'ArialMT'" font-size="30">n</tspan><tspan x="68.239" y="0" fill="#CD040B" font-family="'ArialMT'" font-size="30">e</tspan><tspan x="84.053" y="0" fill="#CD040B" font-family="'ArialMT'" font-size="30">c</tspan><tspan x="98.423" y="0" fill="#CD040B" font-family="'ArialMT'" font-size="30" letter-spacing="-0.972">t</tspan><tspan x="105.588" y="0" fill="#CD040B" font-family="'ArialMT'" font-size="30">e</tspan><tspan x="121.403" y="0" fill="#CD040B" font-family="'ArialMT'" font-size="30">d</tspan><tspan x="137.488" y="0" fill="#CD040B" font-family="'ArialMT'" font-size="30"> </tspan><tspan x="145.252" y="0" fill="#CD040B" font-family="'ArialMT'" font-size="30" letter-spacing="-0.972">t</tspan><tspan x="152.477" y="0" fill="#CD040B" font-family="'ArialMT'" font-size="30">o</tspan><tspan x="168.562" y="0" fill="#CD040B" font-family="'ArialMT'" font-size="30"> </tspan><tspan x="176.327" y="0" fill="#CD040B" font-family="'ArialMT'" font-size="30">D</tspan><tspan x="197.362" y="0" fill="#CD040B" font-family="'ArialMT'" font-size="30" letter-spacing="-0.972">w</tspan><tspan x="217.797" y="0" fill="#CD040B" font-family="'ArialMT'" font-size="30">e</tspan><tspan x="233.611" y="0" fill="#CD040B" font-family="'ArialMT'" font-size="30" letter-spacing="-0.972">e</tspan><tspan x="249.066" y="0" fill="#CD040B" font-family="'ArialMT'" font-size="30">t</tspan></text>
	</g>
	<g clip-path="url(#SVGID_2_)">
		<text transform="matrix(1.0285 0 0 1 -927.2207 573.1899)"><tspan x="0" y="0" fill="#CD040B" font-family="'ArialMT'" font-size="30" letter-spacing="-2.917">T</tspan><tspan x="14.755" y="0" fill="#CD040B" font-family="'ArialMT'" font-size="30" letter-spacing="-0.972">u</tspan><tspan x="30.42" y="0" fill="#CD040B" font-family="'ArialMT'" font-size="30">r</tspan><tspan x="39.93" y="0" fill="#CD040B" font-family="'ArialMT'" font-size="30">n</tspan><tspan x="56.014" y="0" fill="#CD040B" font-family="'ArialMT'" font-size="30"> </tspan><tspan x="63.779" y="0" fill="#CD040B" font-family="'ArialMT'" font-size="30">O</tspan><tspan x="86.484" y="0" fill="#CD040B" font-family="'ArialMT'" font-size="30">n</tspan></text>
	</g>
	<g clip-path="url(#SVGID_2_)">
		<defs>
			<rect id="SVGID_21_" x="-2721.228" y="-256.289" width="2560" height="1810"/>
		</defs>
		<clipPath id="SVGID_22_">
			<use xlink:href="#SVGID_21_"  overflow="visible"/>
		</clipPath>
		
			<polyline clip-path="url(#SVGID_22_)" fill="none" stroke="#CD040B" stroke-width="2" stroke-linecap="round" stroke-linejoin="round" stroke-miterlimit="10" points="
			-643.635,560.711 -648.431,565.507 -653.228,560.711 		"/>
	</g>
	<g clip-path="url(#SVGID_2_)">
		<text transform="matrix(1 0 0 1 -2250.4473 405.5835)" fill="#CCCCCC" font-family="'Gotham-Bold'" font-size="20">1</text>
	</g>
	<g clip-path="url(#SVGID_2_)">
		<defs>
			<rect id="SVGID_23_" x="-2721.228" y="-256.289" width="2560" height="1810"/>
		</defs>
		<clipPath id="SVGID_24_">
			<use xlink:href="#SVGID_23_"  overflow="visible"/>
		</clipPath>
		<path clip-path="url(#SVGID_24_)" fill="#CCCCCC" d="M-2246.228,384.711c7.72,0,14,6.28,14,14c0,7.72-6.28,14-14,14
			c-7.72,0-14-6.28-14-14C-2260.228,390.991-2253.948,384.711-2246.228,384.711 M-2246.228,383.711c-8.284,0-15,6.716-15,15
			s6.716,15,15,15s15-6.716,15-15S-2237.943,383.711-2246.228,383.711"/>
	</g>
	<g clip-path="url(#SVGID_2_)">
		<text transform="matrix(1 0 0 1 -1685.457 405.5835)" fill="#CCCCCC" font-family="'Gotham-Bold'" font-size="20">2</text>
	</g>
	<g clip-path="url(#SVGID_2_)">
		<defs>
			<rect id="SVGID_25_" x="-2721.228" y="-256.289" width="2560" height="1810"/>
		</defs>
		<clipPath id="SVGID_26_">
			<use xlink:href="#SVGID_25_"  overflow="visible"/>
		</clipPath>
		<path clip-path="url(#SVGID_26_)" fill="#CCCCCC" d="M-1679.228,384.711c7.72,0,14,6.28,14,14c0,7.72-6.28,14-14,14
			c-7.72,0-14-6.28-14-14C-1693.228,390.991-1686.948,384.711-1679.228,384.711 M-1679.228,383.711c-8.284,0-15,6.716-15,15
			s6.716,15,15,15s15-6.716,15-15S-1670.943,383.711-1679.228,383.711"/>
	</g>
	<g clip-path="url(#SVGID_2_)">
		<text transform="matrix(1 0 0 1 -1118.4375 405.5835)" fill="#CCCCCC" font-family="'Gotham-Bold'" font-size="20">3</text>
	</g>
	<g clip-path="url(#SVGID_2_)">
		<defs>
			<rect id="SVGID_27_" x="-2721.228" y="-256.289" width="2560" height="1810"/>
		</defs>
		<clipPath id="SVGID_28_">
			<use xlink:href="#SVGID_27_"  overflow="visible"/>
		</clipPath>
		<path clip-path="url(#SVGID_28_)" fill="#CCCCCC" d="M-1112.228,384.711c7.72,0,14,6.28,14,14c0,7.72-6.28,14-14,14
			s-14-6.28-14-14C-1126.228,390.991-1119.947,384.711-1112.228,384.711 M-1112.228,383.711c-8.284,0-15,6.716-15,15s6.716,15,15,15
			s15-6.716,15-15S-1103.943,383.711-1112.228,383.711"/>
	</g>
	<g clip-path="url(#SVGID_2_)">
		<defs>
			<rect id="SVGID_29_" x="-2721.228" y="-256.289" width="2560" height="460"/>
		</defs>
		<clipPath id="SVGID_30_">
			<use xlink:href="#SVGID_29_"  overflow="visible"/>
		</clipPath>
		<g opacity="0.4" clip-path="url(#SVGID_30_)">
			<g>
				<defs>
					<rect id="SVGID_31_" x="-2721.228" y="-256.289" width="2560" height="740"/>
				</defs>
				<clipPath id="SVGID_32_">
					<use xlink:href="#SVGID_31_"  overflow="visible"/>
				</clipPath>
				<rect x="-2721.228" y="-256.289" clip-path="url(#SVGID_32_)" width="2560" height="740"/>
			</g>
		</g>
	</g>
	<g clip-path="url(#SVGID_2_)">
		<defs>
			<rect id="SVGID_33_" x="-2721.228" y="-256.289" width="2560" height="460"/>
		</defs>
		<clipPath id="SVGID_34_">
			<use xlink:href="#SVGID_33_"  overflow="visible"/>
		</clipPath>
		<g clip-path="url(#SVGID_34_)">
			<defs>
				<rect id="SVGID_35_" x="-2721.228" y="-466.289" width="2560" height="800"/>
			</defs>
			<clipPath id="SVGID_36_">
				<use xlink:href="#SVGID_35_"  overflow="visible"/>
			</clipPath>
			<g clip-path="url(#SVGID_36_)">
				
					<image overflow="visible" width="2560" height="800" xlink:href="8C8A81BCCD6DDC10.jpg"  transform="matrix(1 0 0 1 -2721.2275 -466.2891)">
				</image>
			</g>
		</g>
	</g>
	<g clip-path="url(#SVGID_2_)">
		<defs>
			<rect id="SVGID_37_" x="-2721.228" y="-256.289" width="2560" height="1810"/>
		</defs>
		<clipPath id="SVGID_38_">
			<use xlink:href="#SVGID_37_"  overflow="visible"/>
		</clipPath>
		<g opacity="0.75" clip-path="url(#SVGID_38_)">
			<g>
				<defs>
					<rect id="SVGID_39_" x="-1898.334" y="16.611" width="1178.147" height="135.64"/>
				</defs>
				<clipPath id="SVGID_40_">
					<use xlink:href="#SVGID_39_"  overflow="visible"/>
				</clipPath>
				<g clip-path="url(#SVGID_40_)">
					<text transform="matrix(1 0 0 1 -1898.335 67.6074)"><tspan x="0" y="0" font-family="'Gotham-Book'" font-size="60" letter-spacing="-1">E</tspan><tspan x="28.199" y="0" font-family="'Gotham-Book'" font-size="60" letter-spacing="-2">X</tspan><tspan x="59.879" y="0" font-family="'Gotham-Book'" font-size="60" letter-spacing="-2">P</tspan><tspan x="89.399" y="0" font-family="'Gotham-Book'" font-size="60" letter-spacing="-2">E</tspan><tspan x="116.159" y="0" font-family="'Gotham-Book'" font-size="60" letter-spacing="-2">R</tspan><tspan x="146.278" y="0" font-family="'Gotham-Book'" font-size="60" letter-spacing="-1">I</tspan><tspan x="158.698" y="0" font-family="'Gotham-Book'" font-size="60" letter-spacing="-2">E</tspan><tspan x="185.518" y="0" font-family="'Gotham-Book'" font-size="60" letter-spacing="-1">N</tspan><tspan x="223.077" y="0" font-family="'Gotham-Book'" font-size="60" letter-spacing="-2">C</tspan><tspan x="255.836" y="0" font-family="'Gotham-Book'" font-size="60" letter-spacing="-1">E</tspan><tspan x="284.155" y="0" font-family="'Gotham-Book'" font-size="60" letter-spacing="-1"> </tspan><tspan x="295.735" y="0" font-family="'Gotham-Book'" font-size="60" letter-spacing="-1">D</tspan><tspan x="333.714" y="0" font-family="'Gotham-Book'" font-size="60" letter-spacing="-1">E</tspan><tspan x="361.973" y="0" font-family="'Gotham-Book'" font-size="60" letter-spacing="-2">V</tspan><tspan x="392.873" y="0" font-family="'Gotham-Book'" font-size="60" letter-spacing="-2">I</tspan><tspan x="405.113" y="0" font-family="'Gotham-Book'" font-size="60" letter-spacing="-2">C</tspan><tspan x="437.872" y="0" font-family="'Gotham-Book'" font-size="60" letter-spacing="-1">E </tspan><tspan x="477.831" y="0" font-family="'Gotham-Book'" font-size="60" letter-spacing="-3">C</tspan><tspan x="509.271" y="0" font-family="'Gotham-Book'" font-size="60" letter-spacing="-1">O</tspan><tspan x="548.75" y="0" font-family="'Gotham-Book'" font-size="60" letter-spacing="-1">NN</tspan><tspan x="624.469" y="0" font-family="'Gotham-Book'" font-size="60" letter-spacing="-3">E</tspan><tspan x="650.268" y="0" font-family="'Gotham-Book'" font-size="60" letter-spacing="-1">C</tspan><tspan x="683.747" y="0" font-family="'Gotham-Book'" font-size="60" letter-spacing="-2">T</tspan><tspan x="710.627" y="0" font-family="'Gotham-Book'" font-size="60" letter-spacing="-2">I</tspan><tspan x="722.267" y="0" font-family="'Gotham-Book'" font-size="60" letter-spacing="-2">V</tspan><tspan x="753.167" y="0" font-family="'Gotham-Book'" font-size="60" letter-spacing="-3">I</tspan><tspan x="764.446" y="0" font-family="'Gotham-Book'" font-size="60">T</tspan><tspan x="793.906" y="0" font-family="'Gotham-Book'" font-size="60" letter-spacing="-1">Y </tspan><tspan x="836.805" y="0" font-family="'Gotham-Book'" font-size="60" letter-spacing="-4">B</tspan><tspan x="865.124" y="0" font-family="'Gotham-Book'" font-size="60">Y</tspan></text>
				</g>
				<g clip-path="url(#SVGID_40_)">
					<text transform="matrix(1 0 0 1 -1898.335 137.6274)"><tspan x="0" y="0" font-family="'Gotham-Book'" font-size="60" letter-spacing="-2">T</tspan><tspan x="27.12" y="0" font-family="'Gotham-Book'" font-size="60" letter-spacing="-1">E</tspan><tspan x="54.719" y="0" font-family="'Gotham-Book'" font-size="60" letter-spacing="-2">S</tspan><tspan x="82.079" y="0" font-family="'Gotham-Book'" font-size="60" letter-spacing="-2">T</tspan><tspan x="108.958" y="0" font-family="'Gotham-Book'" font-size="60" letter-spacing="-1">IN</tspan><tspan x="158.938" y="0" font-family="'Gotham-Book'" font-size="60" letter-spacing="-1">G</tspan><tspan x="196.498" y="0" font-family="'Gotham-Book'" font-size="60" letter-spacing="-1"> </tspan><tspan x="208.077" y="0" font-family="'Gotham-Book'" font-size="60" letter-spacing="-2">T</tspan><tspan x="235.196" y="0" font-family="'Gotham-Book'" font-size="60" letter-spacing="-1">H</tspan><tspan x="272.456" y="0" font-family="'Gotham-Book'" font-size="60" letter-spacing="-1">IN</tspan><tspan x="322.436" y="0" font-family="'Gotham-Book'" font-size="60" letter-spacing="-2">G</tspan><tspan x="359.035" y="0" font-family="'Gotham-Book'" font-size="60" letter-spacing="-1">S</tspan><tspan x="386.755" y="0" font-family="'Gotham-Book'" font-size="60" letter-spacing="-6">P</tspan><tspan x="412.315" y="0" font-family="'Gotham-Book'" font-size="60" letter-spacing="-4">A</tspan><tspan x="444.115" y="0" font-family="'Gotham-Book'" font-size="60" letter-spacing="-2">C</tspan><tspan x="476.874" y="0" font-family="'Gotham-Book'" font-size="60" letter-spacing="-1">E</tspan><tspan x="505.193" y="0" font-family="'Gotham-Book'" font-size="60" letter-spacing="-1"> </tspan><tspan x="516.772" y="0" font-family="'Gotham-Book'" font-size="60" letter-spacing="-2">A</tspan><tspan x="551.152" y="0" font-family="'Gotham-Book'" font-size="60" letter-spacing="-2">P</tspan><tspan x="580.612" y="0" font-family="'Gotham-Book'" font-size="60" letter-spacing="-1">I </tspan><tspan x="605.392" y="0" font-family="'Gotham-Book'" font-size="60" letter-spacing="-1">C</tspan><tspan x="638.451" y="0" font-family="'Gotham-Book'" font-size="60" letter-spacing="-2">A</tspan><tspan x="672.831" y="0" font-family="'Gotham-Book'" font-size="60" letter-spacing="-2">L</tspan><tspan x="698.51" y="0" font-family="'Gotham-Book'" font-size="60" letter-spacing="-1">L</tspan><tspan x="725.27" y="0" font-family="'Gotham-Book'" font-size="60">S</tspan></text>
				</g>
			</g>
		</g>
	</g>
	<g clip-path="url(#SVGID_2_)">
		<text transform="matrix(1 0 0 1 -1898.335 66.6074)"><tspan x="0" y="0" fill="#FFFFFF" font-family="'Gotham-Book'" font-size="60" letter-spacing="-1">E</tspan><tspan x="28.199" y="0" fill="#FFFFFF" font-family="'Gotham-Book'" font-size="60" letter-spacing="-2">X</tspan><tspan x="59.879" y="0" fill="#FFFFFF" font-family="'Gotham-Book'" font-size="60" letter-spacing="-2">P</tspan><tspan x="89.399" y="0" fill="#FFFFFF" font-family="'Gotham-Book'" font-size="60" letter-spacing="-2">E</tspan><tspan x="116.159" y="0" fill="#FFFFFF" font-family="'Gotham-Book'" font-size="60" letter-spacing="-2">R</tspan><tspan x="146.278" y="0" fill="#FFFFFF" font-family="'Gotham-Book'" font-size="60" letter-spacing="-1">I</tspan><tspan x="158.698" y="0" fill="#FFFFFF" font-family="'Gotham-Book'" font-size="60" letter-spacing="-2">E</tspan><tspan x="185.518" y="0" fill="#FFFFFF" font-family="'Gotham-Book'" font-size="60" letter-spacing="-1">N</tspan><tspan x="223.077" y="0" fill="#FFFFFF" font-family="'Gotham-Book'" font-size="60" letter-spacing="-2">C</tspan><tspan x="255.836" y="0" fill="#FFFFFF" font-family="'Gotham-Book'" font-size="60" letter-spacing="-1">E</tspan><tspan x="284.155" y="0" fill="#FFFFFF" font-family="'Gotham-Book'" font-size="60" letter-spacing="-1"> </tspan><tspan x="295.735" y="0" fill="#FFFFFF" font-family="'Gotham-Book'" font-size="60" letter-spacing="-1">D</tspan><tspan x="333.714" y="0" fill="#FFFFFF" font-family="'Gotham-Book'" font-size="60" letter-spacing="-1">E</tspan><tspan x="361.973" y="0" fill="#FFFFFF" font-family="'Gotham-Book'" font-size="60" letter-spacing="-2">V</tspan><tspan x="392.873" y="0" fill="#FFFFFF" font-family="'Gotham-Book'" font-size="60" letter-spacing="-2">I</tspan><tspan x="405.113" y="0" fill="#FFFFFF" font-family="'Gotham-Book'" font-size="60" letter-spacing="-2">C</tspan><tspan x="437.872" y="0" fill="#FFFFFF" font-family="'Gotham-Book'" font-size="60" letter-spacing="-1">E </tspan><tspan x="477.831" y="0" fill="#FFFFFF" font-family="'Gotham-Book'" font-size="60" letter-spacing="-3">C</tspan><tspan x="509.271" y="0" fill="#FFFFFF" font-family="'Gotham-Book'" font-size="60" letter-spacing="-1">O</tspan><tspan x="548.75" y="0" fill="#FFFFFF" font-family="'Gotham-Book'" font-size="60" letter-spacing="-1">NN</tspan><tspan x="624.469" y="0" fill="#FFFFFF" font-family="'Gotham-Book'" font-size="60" letter-spacing="-3">E</tspan><tspan x="650.268" y="0" fill="#FFFFFF" font-family="'Gotham-Book'" font-size="60" letter-spacing="-1">C</tspan><tspan x="683.747" y="0" fill="#FFFFFF" font-family="'Gotham-Book'" font-size="60" letter-spacing="-2">T</tspan><tspan x="710.627" y="0" fill="#FFFFFF" font-family="'Gotham-Book'" font-size="60" letter-spacing="-2">I</tspan><tspan x="722.267" y="0" fill="#FFFFFF" font-family="'Gotham-Book'" font-size="60" letter-spacing="-2">V</tspan><tspan x="753.167" y="0" fill="#FFFFFF" font-family="'Gotham-Book'" font-size="60" letter-spacing="-3">I</tspan><tspan x="764.446" y="0" fill="#FFFFFF" font-family="'Gotham-Book'" font-size="60">T</tspan><tspan x="793.906" y="0" fill="#FFFFFF" font-family="'Gotham-Book'" font-size="60" letter-spacing="-1">Y </tspan><tspan x="836.805" y="0" fill="#FFFFFF" font-family="'Gotham-Book'" font-size="60" letter-spacing="-4">B</tspan><tspan x="865.124" y="0" fill="#FFFFFF" font-family="'Gotham-Book'" font-size="60">Y</tspan></text>
	</g>
	<g clip-path="url(#SVGID_2_)">
		<text transform="matrix(1 0 0 1 -1898.335 136.6274)"><tspan x="0" y="0" fill="#FFFFFF" font-family="'Gotham-Book'" font-size="60" letter-spacing="-2">T</tspan><tspan x="27.12" y="0" fill="#FFFFFF" font-family="'Gotham-Book'" font-size="60" letter-spacing="-1">E</tspan><tspan x="54.719" y="0" fill="#FFFFFF" font-family="'Gotham-Book'" font-size="60" letter-spacing="-2">S</tspan><tspan x="82.079" y="0" fill="#FFFFFF" font-family="'Gotham-Book'" font-size="60" letter-spacing="-2">T</tspan><tspan x="108.958" y="0" fill="#FFFFFF" font-family="'Gotham-Book'" font-size="60" letter-spacing="-1">IN</tspan><tspan x="158.938" y="0" fill="#FFFFFF" font-family="'Gotham-Book'" font-size="60" letter-spacing="-1">G</tspan><tspan x="196.498" y="0" fill="#FFFFFF" font-family="'Gotham-Book'" font-size="60" letter-spacing="-1"> </tspan><tspan x="208.077" y="0" fill="#FFFFFF" font-family="'Gotham-Book'" font-size="60" letter-spacing="-2">T</tspan><tspan x="235.196" y="0" fill="#FFFFFF" font-family="'Gotham-Book'" font-size="60" letter-spacing="-1">H</tspan><tspan x="272.456" y="0" fill="#FFFFFF" font-family="'Gotham-Book'" font-size="60" letter-spacing="-1">IN</tspan><tspan x="322.436" y="0" fill="#FFFFFF" font-family="'Gotham-Book'" font-size="60" letter-spacing="-2">G</tspan><tspan x="359.035" y="0" fill="#FFFFFF" font-family="'Gotham-Book'" font-size="60" letter-spacing="-1">S</tspan><tspan x="386.755" y="0" fill="#FFFFFF" font-family="'Gotham-Book'" font-size="60" letter-spacing="-6">P</tspan><tspan x="412.315" y="0" fill="#FFFFFF" font-family="'Gotham-Book'" font-size="60" letter-spacing="-4">A</tspan><tspan x="444.115" y="0" fill="#FFFFFF" font-family="'Gotham-Book'" font-size="60" letter-spacing="-2">C</tspan><tspan x="476.874" y="0" fill="#FFFFFF" font-family="'Gotham-Book'" font-size="60" letter-spacing="-1">E</tspan><tspan x="505.193" y="0" fill="#FFFFFF" font-family="'Gotham-Book'" font-size="60" letter-spacing="-1"> </tspan><tspan x="516.772" y="0" fill="#FFFFFF" font-family="'Gotham-Book'" font-size="60" letter-spacing="-2">A</tspan><tspan x="551.152" y="0" fill="#FFFFFF" font-family="'Gotham-Book'" font-size="60" letter-spacing="-2">P</tspan><tspan x="580.612" y="0" fill="#FFFFFF" font-family="'Gotham-Book'" font-size="60" letter-spacing="-1">I </tspan><tspan x="605.392" y="0" fill="#FFFFFF" font-family="'Gotham-Book'" font-size="60" letter-spacing="-1">C</tspan><tspan x="638.451" y="0" fill="#FFFFFF" font-family="'Gotham-Book'" font-size="60" letter-spacing="-2">A</tspan><tspan x="672.831" y="0" fill="#FFFFFF" font-family="'Gotham-Book'" font-size="60" letter-spacing="-2">L</tspan><tspan x="698.51" y="0" fill="#FFFFFF" font-family="'Gotham-Book'" font-size="60" letter-spacing="-1">L</tspan><tspan x="725.27" y="0" fill="#FFFFFF" font-family="'Gotham-Book'" font-size="60">S</tspan></text>
	</g>
	<rect x="-2721.228" y="203.711" clip-path="url(#SVGID_2_)" fill="#CD040B" width="2560" height="40"/>
	<g clip-path="url(#SVGID_2_)">
		<defs>
			<rect id="SVGID_41_" x="-2721.228" y="-256.289" width="2560" height="1810"/>
		</defs>
		<clipPath id="SVGID_42_">
			<use xlink:href="#SVGID_41_"  overflow="visible"/>
		</clipPath>
		<g opacity="0.75" clip-path="url(#SVGID_42_)">
			<g>
				<defs>
					<rect id="SVGID_43_" x="-2281.228" y="14.711" width="140" height="140"/>
				</defs>
				<clipPath id="SVGID_44_">
					<use xlink:href="#SVGID_43_"  overflow="visible"/>
				</clipPath>
				<path clip-path="url(#SVGID_44_)" d="M-2211.228,14.711c-38.66,0-70,31.34-70,70c0,38.66,31.34,70,70,70c38.66,0,70-31.34,70-70
					C-2141.228,46.051-2172.568,14.711-2211.228,14.711 M-2215.546,103.761v21.1c-18.22,0-33.043-15.775-33.043-35.166V54.53h21.092
					v13.149h29.621c-4.392,5.804-6.236,13.119-6.445,21.099h-23.176v0.917C-2227.497,97.451-2222.136,103.761-2215.546,103.761
					 M-2163.521,75.629c-6.581,0-11.941,6.3-11.951,14.044c-0.03,19.437-14.854,35.188-33.044,35.188v-21.1
					c6.579,0,11.941-6.299,11.953-14.042c0.024-19.437,14.846-35.189,33.042-35.189V75.629z"/>
			</g>
		</g>
		<path clip-path="url(#SVGID_42_)" fill="#FFFFFF" d="M-2211.228,13.711c-38.66,0-70,31.34-70,70c0,38.66,31.34,70,70,70
			c38.66,0,70-31.34,70-70C-2141.228,45.051-2172.568,13.711-2211.228,13.711 M-2215.546,102.761v21.1
			c-18.22,0-33.043-15.775-33.043-35.166V53.53h21.092v13.149h29.621c-4.392,5.804-6.236,13.119-6.445,21.099h-23.176v0.917
			C-2227.497,96.451-2222.136,102.761-2215.546,102.761 M-2163.521,74.629c-6.581,0-11.941,6.3-11.951,14.044
			c-0.03,19.437-14.854,35.188-33.044,35.188v-21.1c6.579,0,11.941-6.299,11.953-14.042c0.024-19.437,14.846-35.189,33.042-35.189
			V74.629z"/>
		<g opacity="0.75" clip-path="url(#SVGID_42_)">
			<g>
				<defs>
					<rect id="SVGID_45_" x="-2125.956" y="69.151" width="31.111" height="31.12"/>
				</defs>
				<clipPath id="SVGID_46_">
					<use xlink:href="#SVGID_45_"  overflow="visible"/>
				</clipPath>
				<path clip-path="url(#SVGID_46_)" d="M-2097.956,81.6h-9.333v-9.333c0-1.719-1.393-3.111-3.111-3.111
					c-1.719,0-3.112,1.392-3.112,3.111V81.6h-9.333c-1.718,0-3.111,1.394-3.111,3.111s1.393,3.111,3.111,3.111h9.333v9.334
					c0,1.718,1.393,3.111,3.112,3.111c1.718,0,3.111-1.393,3.111-3.111v-9.334h9.333c1.718,0,3.111-1.393,3.111-3.111
					S-2096.238,81.6-2097.956,81.6"/>
			</g>
		</g>
		<path clip-path="url(#SVGID_42_)" fill="#FFFFFF" d="M-2097.956,80.6h-9.333v-9.333c0-1.719-1.393-3.111-3.111-3.111
			c-1.719,0-3.112,1.392-3.112,3.111V80.6h-9.333c-1.718,0-3.111,1.394-3.111,3.111s1.393,3.111,3.111,3.111h9.333v9.334
			c0,1.718,1.393,3.111,3.112,3.111c1.718,0,3.111-1.393,3.111-3.111v-9.334h9.333c1.718,0,3.111-1.393,3.111-3.111
			S-2096.238,80.6-2097.956,80.6"/>
		<g opacity="0.75" clip-path="url(#SVGID_42_)">
			<g>
				<defs>
					<rect id="SVGID_47_" x="-2079.268" y="14.711" width="140" height="140"/>
				</defs>
				<clipPath id="SVGID_48_">
					<use xlink:href="#SVGID_47_"  overflow="visible"/>
				</clipPath>
				<path clip-path="url(#SVGID_48_)" d="M-2009.268,14.711c-38.66,0-70,31.34-70,70s31.34,70,70,70c38.66,0,70-31.34,70-70
					S-1970.608,14.711-2009.268,14.711 M-1961.549,85.693c-0.453,11.17-8.902,20.502-19.909,22.458
					c-11.674,2.076-19.555-5.73-22.338-9.076c-0.124-0.149-0.24-0.29-0.343-0.42c-0.155-0.263-0.25-0.565-0.25-0.893
					c0-0.364,0.111-0.703,0.3-0.985l0.364-0.386l5.163-5.484l0.278-0.296c0.309-0.264,0.706-0.429,1.144-0.429
					c0.451,0,0.857,0.173,1.169,0.449c0.103,0.125,0.212,0.254,0.336,0.398c1.82,2.11,5.846,6.092,10.318,6.092
					c8.656,0,15.271-8.906,11.162-18.035c-1.706-3.788-5.43-6.304-9.565-6.705c-6.046-0.588-8.445,1.835-15.953,10.524
					c-0.841,0.973-3.342,3.807-5.606,6.374c-1.735,1.966-3.33,3.772-3.921,4.451c-6.185,7.105-10.948,12.575-18.75,14.241
					c-14.026,2.993-27.866-7.064-28.982-21.362c-1.091-13.97,9.969-25.687,23.713-25.687c9.781,0,16.487,6.755,19.003,9.784
					c0.111,0.133,0.213,0.259,0.308,0.377c0.164,0.268,0.264,0.581,0.264,0.918c0,0.417-0.151,0.796-0.392,1.099l-0.211,0.223
					l-5.224,5.527l-0.268,0.285c-0.31,0.264-0.706,0.43-1.146,0.43c-0.486,0-0.927-0.197-1.247-0.515
					c-0.065-0.083-0.149-0.188-0.24-0.3c-1.389-1.714-5.694-6.452-10.847-6.452c-7.34,0-13.212,6.405-12.322,13.919
					c0.835,7.046,7.713,11.918,14.706,10.716c4.426-0.76,7.16-3.901,13.055-10.672c0.612-0.703,2.251-2.561,4.019-4.564
					c2.23-2.527,4.665-5.286,5.479-6.229c7.298-8.446,12.569-14.546,22.965-14.546C-1971.874,60.922-1961,72.131-1961.549,85.693"/>
			</g>
		</g>
		<path clip-path="url(#SVGID_42_)" fill="#FFFFFF" d="M-2009.268,13.711c-38.66,0-70,31.34-70,70s31.34,70,70,70
			c38.66,0,70-31.34,70-70S-1970.608,13.711-2009.268,13.711 M-1961.549,84.693c-0.453,11.17-8.902,20.502-19.909,22.458
			c-11.674,2.076-19.555-5.73-22.338-9.076c-0.124-0.149-0.24-0.29-0.343-0.42c-0.155-0.263-0.25-0.565-0.25-0.893
			c0-0.364,0.111-0.703,0.3-0.985l0.364-0.386l5.163-5.484l0.278-0.296c0.309-0.264,0.706-0.429,1.144-0.429
			c0.451,0,0.857,0.173,1.169,0.449c0.103,0.125,0.212,0.254,0.336,0.398c1.82,2.11,5.846,6.092,10.318,6.092
			c8.656,0,15.271-8.906,11.162-18.035c-1.706-3.788-5.43-6.304-9.565-6.705c-6.046-0.588-8.445,1.835-15.953,10.524
			c-0.841,0.973-3.342,3.807-5.606,6.374c-1.735,1.966-3.33,3.772-3.921,4.451c-6.185,7.105-10.948,12.575-18.75,14.241
			c-14.026,2.993-27.866-7.064-28.982-21.362c-1.091-13.97,9.969-25.687,23.713-25.687c9.781,0,16.487,6.755,19.003,9.784
			c0.111,0.133,0.213,0.259,0.308,0.377c0.164,0.268,0.264,0.581,0.264,0.918c0,0.417-0.151,0.796-0.392,1.099l-0.211,0.223
			l-5.224,5.527l-0.268,0.285c-0.31,0.264-0.706,0.43-1.146,0.43c-0.486,0-0.927-0.197-1.247-0.515
			c-0.065-0.083-0.149-0.188-0.24-0.3c-1.389-1.714-5.694-6.452-10.847-6.452c-7.34,0-13.212,6.405-12.322,13.919
			c0.835,7.046,7.713,11.918,14.706,10.716c4.426-0.76,7.16-3.901,13.055-10.672c0.612-0.703,2.251-2.561,4.019-4.564
			c2.23-2.527,4.665-5.286,5.479-6.229c7.298-8.446,12.569-14.546,22.965-14.546C-1971.874,59.922-1961,71.131-1961.549,84.693"/>
	</g>
	<rect x="-2721.228" y="-256.289" clip-path="url(#SVGID_2_)" width="2560" height="100"/>
	<polygon clip-path="url(#SVGID_2_)" fill="#CD040B" points="-2246.703,-213.941 -2253.195,-213.941 -2253.195,-215.957 
		-2238.001,-215.957 -2238.001,-213.941 -2244.493,-213.941 -2244.493,-196.621 -2246.703,-196.621 	"/>
	<polygon clip-path="url(#SVGID_2_)" fill="#CD040B" points="-2235.282,-215.958 -2233.101,-215.958 -2233.101,-207.366 
		-2221.939,-207.366 -2221.939,-215.958 -2219.757,-215.958 -2219.757,-196.621 -2221.939,-196.621 -2221.939,-205.322 
		-2233.101,-205.322 -2233.101,-196.621 -2235.282,-196.621 	"/>
	<rect x="-2216.083" y="-215.957" clip-path="url(#SVGID_2_)" fill="#CD040B" width="2.182" height="19.337"/>
	<polygon clip-path="url(#SVGID_2_)" fill="#CD040B" points="-2210.281,-215.958 -2208.237,-215.958 -2196.055,-200.46 
		-2196.055,-215.958 -2193.928,-215.958 -2193.928,-196.621 -2195.668,-196.621 -2208.154,-212.477 -2208.154,-196.621 
		-2210.281,-196.621 	"/>
	<g clip-path="url(#SVGID_2_)">
		<defs>
			<rect id="SVGID_49_" x="-2721.228" y="-256.289" width="2560" height="1810"/>
		</defs>
		<clipPath id="SVGID_50_">
			<use xlink:href="#SVGID_49_"  overflow="visible"/>
		</clipPath>
		<path clip-path="url(#SVGID_50_)" fill="#CD040B" d="M-2190.877-206.234v-0.055c0-5.304,3.895-10,9.696-10
			c3.26,0,5.276,0.939,7.21,2.569l-1.409,1.657c-1.492-1.298-3.149-2.21-5.884-2.21c-4.281,0-7.348,3.619-7.348,7.928v0.056
			c0,4.613,2.956,8.038,7.652,8.038c2.21,0,4.254-0.855,5.58-1.933v-4.807h-5.884v-1.961h7.984v7.707
			c-1.796,1.602-4.503,2.956-7.763,2.956C-2187.12-196.289-2190.877-200.709-2190.877-206.234"/>
		<path clip-path="url(#SVGID_50_)" fill="#CD040B" d="M-2170.229-199.438l1.354-1.602c2.016,1.823,3.95,2.735,6.63,2.735
			c2.596,0,4.309-1.382,4.309-3.288v-0.055c0-1.795-0.967-2.818-5.028-3.674c-4.447-0.967-6.492-2.403-6.492-5.58v-0.055
			c0-3.039,2.68-5.277,6.354-5.277c2.818,0,4.834,0.801,6.796,2.376l-1.271,1.685c-1.796-1.464-3.591-2.099-5.58-2.099
			c-2.514,0-4.116,1.381-4.116,3.121v0.056c0,1.823,0.994,2.845,5.249,3.756c4.309,0.939,6.298,2.514,6.298,5.47v0.055
			c0,3.315-2.763,5.47-6.602,5.47C-2165.395-196.344-2167.909-197.366-2170.229-199.438"/>
		<path clip-path="url(#SVGID_50_)" fill="#CD040B" d="M-2152.399-215.958h7.237c4.365,0,7.238,2.321,7.238,6.133v0.055
			c0,4.171-3.481,6.326-7.597,6.326h-4.696v6.823h-2.182V-215.958z M-2145.438-205.433c3.204,0,5.304-1.713,5.304-4.254v-0.055
			c0-2.763-2.072-4.199-5.194-4.199h-4.889v8.508H-2145.438z"/>
		<path clip-path="url(#SVGID_50_)" fill="#CD040B" d="M-2130.056-216.096h2.044l8.812,19.475h-2.348l-2.265-5.11h-10.525
			l-2.292,5.11h-2.238L-2130.056-216.096z M-2124.668-203.72l-4.392-9.834l-4.42,9.834H-2124.668z"/>
		<path clip-path="url(#SVGID_50_)" fill="#CD040B" d="M-2118.208-206.234v-0.055c0-5.47,4.088-10,9.779-10
			c3.508,0,5.608,1.243,7.541,3.066l-1.491,1.602c-1.63-1.547-3.453-2.652-6.078-2.652c-4.281,0-7.486,3.48-7.486,7.928v0.056
			c0,4.475,3.232,7.983,7.486,7.983c2.652,0,4.393-1.022,6.244-2.79l1.436,1.409c-2.017,2.044-4.227,3.398-7.735,3.398
			C-2114.093-196.289-2118.208-200.682-2118.208-206.234"/>
		<polygon clip-path="url(#SVGID_50_)" fill="#CD040B" points="-2097.396,-215.958 -2083.417,-215.958 -2083.417,-213.969 
			-2095.213,-213.969 -2095.213,-207.366 -2084.66,-207.366 -2084.66,-205.377 -2095.213,-205.377 -2095.213,-198.609 
			-2083.279,-198.609 -2083.279,-196.621 -2097.396,-196.621 		"/>
		<path clip-path="url(#SVGID_50_)" fill="#CD040B" d="M-2266.427-206.282c-0.003,2.202-1.529,3.993-3.4,3.993v6
			c5.174,0,9.392-4.479,9.4-10.006c0.003-2.202,1.528-3.994,3.4-3.994v-6C-2262.203-216.289-2266.42-211.809-2266.427-206.282"/>
		<path clip-path="url(#SVGID_50_)" fill="#CD040B" d="M-2275.228-206.289v-0.261h6.593c0.06-2.269,0.584-4.349,1.834-6h-8.427
			v-3.739h-6v10c0,5.514,4.217,10,9.4,10v-6C-2273.703-202.289-2275.228-204.083-2275.228-206.289"/>
		<g opacity="0.6" clip-path="url(#SVGID_50_)">
			<g>
				<defs>
					<rect id="SVGID_51_" x="-2721.228" y="-156.289" width="2560" height="130"/>
				</defs>
				<clipPath id="SVGID_52_">
					<use xlink:href="#SVGID_51_"  overflow="visible"/>
				</clipPath>
				<rect x="-2721.228" y="-156.289" clip-path="url(#SVGID_52_)" width="2560" height="130"/>
			</g>
		</g>
	</g>
	<g clip-path="url(#SVGID_2_)">
		<text transform="matrix(1 0 0 1 -2278.2261 -87.2891)"><tspan x="0" y="0" fill="#CCCCCC" font-family="'Gotham-Light'" font-size="40" letter-spacing="-1">D</tspan><tspan x="30.24" y="0" fill="#CCCCCC" font-family="'Gotham-Light'" font-size="40">E</tspan><tspan x="56.48" y="0" fill="#CCCCCC" font-family="'Gotham-Light'" font-size="40" letter-spacing="-1">V</tspan><tspan x="85.16" y="0" fill="#CCCCCC" font-family="'Gotham-Light'" font-size="40" letter-spacing="-1">E</tspan><tspan x="110.28" y="0" fill="#CCCCCC" font-family="'Gotham-Light'" font-size="40" letter-spacing="-3">L</tspan><tspan x="131.519" y="0" fill="#CCCCCC" font-family="'Gotham-Light'" font-size="40">O</tspan><tspan x="164.559" y="0" fill="#CCCCCC" font-family="'Gotham-Light'" font-size="40">P</tspan></text>
	</g>
	<g clip-path="url(#SVGID_2_)">
		<text transform="matrix(1 0 0 1 -1416.6689 -87.2891)"><tspan x="0" y="0" fill="#CCCCCC" font-family="'Gotham-Light'" font-size="24">A</tspan><tspan x="18.336" y="0" fill="#CCCCCC" font-family="'Gotham-Light'" font-size="24">P</tspan><tspan x="33.624" y="0" fill="#CCCCCC" font-family="'Gotham-Light'" font-size="24">I</tspan></text>
	</g>
	<g clip-path="url(#SVGID_2_)">
		<text transform="matrix(1 0 0 1 -1332.1885 -87.2891)"><tspan x="0" y="0" fill="#CCCCCC" font-family="'Gotham-Light'" font-size="24">C</tspan><tspan x="17.184" y="0" fill="#CCCCCC" font-family="'Gotham-Light'" font-size="24">o</tspan><tspan x="31.968" y="0" fill="#CCCCCC" font-family="'Gotham-Light'" font-size="24">mm</tspan><tspan x="76.415" y="0" fill="#CCCCCC" font-family="'Gotham-Light'" font-size="24">u</tspan><tspan x="90.455" y="0" fill="#CCCCCC" font-family="'Gotham-Light'" font-size="24">n</tspan><tspan x="104.447" y="0" fill="#CCCCCC" font-family="'Gotham-Light'" font-size="24">i</tspan><tspan x="109.438" y="0" fill="#CCCCCC" font-family="'Gotham-Light'" font-size="24">t</tspan><tspan x="118.751" y="0" fill="#CCCCCC" font-family="'Gotham-Light'" font-size="24">y</tspan></text>
	</g>
	<g clip-path="url(#SVGID_2_)">
		<text transform="matrix(1 0 0 1 -1158.3809 -87.2891)"><tspan x="0" y="0" fill="#CCCCCC" font-family="'Gotham-Light'" font-size="24">D</tspan><tspan x="18.264" y="0" fill="#CCCCCC" font-family="'Gotham-Light'" font-size="24" letter-spacing="-1">e</tspan><tspan x="31.104" y="0" fill="#CCCCCC" font-family="'Gotham-Light'" font-size="24">v </tspan><tspan x="51.359" y="0" fill="#CCCCCC" font-family="'Gotham-Light'" font-size="24">K</tspan><tspan x="67.943" y="0" fill="#CCCCCC" font-family="'Gotham-Light'" font-size="24">i</tspan><tspan x="72.935" y="0" fill="#CCCCCC" font-family="'Gotham-Light'" font-size="24">t</tspan><tspan x="82.103" y="0" fill="#CCCCCC" font-family="'Gotham-Light'" font-size="24">s</tspan></text>
	</g>
	<g clip-path="url(#SVGID_2_)">
		<text transform="matrix(1 0 0 1 -1023.7168 -87.2891)"><tspan x="0" y="0" fill="#CCCCCC" font-family="'Gotham-Light'" font-size="24" letter-spacing="-1">F</tspan><tspan x="14.328" y="0" fill="#CCCCCC" font-family="'Gotham-Light'" font-size="24" letter-spacing="-1">r</tspan><tspan x="22.775" y="0" fill="#CCCCCC" font-family="'Gotham-Light'" font-size="24">e</tspan><tspan x="36.359" y="0" fill="#CCCCCC" font-family="'Gotham-Light'" font-size="24">e</tspan><tspan x="49.872" y="0" fill="#CCCCCC" font-family="'Gotham-Light'" font-size="24">b</tspan><tspan x="65.159" y="0" fill="#CCCCCC" font-family="'Gotham-Light'" font-size="24">o</tspan><tspan x="79.919" y="0" fill="#CCCCCC" font-family="'Gotham-Light'" font-size="24">a</tspan><tspan x="93.119" y="0" fill="#CCCCCC" font-family="'Gotham-Light'" font-size="24" letter-spacing="-1">r</tspan><tspan x="101.519" y="0" fill="#CCCCCC" font-family="'Gotham-Light'" font-size="24">d</tspan></text>
	</g>
	<g clip-path="url(#SVGID_2_)">
		<text transform="matrix(1 0 0 1 -863.5654 -87.2891)"><tspan x="0" y="0" fill="#CCCCCC" font-family="'Gotham-Light'" font-size="24">O</tspan><tspan x="19.943" y="0" fill="#CCCCCC" font-family="'Gotham-Light'" font-size="24">pe</tspan><tspan x="48.743" y="0" fill="#CCCCCC" font-family="'Gotham-Light'" font-size="24">n </tspan><tspan x="69.743" y="0" fill="#CCCCCC" font-family="'Gotham-Light'" font-size="24">D</tspan><tspan x="88.007" y="0" fill="#CCCCCC" font-family="'Gotham-Light'" font-size="24" letter-spacing="-1">e</tspan><tspan x="100.847" y="0" fill="#CCCCCC" font-family="'Gotham-Light'" font-size="24" letter-spacing="-1">v</tspan><tspan x="113.494" y="0" fill="#CCCCCC" font-family="'Gotham-Light'" font-size="24">e</tspan><tspan x="126.959" y="0" fill="#CCCCCC" font-family="'Gotham-Light'" font-size="24">l</tspan><tspan x="132.238" y="0" fill="#CCCCCC" font-family="'Gotham-Light'" font-size="24">o</tspan><tspan x="146.998" y="0" fill="#CCCCCC" font-family="'Gotham-Light'" font-size="24">p</tspan></text>
	</g>
	<g clip-path="url(#SVGID_2_)">
		<text transform="matrix(1 0 0 1 -657.6934 -87.2891)"><tspan x="0" y="0" fill="#CCCCCC" font-family="'Gotham-Light'" font-size="24" letter-spacing="-2">T</tspan><tspan x="12.6" y="0" fill="#CCCCCC" font-family="'Gotham-Light'" font-size="24">r</tspan><tspan x="22.151" y="0" fill="#CCCCCC" font-family="'Gotham-Light'" font-size="24">y </tspan><tspan x="42.552" y="0" fill="#CCCCCC" font-family="'Gotham-Light'" font-size="24">i</tspan><tspan x="47.543" y="0" fill="#CCCCCC" font-family="'Gotham-Light'" font-size="24">t</tspan></text>
	</g>
	<g clip-path="url(#SVGID_2_)">
		<defs>
			<rect id="SVGID_53_" x="-2721.228" y="-256.289" width="2560" height="1810"/>
		</defs>
		<clipPath id="SVGID_54_">
			<use xlink:href="#SVGID_53_"  overflow="visible"/>
		</clipPath>
		<g opacity="0.3" clip-path="url(#SVGID_54_)">
			<g>
				<defs>
					<rect id="SVGID_55_" x="-2281.228" y="-74.289" width="1680" height="2"/>
				</defs>
				<clipPath id="SVGID_56_">
					<use xlink:href="#SVGID_55_"  overflow="visible"/>
				</clipPath>
				<rect x="-2281.228" y="-74.289" clip-path="url(#SVGID_56_)" fill="#CCCCCC" width="1680" height="2"/>
			</g>
		</g>
		<g opacity="0.3" clip-path="url(#SVGID_54_)">
			<g>
				<defs>
					<rect id="SVGID_57_" x="-656.718" y="-77.289" width="55.41" height="3"/>
				</defs>
				<clipPath id="SVGID_58_">
					<use xlink:href="#SVGID_57_"  overflow="visible"/>
				</clipPath>
				<rect x="-656.714" y="-77.289" clip-path="url(#SVGID_58_)" fill="#CCCCCC" width="55.407" height="3"/>
			</g>
		</g>
		<path clip-path="url(#SVGID_54_)" fill="#FFFFFF" d="M-630.228-214.289h28c0.552,0,1-0.448,1-1s-0.448-1-1-1h-28
			c-0.553,0-1,0.448-1,1S-630.78-214.289-630.228-214.289"/>
		<path clip-path="url(#SVGID_54_)" fill="#FFFFFF" d="M-602.228-198.289h-28c-0.553,0-1,0.448-1,1s0.447,1,1,1h28
			c0.552,0,1-0.448,1-1S-601.676-198.289-602.228-198.289"/>
		<path clip-path="url(#SVGID_54_)" fill="#FFFFFF" d="M-602.228-207.289h-28c-0.553,0-1,0.448-1,1s0.447,1,1,1h28
			c0.552,0,1-0.448,1-1S-601.676-207.289-602.228-207.289"/>
	</g>
	<g clip-path="url(#SVGID_2_)">
		<text transform="matrix(1 0 0 1 -709.2881 -196.1895)"><tspan x="0" y="0" fill="#990308" font-family="'Gotham-Book'" font-size="18">S</tspan><tspan x="8.406" y="0" fill="#990308" font-family="'Gotham-Book'" font-size="18">i</tspan><tspan x="12.042" y="0" fill="#990308" font-family="'Gotham-Book'" font-size="18">g</tspan><tspan x="21.689" y="0" fill="#990308" font-family="'Gotham-Book'" font-size="18">n </tspan><tspan x="34.812" y="0" fill="#990308" font-family="'Gotham-Book'" font-size="18">I</tspan><tspan x="38.718" y="0" fill="#990308" font-family="'Gotham-Book'" font-size="18">n</tspan></text>
	</g>
</g>
<path fill="#CD040B" d="M-1.857-332.147c-33.137,0-60,26.863-60,60c0,33.137,26.863,60,60,60s60-26.863,60-60
	C58.143-305.284,31.279-332.147-1.857-332.147 M-28.377-263.689h-3.92v-1.916h-0.058c-0.483,0.813-1.117,1.398-1.901,1.756
	c-0.783,0.358-1.668,0.537-2.655,0.537c-1.123,0-2.11-0.217-2.962-0.653c-0.852-0.435-1.553-1.025-2.104-1.771
	c-0.551-0.745-0.968-1.602-1.248-2.569s-0.421-1.974-0.421-3.019c0-1.006,0.141-1.979,0.421-2.918
	c0.28-0.938,0.697-1.765,1.248-2.482c0.552-0.716,1.243-1.292,2.076-1.727c0.832-0.436,1.799-0.653,2.903-0.653
	c0.889,0,1.736,0.188,2.539,0.566c0.804,0.377,1.438,0.934,1.901,1.669h0.058v-7.548h4.123V-263.689z M-8.113-263.689h-4.239
	l-2.671-10.074h-0.059l-2.553,10.074h-4.269l-4.761-15.009h4.354l2.759,10.19h0.058l2.495-10.19h4.008l2.554,10.161h0.058
	l2.759-10.161h4.239L-8.113-263.689z M12.585-270.192H1.757c0.058,1.335,0.396,2.303,1.016,2.903s1.51,0.9,2.671,0.9
	c0.832,0,1.548-0.208,2.148-0.624c0.6-0.416,0.968-0.856,1.103-1.321h3.629c-0.58,1.8-1.471,3.087-2.671,3.861
	c-1.199,0.774-2.65,1.161-4.354,1.161c-1.182,0-2.245-0.189-3.194-0.565c-0.948-0.378-1.752-0.915-2.409-1.612
	c-0.658-0.697-1.166-1.529-1.523-2.496c-0.359-0.968-0.537-2.033-0.537-3.194c0-1.122,0.183-2.167,0.551-3.135
	c0.368-0.968,0.89-1.805,1.568-2.511c0.677-0.707,1.484-1.263,2.424-1.67c0.938-0.406,1.979-0.609,3.121-0.609
	c1.276,0,2.39,0.247,3.339,0.74c0.947,0.493,1.727,1.157,2.336,1.988c0.61,0.833,1.05,1.781,1.321,2.846
	C12.565-272.466,12.662-271.353,12.585-270.192 M29.248-270.192H18.421c0.058,1.335,0.396,2.303,1.016,2.903
	c0.619,0.6,1.509,0.9,2.671,0.9c0.831,0,1.548-0.208,2.148-0.624c0.599-0.416,0.968-0.856,1.103-1.321h3.629
	c-0.581,1.8-1.471,3.087-2.671,3.861s-2.652,1.161-4.354,1.161c-1.181,0-2.245-0.189-3.193-0.565
	c-0.948-0.378-1.752-0.915-2.41-1.612c-0.657-0.697-1.166-1.529-1.523-2.496c-0.358-0.968-0.537-2.033-0.537-3.194
	c0-1.122,0.184-2.167,0.552-3.135c0.367-0.968,0.89-1.805,1.567-2.511c0.678-0.707,1.485-1.263,2.425-1.67
	c0.938-0.406,1.978-0.609,3.12-0.609c1.277,0,2.39,0.247,3.339,0.74c0.947,0.493,1.727,1.157,2.337,1.988
	c0.608,0.833,1.049,1.781,1.321,2.846C29.229-272.466,29.325-271.353,29.248-270.192 M39.932-275.94h-3.02v7.432
	c0,0.696,0.116,1.161,0.349,1.393c0.232,0.233,0.696,0.349,1.394,0.349c0.232,0,0.454-0.01,0.667-0.029s0.416-0.048,0.61-0.087
	v3.193c-0.35,0.058-0.736,0.097-1.161,0.116c-0.426,0.019-0.842,0.029-1.249,0.029c-0.638,0-1.243-0.043-1.814-0.13
	c-0.57-0.088-1.073-0.257-1.51-0.509c-0.435-0.251-0.778-0.609-1.029-1.074c-0.252-0.464-0.379-1.074-0.379-1.829v-8.854h-2.495
	v-2.758h2.495v-4.5h4.123v4.5h3.02V-275.94z"/>
<path fill="#CD040B" d="M151.772-332.147c-33.137,0-60,26.863-60,60s26.863,60,60,60c33.138,0,60-26.863,60-60
	S184.91-332.147,151.772-332.147 M159.567-247.035c0,4.217-3.418,7.636-7.636,7.636h-0.319c-4.218,0-7.636-3.419-7.636-7.636
	c0-4.218,3.418-7.636,7.636-7.636h0.319C156.149-254.671,159.567-251.253,159.567-247.035z M157.428-260.276
	c-0.037,0.354-0.138,0.684-0.272,0.995c-1.604-0.687-3.37-1.07-5.224-1.07h-0.319c-1.854,0-3.618,0.383-5.224,1.07
	c-0.134-0.312-0.235-0.641-0.271-0.995l-4.27-41.504c-0.207-2.012,1.372-3.761,3.396-3.761h13.059c2.022,0,3.602,1.749,3.395,3.761
	L157.428-260.276z"/>
<g>
	<path fill="#CD040B" d="M71.284,8.041c-0.61-0.831-1.39-1.495-2.337-1.988c-0.949-0.493-2.062-0.74-3.339-0.74
		c-1.143,0-2.183,0.203-3.12,0.609c-0.939,0.407-1.747,0.963-2.425,1.67c-0.678,0.706-1.2,1.543-1.567,2.511
		c-0.368,0.968-0.552,2.013-0.552,3.135c0,1.161,0.179,2.226,0.537,3.194c0.357,0.967,0.866,1.799,1.523,2.496
		c0.658,0.697,1.462,1.234,2.41,1.612c0.948,0.376,2.013,0.565,3.193,0.565c1.702,0,3.154-0.387,4.354-1.161s2.09-2.061,2.671-3.861
		h-3.629c-0.135,0.465-0.504,0.905-1.103,1.321c-0.601,0.416-1.317,0.624-2.148,0.624c-1.162,0-2.052-0.3-2.671-0.9
		c-0.62-0.6-0.958-1.568-1.016-2.903h10.827c0.077-1.161-0.02-2.274-0.289-3.338C72.333,9.822,71.893,8.874,71.284,8.041z
		 M62.067,11.612c0.019-0.29,0.082-0.619,0.188-0.986c0.107-0.368,0.291-0.716,0.552-1.046c0.262-0.328,0.609-0.604,1.046-0.827
		c0.435-0.222,0.981-0.334,1.64-0.334c1.006,0,1.756,0.271,2.25,0.813s0.837,1.335,1.031,2.38H62.067z"/>
	<path fill="#CD040B" d="M11.146,7.548h-0.058c-0.464-0.735-1.098-1.292-1.901-1.669c-0.803-0.378-1.65-0.566-2.539-0.566
		c-1.104,0-2.071,0.217-2.903,0.653C2.912,6.401,2.221,6.977,1.669,7.693C1.118,8.41,0.701,9.237,0.421,10.175
		C0.141,11.114,0,12.087,0,13.093c0,1.045,0.141,2.051,0.421,3.019s0.697,1.824,1.248,2.569c0.552,0.746,1.253,1.336,2.104,1.771
		c0.852,0.436,1.839,0.653,2.962,0.653c0.987,0,1.872-0.179,2.655-0.537c0.784-0.358,1.418-0.943,1.901-1.756h0.058v1.916h3.92V0
		h-4.123V7.548z M11.118,14.98c-0.116,0.58-0.31,1.098-0.58,1.553c-0.271,0.455-0.635,0.818-1.089,1.088
		c-0.455,0.272-1.021,0.407-1.697,0.407c-0.64,0-1.187-0.14-1.642-0.421c-0.455-0.28-0.832-0.648-1.132-1.103
		c-0.301-0.455-0.518-0.973-0.653-1.553c-0.135-0.581-0.202-1.162-0.202-1.742c0-0.619,0.062-1.215,0.188-1.785
		c0.125-0.571,0.328-1.079,0.608-1.525C5.2,9.454,5.573,9.096,6.038,8.825c0.464-0.271,1.035-0.406,1.714-0.406
		c0.676,0,1.237,0.135,1.683,0.406c0.444,0.271,0.808,0.624,1.089,1.06c0.279,0.435,0.479,0.939,0.595,1.509
		c0.116,0.572,0.175,1.167,0.175,1.786C11.293,13.8,11.234,14.399,11.118,14.98z"/>
	<polygon fill="#CD040B" points="33.268,15.88 33.21,15.88 30.656,5.719 26.648,5.719 24.153,15.909 24.096,15.909 21.337,5.719 
		16.982,5.719 21.743,20.728 26.012,20.728 28.564,10.654 28.623,10.654 31.294,20.728 35.533,20.728 40.266,5.719 36.026,5.719 	
		"/>
	<path fill="#CD040B" d="M54.62,8.041c-0.609-0.831-1.389-1.495-2.336-1.988c-0.949-0.493-2.062-0.74-3.339-0.74
		c-1.143,0-2.183,0.203-3.121,0.609c-0.939,0.407-1.747,0.963-2.424,1.67c-0.679,0.706-1.2,1.543-1.568,2.511
		c-0.368,0.968-0.551,2.013-0.551,3.135c0,1.161,0.178,2.226,0.537,3.194c0.357,0.967,0.865,1.799,1.523,2.496
		c0.657,0.697,1.461,1.234,2.409,1.612c0.949,0.376,2.013,0.565,3.194,0.565c1.703,0,3.154-0.387,4.354-1.161
		c1.2-0.774,2.091-2.061,2.671-3.861h-3.629c-0.135,0.465-0.503,0.905-1.103,1.321c-0.601,0.416-1.316,0.624-2.148,0.624
		c-1.161,0-2.052-0.3-2.671-0.9s-0.958-1.568-1.016-2.903h10.828c0.077-1.161-0.02-2.274-0.29-3.338
		C55.67,9.822,55.23,8.874,54.62,8.041z M45.403,11.612c0.02-0.29,0.082-0.619,0.188-0.986c0.106-0.368,0.291-0.716,0.552-1.046
		c0.261-0.328,0.609-0.604,1.045-0.827c0.435-0.222,0.982-0.334,1.64-0.334c1.007,0,1.757,0.271,2.25,0.813
		c0.494,0.542,0.838,1.335,1.031,2.38H45.403z"/>
	<path fill="#CD040B" d="M80.559,1.219h-4.123v4.5H73.94v2.758h2.495v8.854c0,0.755,0.127,1.365,0.379,1.829
		c0.251,0.465,0.595,0.823,1.029,1.074c0.437,0.252,0.939,0.421,1.51,0.509c0.571,0.087,1.177,0.13,1.814,0.13
		c0.407,0,0.823-0.01,1.249-0.029c0.425-0.019,0.812-0.058,1.161-0.116v-3.193c-0.194,0.039-0.397,0.067-0.61,0.087
		s-0.435,0.029-0.667,0.029c-0.697,0-1.161-0.116-1.394-0.349c-0.232-0.232-0.349-0.697-0.349-1.393V8.477h3.02V5.719h-3.02V1.219z"
		/>
</g>
</svg>
