<?xml version="1.0" encoding="utf-8"?>
<!-- Generator: Adobe Illustrator 16.0.4, SVG Export Plug-In . SVG Version: 6.00 Build 0)  -->
<!DOCTYPE svg PUBLIC "-//W3C//DTD SVG 1.1//EN" "http://www.w3.org/Graphics/SVG/1.1/DTD/svg11.dtd">
<svg version="1.1" id="Layer_1" xmlns="http://www.w3.org/2000/svg" xmlns:xlink="http://www.w3.org/1999/xlink" x="0px" y="0px"
	 width="120px" height="120px" viewBox="0 0 120 120" enable-background="new 0 0 120 120" xml:space="preserve">
<path fill="#CD040B" d="M60,0C26.863,0,0,26.863,0,60s26.863,60,60,60c33.139,0,60-26.863,60-60S93.139,0,60,0 M67.795,85.112
	c0,4.217-3.418,7.636-7.635,7.636h-0.319c-4.218,0-7.636-3.419-7.636-7.636c0-4.218,3.418-7.636,7.636-7.636h0.319
	C64.377,77.477,67.795,80.895,67.795,85.112z M65.656,71.871c-0.037,0.354-0.138,0.685-0.271,0.995
	c-1.604-0.688-3.37-1.07-5.225-1.07h-0.318c-1.854,0-3.618,0.383-5.225,1.07c-0.134-0.312-0.234-0.641-0.271-0.995l-4.271-41.504
	c-0.207-2.012,1.373-3.761,3.396-3.761h13.059c2.022,0,3.603,1.749,3.396,3.761L65.656,71.871z"/>
</svg>
