<?xml version="1.0" encoding="utf-8"?>
<!-- Generator: Adobe Illustrator 16.0.0, SVG Export Plug-In . SVG Version: 6.00 Build 0)  -->
<!DOCTYPE svg PUBLIC "-//W3C//DTD SVG 1.1//EN" "http://www.w3.org/Graphics/SVG/1.1/DTD/svg11.dtd">
<svg version="1.1" id="Layer_1" xmlns="http://www.w3.org/2000/svg" xmlns:xlink="http://www.w3.org/1999/xlink" x="0px" y="0px"
	 width="30px" height="30px" viewBox="0 0 30 30" enable-background="new 0 0 30 30" xml:space="preserve">
<path fill="#4B4B4B" d="M15,0C6.716,0,0,6.716,0,15s6.716,15,15,15s15-6.716,15-15S23.284,0,15,0 M22.154,21.379
	c0,0.426-0.35,0.775-0.775,0.775H17.73v-5.396h1.648l0.279-2.325H17.73v-1.506c0-0.62-0.026-0.819,0.865-0.819h1.461V9.962
	c-0.388-0.028-0.988-0.086-1.775-0.086c-1.637,0-2.876,1-2.876,2.837v1.72h-1.938v2.325h1.938v5.396H8.621
	c-0.426,0-0.775-0.35-0.775-0.775V8.621c0-0.426,0.35-0.775,0.775-0.775h12.758c0.426,0,0.775,0.35,0.775,0.775V21.379z"/>
</svg>
