<?xml version="1.0" encoding="utf-8"?>
<!-- Generator: Adobe Illustrator 16.0.4, SVG Export Plug-In . SVG Version: 6.00 Build 0)  -->
<!DOCTYPE svg PUBLIC "-//W3C//DTD SVG 1.1//EN" "http://www.w3.org/Graphics/SVG/1.1/DTD/svg11.dtd">
<svg version="1.1" id="Layer_1" xmlns="http://www.w3.org/2000/svg" xmlns:xlink="http://www.w3.org/1999/xlink" x="0px" y="0px"
	 width="110.934px" height="30px" viewBox="0 0 110.934 30" enable-background="new 0 0 110.934 30" xml:space="preserve">
<g>
	<path fill="#0F0D0E" d="M21.366,12.84h-9.321c-0.241,0-0.437,0.195-0.437,0.436v4.557c0,0.241,0.195,0.437,0.437,0.437h3.636v5.662
		c0,0-0.816,0.278-3.074,0.278c-2.663,0-6.383-0.973-6.383-9.154c0-8.183,3.874-9.26,7.511-9.26c3.148,0,4.505,0.555,5.368,0.822
		c0.271,0.083,0.522-0.187,0.522-0.428l1.039-4.403c0-0.113-0.037-0.249-0.166-0.341C20.147,1.196,18.009,0,12.606,0
		C6.384,0,0,2.647,0,15.375S7.309,30,13.468,30c5.1,0,8.192-2.179,8.192-2.179c0.129-0.071,0.142-0.249,0.142-0.331V13.276
		C21.802,13.035,21.606,12.84,21.366,12.84"/>
	<path fill="#0F0D0E" d="M69.408,1.524c0-0.242-0.192-0.438-0.434-0.438h-5.248c-0.24,0-0.435,0.196-0.435,0.438
		c0,0.001,0.001,10.143,0.001,10.143h-8.182V1.524c0-0.242-0.192-0.438-0.433-0.438H49.43c-0.239,0-0.433,0.196-0.433,0.438v27.466
		c0,0.242,0.193,0.439,0.433,0.439h5.249c0.24,0,0.433-0.197,0.433-0.439V17.243h8.182c0,0-0.015,11.747-0.015,11.748
		c0,0.242,0.195,0.439,0.436,0.439h5.261c0.24,0,0.434-0.197,0.434-0.439V1.524z"/>
	<path fill="#0F0D0E" d="M31.271,5.128c0-1.89-1.516-3.417-3.385-3.417c-1.867,0-3.385,1.527-3.385,3.417
		c0,1.888,1.518,3.42,3.385,3.42C29.756,8.549,31.271,7.017,31.271,5.128"/>
	<path fill="#0F0D0E" d="M30.896,23.197V10.519c0-0.241-0.193-0.438-0.434-0.438h-5.233c-0.24,0-0.454,0.248-0.454,0.488v18.165
		c0,0.533,0.332,0.692,0.764,0.692h4.714c0.517,0,0.644-0.254,0.644-0.701V23.197z"/>
	<path fill="#0F0D0E" d="M89.355,10.122h-5.209c-0.239,0-0.433,0.197-0.433,0.439v13.467c0,0-1.323,0.969-3.201,0.969
		s-2.377-0.853-2.377-2.692V10.561c0-0.242-0.194-0.439-0.434-0.439h-5.286c-0.238,0-0.434,0.197-0.434,0.439v12.634
		c0,5.462,3.044,6.798,7.232,6.798c3.435,0,6.206-1.898,6.206-1.898s0.132,1,0.19,1.119c0.061,0.118,0.215,0.238,0.383,0.238
		l3.363-0.015c0.239,0,0.434-0.197,0.434-0.439V10.561C89.791,10.319,89.596,10.122,89.355,10.122"/>
	<path fill="#0F0D0E" d="M103.591,9.505c-2.958,0-4.97,1.32-4.97,1.32v-9.3c0-0.243-0.194-0.439-0.434-0.439h-5.264
		c-0.238,0-0.434,0.196-0.434,0.439V28.99c0,0.243,0.195,0.44,0.435,0.44h3.652c0.164,0,0.289-0.085,0.381-0.233
		c0.09-0.148,0.221-1.267,0.221-1.267s2.153,2.04,6.228,2.04c4.784,0,7.527-2.427,7.527-10.892
		C110.934,10.611,106.552,9.505,103.591,9.505 M101.537,24.98c-1.807-0.055-3.032-0.875-3.032-0.875v-8.698
		c0,0,1.209-0.741,2.692-0.873c1.876-0.168,3.683,0.399,3.683,4.873C104.88,24.125,104.064,25.056,101.537,24.98"/>
	<path fill="#0F0D0E" d="M45.981,10.078h-3.938c0,0-0.006-5.2-0.006-5.202c0-0.196-0.102-0.295-0.329-0.295h-5.366
		c-0.208,0-0.319,0.092-0.319,0.292v5.376c0,0-2.689,0.649-2.871,0.701c-0.182,0.053-0.314,0.22-0.314,0.419v3.377
		c0,0.243,0.194,0.439,0.435,0.439h2.751v8.126c0,6.036,4.233,6.629,7.09,6.629c1.306,0,2.867-0.419,3.125-0.515
		c0.156-0.057,0.246-0.218,0.246-0.393l0.005-3.716c0-0.242-0.205-0.439-0.435-0.439c-0.23,0-0.817,0.094-1.422,0.094
		c-1.934,0-2.589-0.899-2.589-2.063s-0.001-7.723-0.001-7.723h3.938c0.239,0,0.434-0.196,0.434-0.439v-4.23
		C46.415,10.273,46.221,10.078,45.981,10.078"/>
</g>
</svg>
