<?xml version="1.0" encoding="utf-8"?>
<!-- Generator: Adobe Illustrator 16.0.4, SVG Export Plug-In . SVG Version: 6.00 Build 0)  -->
<!DOCTYPE svg PUBLIC "-//W3C//DTD SVG 1.1//EN" "http://www.w3.org/Graphics/SVG/1.1/DTD/svg11.dtd">
<svg version="1.1" id="Layer_1" xmlns="http://www.w3.org/2000/svg" xmlns:xlink="http://www.w3.org/1999/xlink" x="0px" y="0px"
	 width="121.514px" height="40px" viewBox="0 0 121.514 40" enable-background="new 0 0 121.514 40" xml:space="preserve">
<g>
	<path fill="#EA4335" d="M52,21.05c0,5.755-4.502,9.995-10.027,9.995s-10.027-4.24-10.027-9.995c0-5.795,4.502-9.996,10.027-9.996
		S52,15.255,52,21.05 M47.611,21.05c0-3.596-2.609-6.057-5.638-6.057c-3.028,0-5.637,2.461-5.637,6.057
		c0,3.56,2.609,6.057,5.637,6.057C45.002,27.107,47.611,24.606,47.611,21.05"/>
	<path fill="#FBBC05" d="M73.631,21.05c0,5.755-4.502,9.995-10.027,9.995s-10.027-4.24-10.027-9.995
		c0-5.791,4.502-9.996,10.027-9.996S73.631,15.255,73.631,21.05 M69.243,21.05c0-3.596-2.609-6.057-5.638-6.057
		c-3.028,0-5.637,2.461-5.637,6.057c0,3.56,2.609,6.057,5.637,6.057C66.634,27.107,69.243,24.606,69.243,21.05"/>
	<path fill="#4285F4" d="M94.362,11.658v17.945c0,7.382-4.354,10.397-9.5,10.397c-4.845,0-7.76-3.24-8.86-5.89l3.821-1.591
		c0.681,1.627,2.348,3.547,5.034,3.547c3.295,0,5.336-2.033,5.336-5.859V28.77H90.04c-0.982,1.212-2.875,2.271-5.264,2.271
		c-4.998,0-9.576-4.353-9.576-9.955c0-5.642,4.578-10.032,9.576-10.032c2.384,0,4.277,1.06,5.264,2.236h0.153v-1.627h4.169V11.658z
		 M90.504,21.086c0-3.52-2.348-6.093-5.336-6.093c-3.028,0-5.565,2.573-5.565,6.093c0,3.484,2.537,6.021,5.565,6.021
		C88.156,27.107,90.504,24.57,90.504,21.086"/>
	<rect x="96.954" y="1.141" fill="#34A853" width="4.281" height="29.292"/>
	<path fill="#EA4335" d="M117.918,24.34l3.407,2.271c-1.1,1.627-3.75,4.43-8.328,4.43c-5.679,0-9.919-4.389-9.919-9.995
		c0-5.944,4.276-9.996,9.427-9.996c5.187,0,7.725,4.128,8.554,6.359l0.455,1.136l-13.362,5.534c1.023,2.005,2.614,3.028,4.845,3.028
		C115.232,27.106,116.782,26.008,117.918,24.34 M107.431,20.744l8.932-3.709c-0.491-1.248-1.969-2.118-3.709-2.118
		C110.423,14.917,107.318,16.886,107.431,20.744"/>
	<path fill="#4285F4" d="M15.741,18.45v-4.241h14.29c0.14,0.739,0.212,1.614,0.212,2.56c0,3.182-0.87,7.116-3.673,9.919
		c-2.726,2.839-6.21,4.353-10.824,4.353C7.192,31.041,0,24.074,0,15.521C0,6.967,7.192,0,15.746,0c4.731,0,8.102,1.857,10.635,4.277
		l-2.992,2.992c-1.816-1.703-4.277-3.028-7.647-3.028c-6.246,0-11.131,5.034-11.131,11.28c0,6.246,4.885,11.28,11.131,11.28
		c4.051,0,6.358-1.627,7.837-3.105c1.199-1.199,1.987-2.912,2.298-5.251L15.741,18.45z"/>
</g>
</svg>
