<?xml version="1.0" encoding="utf-8"?>
<!-- Generator: Adobe Illustrator 16.0.4, SVG Export Plug-In . SVG Version: 6.00 Build 0)  -->
<!DOCTYPE svg PUBLIC "-//W3C//DTD SVG 1.1//EN" "http://www.w3.org/Graphics/SVG/1.1/DTD/svg11.dtd">
<svg version="1.1" id="Layer_1" xmlns="http://www.w3.org/2000/svg" xmlns:xlink="http://www.w3.org/1999/xlink" x="0px" y="0px"
	 width="90px" height="90px" viewBox="0 0 90 90" enable-background="new 0 0 90 90" xml:space="preserve">
<path fill="#959595" d="M45,0C20.147,0,0,20.147,0,45c0,24.852,20.147,45,45,45c24.854,0,45-20.147,45-45C90,20.147,69.854,0,45,0
	 M75.677,45.631c-0.291,7.181-5.723,13.18-12.798,14.437c-7.506,1.334-12.572-3.684-14.361-5.834c-0.08-0.096-0.154-0.186-0.22-0.27
	c-0.101-0.17-0.161-0.364-0.161-0.574c0-0.235,0.07-0.452,0.192-0.635l0.234-0.248l3.319-3.524l0.179-0.19
	c0.198-0.17,0.453-0.277,0.735-0.277c0.289,0,0.551,0.113,0.751,0.291c0.066,0.08,0.137,0.162,0.216,0.255
	c1.171,1.356,3.758,3.917,6.633,3.917c5.564,0,9.817-5.727,7.176-11.594c-1.096-2.435-3.491-4.053-6.148-4.311
	c-3.888-0.377-5.43,1.18-10.256,6.766c-0.541,0.625-2.148,2.447-3.604,4.097c-1.116,1.264-2.141,2.426-2.521,2.862
	c-3.976,4.566-7.037,8.084-12.054,9.153c-9.016,1.925-17.913-4.541-18.631-13.731c-0.701-8.981,6.409-16.513,15.244-16.513
	c6.288,0,10.599,4.343,12.217,6.289c0.071,0.086,0.137,0.167,0.197,0.243c0.105,0.172,0.17,0.373,0.17,0.59
	c0,0.268-0.097,0.512-0.252,0.706L41.8,37.679l-3.358,3.553l-0.173,0.183c-0.199,0.17-0.454,0.277-0.736,0.277
	c-0.312,0-0.596-0.127-0.802-0.331c-0.042-0.054-0.096-0.122-0.154-0.193c-0.893-1.102-3.661-4.148-6.974-4.148
	c-4.718,0-8.493,4.117-7.921,8.948c0.537,4.53,4.958,7.661,9.454,6.889c2.845-0.489,4.603-2.508,8.392-6.861
	c0.395-0.452,1.448-1.646,2.584-2.934c1.434-1.624,2.999-3.398,3.523-4.004c4.69-5.43,8.079-9.351,14.762-9.351
	C69.038,29.707,76.029,36.912,75.677,45.631"/>
</svg>
