<?xml version="1.0" encoding="utf-8"?>
<!-- Generator: Adobe Illustrator 16.0.4, SVG Export Plug-In . SVG Version: 6.00 Build 0)  -->
<!DOCTYPE svg PUBLIC "-//W3C//DTD SVG 1.1//EN" "http://www.w3.org/Graphics/SVG/1.1/DTD/svg11.dtd">
<svg version="1.1" id="Layer_1" xmlns="http://www.w3.org/2000/svg" xmlns:xlink="http://www.w3.org/1999/xlink" x="0px" y="0px"
	 width="90px" height="90px" viewBox="0 0 90 90" enable-background="new 0 0 90 90" xml:space="preserve">
<path fill="#959595" d="M45,0C20.147,0,0,20.147,0,45c0,24.854,20.147,45,45,45s45-20.146,45-45C90,20.147,69.853,0,45,0
	 M30.005,21.611c1.275-2.604,4.42-3.682,7.024-2.406c2.604,1.275,3.681,4.42,2.406,7.024c-2.213,4.518-1.627,7.227,1.74,10.312
	c-1.61,1.228-3.424,2.415-5.211,3.578c-1.191,0.774-2.414,1.576-3.6,2.398C27.898,37.6,25.409,30.994,30.005,21.611 M39.283,63.63
	c1.353,2.563,0.372,5.74-2.193,7.093c-0.781,0.414-1.62,0.608-2.446,0.608c-1.885,0-3.706-1.017-4.647-2.8
	c-7.543-14.291,4.051-21.834,11.724-26.825c9.227-6.003,12.16-8.707,8.845-15.477c-1.276-2.604-0.198-5.749,2.405-7.024
	c2.605-1.276,5.749-0.198,7.025,2.406c7.699,15.724-4.486,23.651-12.549,28.897C37.893,56.723,36.673,58.684,39.283,63.63
	 M60.004,68.531c-0.941,1.781-2.764,2.8-4.647,2.8c-0.827,0-1.665-0.194-2.446-0.608c-2.564-1.353-3.545-4.529-2.192-7.093
	c1.839-3.483,1.771-5.489-1.767-8.541c0.482-0.317,0.965-0.633,1.469-0.96c2.477-1.611,5.003-3.265,7.259-5.162
	C62.083,53.614,64.603,59.816,60.004,68.531"/>
</svg>
