<?xml version="1.0" encoding="utf-8"?>
<!-- Generator: Adobe Illustrator 16.0.0, SVG Export Plug-In . SVG Version: 6.00 Build 0)  -->
<!DOCTYPE svg PUBLIC "-//W3C//DTD SVG 1.1//EN" "http://www.w3.org/Graphics/SVG/1.1/DTD/svg11.dtd">
<svg version="1.1" id="Layer_1" xmlns="http://www.w3.org/2000/svg" xmlns:xlink="http://www.w3.org/1999/xlink" x="0px" y="0px"
	 width="30px" height="30px" viewBox="0 0 30 30" enable-background="new 0 0 30 30" xml:space="preserve">
<path fill="#4B4B4B" d="M15,0C6.715,0,0,6.716,0,15s6.715,15,15,15c8.284,0,15-6.716,15-15S23.284,0,15,0 M11.066,22.106H8.114
	v-9.493h2.952V22.106z M9.59,11.314c-0.944,0-1.709-0.766-1.709-1.71S8.646,7.893,9.59,7.893c0.943,0,1.711,0.768,1.711,1.712
	S10.533,11.314,9.59,11.314 M22.119,22.106H19.17V17.49c0-1.103-0.02-2.519-1.533-2.519c-1.536,0-1.771,1.2-1.771,2.439v4.695
	h-2.949v-9.493h2.83v1.298h0.04c0.396-0.747,1.357-1.533,2.792-1.533c2.988,0,3.54,1.965,3.54,4.522V22.106z"/>
</svg>
