<?xml version="1.0" encoding="utf-8"?>
<!-- Generator: Adobe Illustrator 16.0.4, SVG Export Plug-In . SVG Version: 6.00 Build 0)  -->
<!DOCTYPE svg PUBLIC "-//W3C//DTD SVG 1.1//EN" "http://www.w3.org/Graphics/SVG/1.1/DTD/svg11.dtd">
<svg version="1.1" id="Layer_1" xmlns="http://www.w3.org/2000/svg" xmlns:xlink="http://www.w3.org/1999/xlink" x="0px" y="0px"
	 width="90px" height="90px" viewBox="0 0 90 90" enable-background="new 0 0 90 90" xml:space="preserve">
<path fill="#959595" d="M45,0C20.147,0,0,20.147,0,45c0,24.852,20.147,45,45,45s45-20.147,45-45C90,20.147,69.853,0,45,0
	 M49.74,63.048c-0.004,0.001-0.007,0.002-0.01,0.003l-0.985,6.536h-7.487l-0.989-6.536c-1.643-0.43-3.214-1.081-4.689-1.945
	l-5.317,3.924l-5.297-5.291l3.927-5.322c-0.861-1.465-1.512-3.038-1.944-4.69l-6.536-0.985v-7.487l6.535-0.988
	c0.435-1.652,1.086-3.225,1.945-4.688l-3.927-5.319l5.297-5.295l5.317,3.925c1.47-0.862,3.044-1.513,4.689-1.943l0.989-6.535h7.487
	l0.985,6.535c0.003,0.001,0.006,0.002,0.01,0.003V63.048z M69.587,48.742l-6.537,0.986c-0.43,1.65-1.081,3.222-1.941,4.689
	l3.924,5.321l-5.294,5.295l-5.32-3.925c-0.004,0.002-0.009,0.005-0.014,0.007V28.882c0.005,0.003,0.01,0.005,0.014,0.008
	l5.318-3.925l5.296,5.295l-3.924,5.321c0.86,1.466,1.511,3.039,1.941,4.686l6.537,0.988V48.742z"/>
</svg>
