<?xml version="1.0" encoding="utf-8"?>
<!-- Generator: Adobe Illustrator 16.0.0, SVG Export Plug-In . SVG Version: 6.00 Build 0)  -->
<!DOCTYPE svg PUBLIC "-//W3C//DTD SVG 1.1//EN" "http://www.w3.org/Graphics/SVG/1.1/DTD/svg11.dtd">
<svg version="1.1" id="Layer_1" xmlns="http://www.w3.org/2000/svg" xmlns:xlink="http://www.w3.org/1999/xlink" x="0px" y="0px"
	 width="66.74px" height="45.816px" viewBox="0 0 66.74 45.816" enable-background="new 0 0 66.74 45.816" xml:space="preserve">
<g>
	<path fill="#959595" d="M14.552,42.317c-1.239,0.501-2.596,0.781-4.02,0.781C4.715,43.099,0,38.492,0,32.81
		c0-5.572,4.537-10.099,10.196-10.273c-1.096-1.483-1.738-3.259-1.738-5.17c0-5.194,4.714-9.405,10.531-9.405
		c1.715,0,3.329,0.373,4.761,1.022C25.307,3.79,30.138,0,35.867,0c6.984,0,12.648,5.634,12.648,12.581
		c0,0.012-0.003,0.021-0.003,0.031c-1.653,0.069-3.279,0.483-4.766,1.24c-2.432-2.209-5.5-3.433-8.755-3.433
		c-6.704,0-12.295,5.248-13.44,12.143c-5.148,1.598-8.851,6.698-8.851,12.782C12.701,37.894,13.383,40.283,14.552,42.317"/>
	<path fill="#959595" d="M58.116,45.816c-0.238,0-0.473-0.017-0.707-0.035H26.53v-0.018c-4.875-0.092-8.802-4.271-8.802-9.419
		c0-5.104,3.858-9.25,8.672-9.413c-0.016-0.252-0.036-0.502-0.036-0.758c0-6.004,4.628-10.872,10.337-10.872
		c3.377,0,6.367,1.711,8.253,4.345c1.555-1.36,3.552-2.179,5.73-2.179c4.952,0,8.965,4.222,8.965,9.429
		c0,0.681-0.072,1.344-0.202,1.985c4.13,0.634,7.293,4.152,7.293,8.411C66.74,42,62.878,45.816,58.116,45.816"/>
</g>
</svg>
