<?xml version="1.0" encoding="utf-8"?>
<!-- Generator: Adobe Illustrator 16.0.0, SVG Export Plug-In . SVG Version: 6.00 Build 0)  -->
<!DOCTYPE svg PUBLIC "-//W3C//DTD SVG 1.1//EN" "http://www.w3.org/Graphics/SVG/1.1/DTD/svg11.dtd">
<svg version="1.1" id="Layer_1" xmlns="http://www.w3.org/2000/svg" xmlns:xlink="http://www.w3.org/1999/xlink" x="0px" y="0px"
	 width="192.594px" height="31.37px" viewBox="0 0 192.594 31.37" enable-background="new 0 0 192.594 31.37" xml:space="preserve">
<g>
	<polygon fill="none" points="163.1,19.053 175.148,19.053 169.124,8.024 	"/>
	<path fill="none" d="M78.655,8.29c-0.502-0.447-1.249-0.566-3.368-0.566H60.227c-2.114,0-2.859,0.119-3.367,0.566
		c-0.477,0.418-0.686,0.955-0.686,2.744v9.305c0,1.787,0.209,2.322,0.686,2.74c0.508,0.447,1.253,0.568,3.367,0.568h15.061
		c2.119,0,2.866-0.121,3.368-0.568c0.479-0.418,0.688-0.953,0.688-2.74v-9.305C79.344,9.245,79.135,8.708,78.655,8.29z"/>
	<polygon fill="#959595" points="130.721,0.507 117.928,0.507 101.557,15.089 119.239,30.981 132.926,30.981 113.453,14.761 	"/>
	<rect x="134.715" y="0.507" fill="#959595" width="9.692" height="30.474"/>
	<path fill="#959595" d="M175.416,0.507h-12.047l-17.175,30.474h10.702l2.836-5.307h18.756l2.861,5.307h11.244L175.416,0.507z
		 M163.1,19.053l6.024-11.029l6.024,11.029H163.1z"/>
	<polygon fill="#959595" points="34.438,23.258 16.039,0.507 0,0.507 0,30.981 9.27,30.981 9.27,7.842 27.997,30.981 43.711,30.981 
		43.711,0.507 34.438,0.507 	"/>
	<path fill="#959595" d="M75.674,0h-15.83c-5.52,0-8.381,0.628-10.349,2.715c-1.28,1.4-2.058,2.861-2.058,7.097v11.75
		c0,4.232,0.777,5.691,2.058,7.096c1.968,2.086,4.829,2.713,10.349,2.713h15.83c5.518,0,8.381-0.627,10.35-2.713
		c1.281-1.404,2.058-2.863,2.058-7.096V9.812c0-4.235-0.776-5.696-2.058-7.097C84.055,0.628,81.191,0,75.674,0z M79.344,20.338
		c0,1.787-0.209,2.322-0.688,2.74c-0.502,0.447-1.249,0.568-3.368,0.568H60.227c-2.114,0-2.859-0.121-3.367-0.568
		c-0.477-0.418-0.686-0.953-0.686-2.74v-9.305c0-1.789,0.209-2.326,0.686-2.744c0.508-0.447,1.253-0.566,3.367-0.566h15.061
		c2.119,0,2.866,0.119,3.368,0.566c0.479,0.418,0.688,0.955,0.688,2.744V20.338z"/>
	<polygon fill="#959595" points="91.865,0.507 91.865,30.981 101.557,30.981 101.557,15.089 101.557,0.507 	"/>
</g>
</svg>
