<?xml version="1.0" encoding="utf-8"?>
<!-- Generator: Adobe Illustrator 16.0.4, SVG Export Plug-In . SVG Version: 6.00 Build 0)  -->
<!DOCTYPE svg PUBLIC "-//W3C//DTD SVG 1.1//EN" "http://www.w3.org/Graphics/SVG/1.1/DTD/svg11.dtd">
<svg version="1.1" id="Layer_1" xmlns="http://www.w3.org/2000/svg" xmlns:xlink="http://www.w3.org/1999/xlink" x="0px" y="0px"
	 width="90px" height="90px" viewBox="0 0 90 90" enable-background="new 0 0 90 90" xml:space="preserve">
<path fill="#959595" d="M45,0C20.147,0,0,20.147,0,45c0,24.852,20.147,45,45,45c24.854,0,45-20.147,45-45C90,20.147,69.854,0,45,0
	 M62.957,62.867c-1.387,1.317-3.562,1.283-4.913-0.056l-0.004,0.004l-0.745-0.805c0.619,1.335,0.371,2.963-0.755,4.032
	c-1.387,1.319-3.563,1.285-4.913-0.053l-0.004,0.002l-0.934-1.009c0.253,1.164-0.075,2.423-1.002,3.304
	c-1.387,1.317-3.564,1.283-4.913-0.055l-0.004,0.003l-0.976-1.054c-0.049,0.861-0.409,1.709-1.085,2.352
	c-1.116,1.061-2.732,1.351-4.032,0.565l-20.391-13.82l0.062-25.298c0,0,7.266-3.487,15.338-7.362
	c-2.945,2.329-3.562,2.852-6.605,5.3c-3.66,2.945-4.165,7.41-1.641,10.812c3.834,4.927,9.205,4.739,12.057,2.402
	c1.801-1.475,6.899-5.49,6.899-5.49l10.088,11.91l0.004,0.027l8.67,9.373l-0.004,0.004C64.422,59.373,64.346,61.548,62.957,62.867
	 M71.667,56.58l-2.726,1.215l-23.99-26.341l-9.759,7.656c-1.99,1.539-4.855,1.231-6.464-0.726c-1.609-1.957-1.357-4.827,0.539-6.482
	l13.57-11.769l0.025,0.03c1.858-1.306,3.752-0.654,6.178,0.745l0.005-0.004l22.67,10.163L71.667,56.58z"/>
</svg>
