<?xml version="1.0" encoding="utf-8"?>
<!-- Generator: Adobe Illustrator 16.0.4, SVG Export Plug-In . SVG Version: 6.00 Build 0)  -->
<!DOCTYPE svg PUBLIC "-//W3C//DTD SVG 1.1//EN" "http://www.w3.org/Graphics/SVG/1.1/DTD/svg11.dtd">
<svg version="1.1" id="Layer_1" xmlns="http://www.w3.org/2000/svg" xmlns:xlink="http://www.w3.org/1999/xlink" x="0px" y="0px"
	 width="20px" height="20px" viewBox="0 0 20 20" enable-background="new 0 0 20 20" xml:space="preserve">
<g>
	<path fill="#959595" d="M10,1c4.963,0,9,4.037,9,9s-4.037,9-9,9s-9-4.037-9-9S5.037,1,10,1 M10,0C4.477,0,0,4.477,0,10
		s4.477,10,10,10s10-4.477,10-10S15.523,0,10,0"/>
</g>
<g>
	<path fill="#959595" d="M9.219,12.999c-0.005-0.188-0.008-0.328-0.008-0.422c0-0.552,0.08-1.028,0.241-1.43
		c0.118-0.302,0.308-0.606,0.57-0.914c0.193-0.224,0.54-0.551,1.041-0.98s0.826-0.772,0.976-1.027
		c0.15-0.255,0.225-0.534,0.225-0.836c0-0.547-0.22-1.027-0.659-1.441c-0.439-0.414-0.978-0.621-1.615-0.621
		c-0.616,0-1.13,0.188-1.542,0.562C8.035,6.265,7.765,6.851,7.636,7.647L6.149,7.476C6.283,6.408,6.681,5.59,7.343,5.022
		c0.662-0.567,1.536-0.852,2.624-0.852c1.151,0,2.07,0.305,2.756,0.914s1.029,1.347,1.029,2.211c0,0.5-0.121,0.961-0.362,1.383
		s-0.712,0.935-1.414,1.539c-0.472,0.406-0.779,0.706-0.924,0.898c-0.145,0.193-0.251,0.414-0.321,0.664s-0.11,0.656-0.121,1.219
		H9.219z M9.13,15.819v-1.602h1.647v1.602H9.13z"/>
</g>
</svg>
