<?xml version="1.0" encoding="utf-8"?>
<!-- Generator: Adobe Illustrator 16.0.4, SVG Export Plug-In . SVG Version: 6.00 Build 0)  -->
<!DOCTYPE svg PUBLIC "-//W3C//DTD SVG 1.1//EN" "http://www.w3.org/Graphics/SVG/1.1/DTD/svg11.dtd">
<svg version="1.1" id="Layer_1" xmlns="http://www.w3.org/2000/svg" xmlns:xlink="http://www.w3.org/1999/xlink" x="0px" y="0px"
	 width="120px" height="120px" viewBox="0 0 120 120" enable-background="new 0 0 120 120" xml:space="preserve">
<path fill="#CD040B" d="M60,0C26.863,0,0,26.862,0,60c0,33.137,26.863,60,60,60c33.139,0,60-26.863,60-60C120,26.864,93.138,0,60,0
	 M69.501,88.5c0,1.542-1.133,2.812-2.607,3.048c-0.128,1.096-1.05,1.952-2.177,1.952h-9.433c-1.128,0-2.049-0.855-2.178-1.952
	c-1.474-0.235-2.608-1.506-2.608-3.048v-6.956c0-1.07,0.875-1.944,1.945-1.944h15.115c1.068,0,1.943,0.874,1.943,1.944V88.5
	L69.501,88.5z M75.582,57.438c-0.037,0.067-0.078,0.133-0.123,0.197c-0.345,0.487-0.686,0.956-1.023,1.42
	c-0.945,1.298-1.838,2.525-2.691,4.032c-2.135,3.771-2.029,7.246-1.985,8.729c0.006,0.193,0.011,0.354,0.011,0.479v0.174
	c0,1.105-0.896,2-2,2H52.245c-1.105,0-2-0.895-2-2v-0.147c-0.002-0.108,0.001-0.26,0.005-0.448c0.033-1.371,0.119-5.013-2.015-8.785
	c-0.856-1.509-1.749-2.735-2.694-4.034c-0.337-0.464-0.679-0.932-1.023-1.42c-0.073-0.104-0.135-0.213-0.186-0.326
	c-2.563-3.817-3.81-7.483-3.81-11.195c0-10.815,8.738-19.613,19.478-19.613c10.74,0,19.479,8.793,19.479,19.602
	C79.478,49.864,78.203,53.573,75.582,57.438"/>
</svg>
