<?xml version="1.0" encoding="utf-8"?>
<!-- Generator: Adobe Illustrator 16.0.4, SVG Export Plug-In . SVG Version: 6.00 Build 0)  -->
<!DOCTYPE svg PUBLIC "-//W3C//DTD SVG 1.1//EN" "http://www.w3.org/Graphics/SVG/1.1/DTD/svg11.dtd">
<svg version="1.1" id="Layer_1" xmlns="http://www.w3.org/2000/svg" xmlns:xlink="http://www.w3.org/1999/xlink" x="0px" y="0px"
	 width="90px" height="90px" viewBox="0 0 90 90" enable-background="new 0 0 90 90" xml:space="preserve">
<path fill="#959595" d="M45,0C20.146,0,0,20.148,0,45c0,24.853,20.146,45,45,45c24.853,0,45-20.147,45-45C90,20.148,69.853,0,45,0
	 M55.627,28.818c0-1.047,0.849-1.895,1.895-1.895h12.706c1.048,0,1.896,0.848,1.896,1.895v29.406H55.627V28.818z M36.752,17.568
	c0-1.047,0.849-1.895,1.895-1.895h12.706c1.048,0,1.896,0.848,1.896,1.895v40.656H36.752V17.568z M17.877,40.068
	c0-1.047,0.849-1.895,1.895-1.895h12.706c1.048,0,1.896,0.848,1.896,1.895v18.156H17.877V40.068z M74.978,66.579H15.021
	c-1.046,0-1.895-0.85-1.895-1.896v-0.907h63.746v0.907C76.873,65.729,76.025,66.579,74.978,66.579"/>
</svg>
