<?xml version="1.0" encoding="utf-8"?>
<!-- Generator: Adobe Illustrator 16.0.4, SVG Export Plug-In . SVG Version: 6.00 Build 0)  -->
<!DOCTYPE svg PUBLIC "-//W3C//DTD SVG 1.1//EN" "http://www.w3.org/Graphics/SVG/1.1/DTD/svg11.dtd">
<svg version="1.1" id="Layer_1" xmlns="http://www.w3.org/2000/svg" xmlns:xlink="http://www.w3.org/1999/xlink" x="0px" y="0px"
	 width="120px" height="120px" viewBox="0 0 120 120" enable-background="new 0 0 120 120" xml:space="preserve">
<path fill="#C1BFBF" d="M60,0C26.863,0,0,26.862,0,60s26.863,60,60,60c33.138,0,60-26.862,60-60S93.138,0,60,0 M56.299,76.33v18.085
	c-15.617,0-28.322-13.522-28.322-30.143V34.131h18.078v11.271h25.39c-3.764,4.975-5.345,11.245-5.524,18.085H46.055v0.786
	C46.055,70.921,50.651,76.33,56.299,76.33 M100.892,52.216c-5.642,0-10.235,5.399-10.244,12.038
	c-0.024,16.66-12.731,30.161-28.323,30.161V76.33c5.639,0,10.235-5.4,10.245-12.037c0.021-16.66,12.726-30.162,28.322-30.162V52.216
	z"/>
</svg>
