<?xml version="1.0" encoding="utf-8"?>
<!-- Generator: Adobe Illustrator 16.0.0, SVG Export Plug-In . SVG Version: 6.00 Build 0)  -->
<!DOCTYPE svg PUBLIC "-//W3C//DTD SVG 1.1//EN" "http://www.w3.org/Graphics/SVG/1.1/DTD/svg11.dtd">
<svg version="1.1" xmlns="http://www.w3.org/2000/svg" xmlns:xlink="http://www.w3.org/1999/xlink" x="0px" y="0px"
	 width="135.304px" height="67.424px" viewBox="0 0 135.304 67.424" enable-background="new 0 0 135.304 67.424"
	 xml:space="preserve">
<g id="Layer_2">
</g>
<g id="Layer_1">
	<g>
		<path fill="#990308" d="M-516.371,918.606c-0.02-0.077-0.06-0.144-0.089-0.217l-0.071-0.278h-0.042
			c-0.531-0.932-1.782-1.506-3.137-1.475c3.495-2.464,5.784-6.525,5.784-11.126c0-7.519-6.096-13.615-13.615-13.615
			s-13.616,6.097-13.616,13.615c0,4.572,2.261,8.606,5.717,11.076c-1.344-0.007-2.572,0.581-3.076,1.524h-0.032l-0.059,0.221
			c-0.029,0.074-0.07,0.144-0.09,0.222l-16.515,69.515c-0.479,1.832,1.374,3.539,3.843,3.539h4.807
			c1.385-4.414,9.36-7.804,19.021-7.804c9.659,0,17.635,3.39,19.02,7.804h4.809c2.469,0,4.321-1.707,3.842-3.539L-516.371,918.606z"
			/>
		<path fill="#990308" d="M-527.541,871.345c-19.082,0-34.607,15.526-34.607,34.608c0,4.849,0.982,9.539,2.922,13.938
			c0.87,1.971,3.172,2.863,5.139,1.995c1.972-0.868,2.864-3.169,1.996-5.139c-1.5-3.403-2.26-7.034-2.26-10.794
			c0-14.783,12.026-26.812,26.811-26.812c14.782,0,26.811,12.028,26.811,26.812c0,4.125-0.91,8.08-2.706,11.754
			c-0.945,1.934-0.144,4.269,1.79,5.214c0.551,0.27,1.134,0.397,1.71,0.397c1.442-0.002,2.828-0.804,3.504-2.188
			c2.321-4.749,3.499-9.856,3.499-15.178C-492.934,886.871-508.459,871.345-527.541,871.345z"/>
	</g>
	<g>
		<path fill="#990308" d="M-1122.719,573.655c-17.757,0-32.203,14.546-32.203,32.426c0,6.138,2.062,12.198,6.299,18.511
			c0.083,0.187,0.186,0.366,0.307,0.539c0.569,0.807,1.135,1.582,1.692,2.349c1.562,2.146,3.039,4.174,4.454,6.669
			c3.527,6.236,3.385,12.258,3.332,14.523c-0.008,0.313-0.012,0.563-0.009,0.741l-0.001,0.246c0,1.825,1.48,3.306,3.307,3.306
			h25.665c1.827,0,3.308-1.48,3.308-3.306v-0.29c0-0.206-0.008-0.472-0.018-0.792c-0.072-2.452-0.246-8.196,3.281-14.433
			c1.413-2.491,2.889-4.52,4.451-6.666c0.56-0.768,1.123-1.542,1.691-2.348c0.075-0.105,0.143-0.215,0.203-0.326
			c4.335-6.389,6.443-12.523,6.443-18.743C-1090.516,588.192-1104.962,573.655-1122.719,573.655z"/>
		<path fill="#990308" d="M-1110.224,661.445h-24.99c-1.769,0-3.214,1.446-3.214,3.214v11.5c0,2.55,1.874,4.653,4.311,5.04
			c0.213,1.812,1.736,3.229,3.601,3.229h15.596c1.864,0,3.388-1.416,3.601-3.229c2.438-0.387,4.311-2.49,4.311-5.04v-11.5
			C-1107.01,662.892-1108.456,661.445-1110.224,661.445z"/>
	</g>
	<g>
		<path fill="#990308" d="M-666.551-274.653c0.295-11.309,2.909-21.676,9.133-29.9h-41.978v-18.634h-29.89v49.834
			c0,27.479,21.006,49.834,46.825,49.834v-29.901c-9.338,0-16.936-8.942-16.936-19.933v-1.3H-666.551z"/>
		<path fill="#990308" d="M-655.558-273.319c-0.017,10.971-7.616,19.899-16.939,19.899v29.901c25.778,0,46.786-22.321,46.827-49.866
			c0.016-10.974,7.611-19.902,16.938-19.902v-29.9C-634.518-323.188-655.523-300.864-655.558-273.319z"/>
	</g>
	<g>
		<path fill="#990308" d="M-522.498,304.104l-19.252,10.706c-4.087-3.92-9.623-6.342-15.733-6.342
			c-12.567,0-22.754,10.187-22.754,22.754c0,12.566,10.187,22.754,22.754,22.754c6.534,0,12.409-2.77,16.559-7.182l17.44,9.697
			c1.418-4.021,3.799-7.582,6.873-10.416l-18.571-10.328c0.295-1.463,0.453-2.976,0.453-4.525c0-1.96-0.274-3.853-0.74-5.665
			l18.858-10.486C-519.397,311.993-521.446,308.251-522.498,304.104z"/>
		<circle fill="#990308" cx="-494.472" cy="366.552" r="19.627"/>
		<circle fill="#990308" cx="-494.472" cy="296.066" r="19.627"/>
	</g>
	<g>
		<path fill="#990308" d="M-483.381,585.581h-88.32c-2.576,0-4.663,2.087-4.663,4.662v48.848c0,2.575,2.087,4.662,4.663,4.662h88.32
			c2.575,0,4.663-2.087,4.663-4.662v-48.848C-478.718,587.668-480.806,585.581-483.381,585.581z"/>
		<path fill="#990308" d="M-513.22,653.071h-28.645c0,15.259-17.25,23.672-17.25,23.672h63.146
			C-495.968,676.743-513.22,668.722-513.22,653.071z"/>
	</g>
	<g>
		<path fill="#990308" d="M-1122.719,870.714c-19.157,0-34.688,15.519-34.688,34.66c0,22.047,34.688,63.112,34.688,63.112
			s34.688-41.065,34.688-63.112C-1088.031,886.232-1103.561,870.714-1122.719,870.714z"/>
		<path fill="#990308" d="M-1102.863,959.045c-0.857,1.191-1.696,2.338-2.508,3.43c5.432,1.228,8.875,3.014,8.875,5.01
			c0,3.695-11.74,6.691-26.223,6.691s-26.223-2.996-26.223-6.691c0-1.996,3.443-3.783,8.875-5.01
			c-0.812-1.093-1.649-2.236-2.508-3.43c-8.381,2.477-13.846,6.467-13.846,10.982c0,7.519,15.088,13.612,33.701,13.612
			s33.702-6.094,33.702-13.612C-1089.017,965.512-1094.482,961.521-1102.863,959.045z"/>
	</g>
	<g>
		<path fill="#990308" d="M-1070.052,31.199c2.828-2.699,4.065-7.225,2.817-11.751c-1.223-4.438-4.498-7.651-8.219-8.594
			c0.812-1.682,1.278-3.618,1.278-5.682c0-6.442-4.5-11.664-10.05-11.664c-0.389,0-0.77,0.032-1.146,0.082
			c0.018-0.249,0.036-0.498,0.036-0.751c0-5.492-4.356-9.944-9.731-9.944c-1.344,0-2.627,0.279-3.791,0.784
			c-1.329-3.749-4.827-6.432-8.949-6.432c-5.262,0-9.527,4.366-9.527,9.752c0,0.132,0.014,0.26,0.018,0.39h-0.028v84.192
			c-0.021,0.406-0.048,0.811-0.048,1.224s0.027,0.818,0.048,1.224v1.813h0.172c1.119,8.144,6.642,14.337,13.302,14.337
			c7.332,0,13.285-7.502,13.502-16.853c2.766,1.861,5.951,2.595,9.004,1.754c6.512-1.795,9.928-10.013,7.627-18.356
			c-0.28-1.02-0.637-1.993-1.051-2.914c0.516-0.032,1.03-0.099,1.539-0.239c5.439-1.499,8.17-8.807,6.1-16.321
			C-1067.785,34.948-1068.799,32.897-1070.052,31.199z"/>
		<path fill="#990308" d="M-1128.093-12.611h-0.028c0.004-0.13,0.019-0.258,0.019-0.39c0-5.386-4.267-9.752-9.528-9.752
			c-4.121,0-7.62,2.683-8.949,6.432c-1.164-0.505-2.445-0.784-3.791-0.784c-5.373,0-9.73,4.452-9.73,9.944
			c0,0.253,0.02,0.502,0.037,0.751c-0.377-0.05-0.76-0.082-1.147-0.082c-5.55,0-10.05,5.222-10.05,11.664
			c0,2.063,0.466,4,1.277,5.682c-3.721,0.943-6.995,4.156-8.219,8.594c-1.246,4.526-0.011,9.052,2.818,11.751
			c-1.253,1.699-2.268,3.749-2.9,6.05c-2.072,7.515,0.658,14.823,6.099,16.321c0.508,0.141,1.024,0.207,1.54,0.239
			c-0.416,0.921-0.771,1.894-1.053,2.914c-2.299,8.343,1.117,16.561,7.627,18.356c3.054,0.841,6.238,0.107,9.004-1.754
			c0.217,9.351,6.172,16.853,13.502,16.853c6.66,0,12.183-6.193,13.303-14.337h0.171v-1.813c0.022-0.406,0.049-0.811,0.049-1.224
			s-0.026-0.818-0.049-1.224V-12.611z"/>
	</g>
	<path fill="#990308" d="M-804.757,602.819v-20.012c0-2.95-2.392-5.341-5.341-5.341h-52.604c-2.949,0-5.34,2.391-5.34,5.341v84.153
		c0,2.95,2.391,5.341,5.34,5.341h34.591c2.948,0,5.34-2.391,5.34-5.341V613.5c0-2.948,2.392-5.34,5.34-5.34h7.333
		C-807.148,608.16-804.757,605.77-804.757,602.819z M-836.399,667.269c-2.041,0-3.696-1.654-3.696-3.696
		c0-2.041,1.655-3.695,3.696-3.695c2.042,0,3.697,1.654,3.697,3.695C-832.702,665.614-834.357,667.269-836.399,667.269z"/>
	<path fill="#990308" d="M-786.899,616.785h-22.585c-2.574,0-4.661,2.086-4.661,4.66v54.509c0,2.574,2.087,4.661,4.661,4.661h22.585
		c2.573,0,4.66-2.087,4.66-4.661v-54.509C-782.239,618.871-784.326,616.785-786.899,616.785z M-798.192,676.03
		c-2.042,0-3.696-1.655-3.696-3.696s1.654-3.696,3.696-3.696c2.041,0,3.696,1.655,3.696,3.696S-796.151,676.03-798.192,676.03z"/>
	<g>
		<path fill="#990308" d="M-1069.544,312.523h-20.166c-2.212,0-4.005,1.793-4.005,4.006v29.558c0,2.212,1.793,4.005,4.005,4.005
			h20.166c2.212,0,4.007-1.793,4.007-4.005V316.53C-1065.537,314.316-1067.332,312.523-1069.544,312.523z"/>
		<path fill="#990308" d="M-1109.238,274.955h-28.614c-2.472,0-4.478,2.005-4.478,4.477v28.615c0,2.473-2.004,4.477-4.476,4.477
			h-28.616c-2.473,0-4.477,2.005-4.477,4.478v28.616c0,2.472,2.004,4.476,4.477,4.476h28.616c2.472,0,4.476,2.005,4.476,4.478
			v28.615c0,2.473,2.006,4.477,4.478,4.477h28.614c2.474,0,4.478-2.004,4.478-4.477V279.432
			C-1104.761,276.96-1106.765,274.955-1109.238,274.955z"/>
	</g>
	<g>
		<path fill="#990308" d="M-851.818,947.127l-17.693,17.695c-1.75,1.748-1.75,4.583,0,6.332l4.694,4.694
			c1.748,1.748,4.583,1.748,6.331,0l17.694-17.694c-2.105-1.479-4.117-3.146-5.998-5.027
			C-848.672,951.245-850.338,949.233-851.818,947.127z"/>
		<circle fill="#990308" cx="-814.792" cy="921.127" r="35.334"/>
	</g>
	<g>
		<path fill="#990308" d="M-806.957,270.637c0-2.307-1.871-4.178-4.179-4.178h-28.009c-2.307,0-4.178,1.871-4.178,4.178v89.623
			h36.365V270.637z"/>
		<path fill="#990308" d="M-765.35,295.438c0-2.308-1.871-4.179-4.178-4.179h-28.008c-2.309,0-4.18,1.871-4.18,4.179v64.822h36.365
			V295.438z"/>
		<path fill="#990308" d="M-895.401,374.498c0,2.307,1.87,4.178,4.178,4.178h132.167c2.307,0,4.178-1.871,4.178-4.178V372.5
			h-140.522V374.498z"/>
		<path fill="#990308" d="M-848.566,320.237c0-2.308-1.87-4.178-4.178-4.178h-28.008c-2.309,0-4.18,1.87-4.18,4.178v40.022h36.365
			V320.237z"/>
	</g>
	<g>
		<path fill="#990308" d="M-816.233-19.396c-5.349-3.086-9.524-4.521-13.62-1.643l-0.055-0.066l-29.914,25.942
			c-4.179,3.649-4.734,9.976-1.188,14.29c3.546,4.314,9.861,4.994,14.249,1.6l21.513-16.875l52.885,58.065l6.009-2.678l0.103-56.24
			l-49.97-22.406L-816.233-19.396z"/>
		<path fill="#990308" d="M-785.111,62.266l-19.112-20.66l-0.01-0.062l-22.237-26.254c0,0-11.24,8.851-15.209,12.103
			c-6.288,5.152-18.128,5.567-26.578-5.295c-5.564-7.5-4.451-17.342,3.617-23.834c6.709-5.397,8.068-6.549,14.561-11.685
			c-17.796,8.543-33.812,16.229-33.812,16.229l-0.138,55.766l44.949,30.467c2.866,1.73,6.431,1.09,8.891-1.248
			c1.49-1.416,2.281-3.282,2.392-5.183l2.15,2.324l0.009-0.008c2.975,2.951,7.773,3.026,10.831,0.12
			c2.042-1.94,2.767-4.716,2.209-7.28l2.058,2.224l0.01-0.008c2.976,2.951,7.772,3.026,10.83,0.12
			c2.483-2.358,3.028-5.949,1.664-8.892l1.644,1.776l0.008-0.008c2.976,2.95,7.772,3.026,10.831,0.12
			c3.059-2.906,3.229-7.702,0.434-10.824L-785.111,62.266z"/>
	</g>
	<g>
		<path fill="#990308" d="M100.723,644.521c-0.498-3.727-3.229-6.768-6.883-7.661l-19.435-4.757
			c-0.438-0.107-0.889-0.162-1.341-0.162H62.24c-0.452,0-0.903,0.055-1.342,0.162l-19.436,4.757
			c-3.652,0.894-6.385,3.935-6.883,7.661l-4.268,25.924c-0.566,3.438,2.085,6.562,5.568,6.562h63.541
			c3.484,0,6.135-3.124,5.57-6.562L100.723,644.521z"/>
		<path fill="#990308" d="M67.651,626.078c11.2,0,20.279-12.479,20.279-33.428c0-11.199-9.079-20.277-20.279-20.277
			c-11.198,0-20.277,9.078-20.277,20.277C47.374,613.964,56.453,626.078,67.651,626.078z"/>
	</g>
	<g>
		<path fill="#990308" d="M118.199,910.779h-15.094v23.828c0,8.086-6.578,14.665-14.665,14.665H44.732l-2.613,2.8v10.641
			c0,2.621,2.124,4.746,4.744,4.746h48.027c0.029,0.03,0.045,0.065,0.076,0.095l17.677,18.922c0.849,0.908,2.365,0.225,2.247-1.013
			l-1.721-18.004h5.029c2.621,0,4.746-2.125,4.746-4.746v-47.188C122.945,912.903,120.82,910.779,118.199,910.779z"/>
		<path fill="#990308" d="M93.186,934.607v-47.189c0-2.62-2.124-4.745-4.746-4.745H17.104c-2.621,0-4.746,2.125-4.746,4.747v47.188
			c0,2.62,2.124,4.745,4.745,4.745h5.03l-1.721,18.005c-0.118,1.237,1.398,1.92,2.247,1.012l17.677-18.922
			c0.031-0.029,0.047-0.064,0.076-0.095H88.44C91.062,939.353,93.186,937.229,93.186,934.607z"/>
	</g>
	<g>
		<path fill="#990308" d="M-1443.213,91.758c1.821,0,3.67-0.431,5.393-1.34c5.652-2.983,7.816-9.985,4.834-15.638
			c-5.754-10.9-3.062-15.226,17.996-28.926c17.775-11.564,44.639-29.039,27.663-63.701c-2.812-5.741-9.743-8.117-15.484-5.304
			c-5.739,2.812-8.114,9.744-5.303,15.484c7.31,14.925,0.843,20.886-19.498,34.119c-16.913,11.002-42.472,27.629-25.845,59.133
			C-1451.383,89.515-1447.367,91.758-1443.213,91.758z"/>
		<path fill="#990308" d="M-1440.303,22.952c3.94-2.563,7.938-5.179,11.487-7.885c-7.422-6.802-8.714-12.774-3.836-22.734
			c2.812-5.74,0.437-12.672-5.304-15.484c-5.739-2.812-12.672-0.437-15.484,5.304c-10.13,20.686-4.645,35.247,5.201,46.087
			C-1445.623,26.427-1442.928,24.66-1440.303,22.952z"/>
		<path fill="#990308" d="M-1408.437,53.836c-1.108,0.721-2.173,1.418-3.235,2.117c7.797,6.728,7.946,11.148,3.894,18.827
			c-2.983,5.653-0.82,12.655,4.833,15.638c1.723,0.909,3.57,1.34,5.393,1.34c4.153,0,8.17-2.244,10.244-6.173
			c10.139-19.211,4.584-32.883-5.125-43.127C-1397.406,46.639-1402.977,50.284-1408.437,53.836z"/>
	</g>
	<g>
		<path fill="#990308" d="M101.594,0C86.86,0,79.391,8.645,69.049,20.614c-1.152,1.336-4.604,5.246-7.765,8.827
			c-2.505,2.839-4.828,5.472-5.694,6.468c-8.355,9.595-12.229,14.046-18.502,15.124c-9.909,1.703-19.656-5.201-20.84-15.187
			c-1.262-10.648,7.061-19.725,17.461-19.725c7.304,0,13.404,6.715,15.373,9.144c0.128,0.158,0.247,0.307,0.34,0.425
			c0.453,0.451,1.077,0.729,1.768,0.729c0.622,0,1.185-0.235,1.623-0.61l0.381-0.403l7.402-7.833l0.3-0.316
			c0.341-0.429,0.555-0.966,0.555-1.557c0-0.478-0.142-0.921-0.375-1.302c-0.133-0.167-0.278-0.345-0.435-0.534
			C57.073,9.573,47.57,0,33.709,0C14.232,0-1.439,16.605,0.105,36.403c1.582,20.261,21.196,34.514,41.071,30.271
			c11.058-2.359,17.807-10.112,26.571-20.18c0.837-0.962,3.098-3.522,5.557-6.309c3.209-3.637,6.753-7.653,7.944-9.032
			c10.64-12.313,14.038-15.747,22.607-14.914c5.858,0.569,11.138,4.134,13.554,9.502c5.823,12.936-3.551,25.558-15.816,25.558
			c-6.338,0-12.043-5.643-14.623-8.634c-0.176-0.204-0.329-0.386-0.476-0.563c-0.442-0.392-1.018-0.637-1.657-0.637
			c-0.621,0-1.183,0.234-1.621,0.608l-0.395,0.42l-7.316,7.771l-0.515,0.547c-0.268,0.4-0.425,0.88-0.425,1.397
			c0,0.464,0.134,0.892,0.353,1.265c0.147,0.184,0.311,0.384,0.486,0.595c3.945,4.742,15.113,15.803,31.657,12.862
			c15.598-2.773,27.57-15.996,28.213-31.826C136.055,15.884,120.644,0,101.594,0z"/>
	</g>
	<g>
		<path fill="#990308" d="M116.768,317.706l-47.159-36.207c-1.153-0.886-2.759-0.886-3.914,0l-47.158,36.207
			c-2.435,1.869-1.112,5.762,1.956,5.762h94.318C117.88,323.468,119.203,319.575,116.768,317.706z"/>
		<path fill="#990308" d="M104.416,332.944H30.889c-2.979,0-5.392,2.414-5.392,5.391v38.058c0,2.977,2.413,5.392,5.392,5.392h22.996
			c2.978,0,5.392-2.415,5.392-5.392V359.77c0-2.978,2.413-5.391,5.392-5.391h5.968c2.978,0,5.392,2.413,5.392,5.391v16.623
			c0,2.977,2.413,5.392,5.392,5.392h22.997c2.978,0,5.392-2.415,5.392-5.392v-38.058
			C109.808,335.358,107.394,332.944,104.416,332.944z"/>
	</g>
	<g>
		<path fill="#990308" d="M-230.739,928.441c0.469,0.363,1.121,0.363,1.589,0l38.156-29.562c0.978-0.757,0.441-2.322-0.794-2.322
			h-76.313c-1.236,0-1.771,1.565-0.794,2.322L-230.739,928.441z"/>
		<path fill="#990308" d="M-182.5,904.847l-46.65,36.144c-0.468,0.362-1.12,0.362-1.589,0l-46.65-36.144
			c-0.852-0.66-2.09-0.053-2.09,1.025v59.226c0.504,0.505,0.793,0.793,1.298,1.298h96.475c0.717,0,1.297-0.581,1.297-1.297v-59.228
			C-180.41,904.794-181.647,904.187-182.5,904.847z"/>
	</g>
	<g>
		<path fill="#990308" d="M-1438.229,601.318c0-9.928,8.006-18.004,17.846-18.004s17.845,8.07,17.845,17.988v16.527h9.92v-16.527
			c0-15.389-12.456-27.908-27.765-27.908s-27.766,12.527-27.766,27.924v16.527h9.92V601.318z"/>
		<path fill="#990308" d="M-1388.33,626.362h-64.105c-3.143,0-5.69,2.547-5.69,5.69v39.825c0,3.143,2.548,5.69,5.69,5.69h64.105
			c3.143,0,5.689-2.548,5.689-5.69v-39.825C-1382.641,628.909-1385.188,626.362-1388.33,626.362z"/>
	</g>
	<g>
		<path fill="#990308" d="M-194.434,12.949l8.65-11.73l-11.676-11.671l-11.722,8.651c-0.01-0.006-0.02-0.011-0.031-0.017v71.056
			c0.012-0.006,0.021-0.011,0.031-0.017l11.728,8.651l11.67-11.671l-8.65-11.729c1.896-3.233,3.331-6.7,4.279-10.335l14.41-2.175
			V25.458l-14.41-2.178C-191.103,19.649-192.537,16.183-194.434,12.949z"/>
		<path fill="#990308" d="M-221.689-20.49h-16.503l-2.183,14.406C-244-5.136-247.47-3.701-250.71-1.801l-11.723-8.651
			l-11.674,11.671l8.654,11.726c-1.894,3.225-3.327,6.693-4.287,10.335l-14.405,2.178v16.504l14.409,2.171
			c0.952,3.643,2.387,7.11,4.283,10.339l-8.654,11.733l11.674,11.663l11.723-8.65c3.251,1.903,6.714,3.338,10.335,4.286l2.183,14.41
			h16.503l2.171-14.41c0.007-0.001,0.014-0.004,0.022-0.006V-6.078c-0.009-0.002-0.016-0.004-0.022-0.006L-221.689-20.49z"/>
	</g>
	<g>
		<path fill="#990308" d="M-1430.684,328.026c-6.036,36.081,19.481,57.358,26.258,58.492c6.775,1.134,27.867-10.238,33.377-43.169
			c5.51-32.931-22.911-67.327-22.911-67.327S-1424.645,291.944-1430.684,328.026z"/>
		<path fill="#990308" d="M-1439.947,326.477c0.153-0.913,0.336-1.801,0.516-2.69c-16.112-6.891-30.985-4.137-30.985-4.137
			s-0.953,33.836,17.708,50.963c10.758,9.875,21.266,13.04,28.915,13.22c-2.3-2.526-4.493-5.336-6.442-8.341
			C-1436.734,365.483-1443.691,348.855-1439.947,326.477z"/>
	</g>
	<g>
		<path fill="#990308" d="M-252.816,621.602c2.215-11.398,13.037-20.077,26.013-20.077c6.299,0,12.237,2.024,16.942,5.676
			c2.879-1.251,6.022-1.937,9.226-2.049c0-0.017,0.003-0.034,0.003-0.052c0-11.488-10.96-20.801-24.479-20.801
			c-11.088,0-20.439,6.266-23.452,14.853c-2.771-1.074-5.895-1.693-9.214-1.693c-11.257,0-20.382,6.963-20.382,15.552
			c0,3.16,1.242,6.096,3.364,8.549c-10.953,0.289-19.732,7.771-19.732,16.983c0,9.396,9.123,17.013,20.381,17.013
			c2.757,0,5.384-0.463,7.781-1.291c-2.262-3.365-3.58-7.316-3.58-11.53C-269.945,632.674-262.782,624.243-252.816,621.602z"/>
		<path fill="#990308" d="M-179.477,632.047c0.253-1.058,0.393-2.154,0.393-3.28c0-8.609-7.768-15.589-17.351-15.589
			c-4.218,0-8.082,1.354-11.089,3.603c-3.652-4.354-9.438-7.183-15.974-7.183c-11.05,0-20.008,8.047-20.008,17.974
			c0,0.423,0.039,0.837,0.07,1.253c-9.317,0.27-16.785,7.125-16.785,15.562c0,8.514,7.601,15.42,17.037,15.573v0.029h59.764
			c0.452,0.03,0.906,0.058,1.367,0.058c9.218,0,16.69-6.309,16.69-14.092C-165.361,638.913-171.484,633.096-179.477,632.047z"/>
	</g>
	<g>
		<polygon fill="#990308" points="-1440.057,931.477 -1473.581,931.477 -1473.581,976.559 -1440.057,976.559 -1440.057,989.321 
			-1408.51,954.019 -1440.057,918.714 		"/>
		<polygon fill="#990308" points="-1400.709,873.632 -1432.255,908.934 -1400.709,944.238 -1400.709,931.477 -1367.184,931.477 
			-1367.184,886.394 -1400.709,886.394 		"/>
	</g>
	<g>
		<path fill="#990308" d="M-197.411,337.227h-40.752c-0.801,0-1.496,0.554-1.676,1.334l-10.86,47.27
			c-0.379,1.645,1.592,2.793,2.836,1.653l51.613-47.271C-195.094,339.154-195.843,337.227-197.411,337.227z"/>
		<path fill="#990308" d="M-220.049,324.057l10.859-47.271c0.378-1.644-1.592-2.792-2.836-1.652l-51.612,47.27
			c-1.156,1.059-0.407,2.987,1.161,2.987h40.752C-220.924,325.391-220.229,324.836-220.049,324.057z"/>
	</g>
	<g>
		<path fill="#990308" d="M-464.153,71.985l-18.769-14.714c-0.583-0.458-1.301-0.706-2.042-0.706h-85.155
			c-0.74,0-1.459,0.248-2.042,0.706l-18.77,14.714c-2.477,1.942-1.103,5.917,2.044,5.917h122.691
			C-463.05,77.902-461.677,73.928-464.153,71.985z"/>
		<path fill="#990308" d="M-566.516,44.712h77.949c2.62,0,4.745-2.125,4.745-4.746v-52.149c0-2.621-2.125-4.745-4.745-4.745h-77.949
			c-2.621,0-4.746,2.124-4.746,4.745v52.149C-571.262,42.587-569.137,44.712-566.516,44.712z"/>
	</g>
</g>
</svg>
