<?xml version="1.0" encoding="utf-8"?>
<!-- Generator: Adobe Illustrator 16.0.0, SVG Export Plug-In . SVG Version: 6.00 Build 0)  -->
<!DOCTYPE svg PUBLIC "-//W3C//DTD SVG 1.1//EN" "http://www.w3.org/Graphics/SVG/1.1/DTD/svg11.dtd">
<svg version="1.1" id="Layer_1" xmlns="http://www.w3.org/2000/svg" xmlns:xlink="http://www.w3.org/1999/xlink" x="0px" y="0px"
	 width="30px" height="30px" viewBox="0 0 30 30" enable-background="new 0 0 30 30" xml:space="preserve">
<path fill="#4B4B4B" d="M15,0C6.716,0,0,6.716,0,15s6.716,15,15,15s15-6.716,15-15S23.284,0,15,0 M21.869,11.963
	c0.004,0.132,0.008,0.264,0.008,0.396c0,4.034-2.997,8.689-8.475,8.689c-1.682,0-3.249-0.507-4.565-1.372
	c0.231,0.027,0.469,0.043,0.709,0.043c1.396,0,2.682-0.489,3.702-1.307c-1.307-0.027-2.403-0.907-2.784-2.12
	c0.183,0.035,0.369,0.054,0.559,0.054c0.275,0-0.079-0.039,0.169-0.108c-1.363-0.278-3.008-1.516-3.008-2.996v-0.035
	c0,0.225,1.48,0.364,1.97,0.38c-0.803-0.546-1.017-1.484-1.017-2.543c0-0.558,0.301-1.085,0.557-1.535
	c1.469,1.849,3.74,3.062,6.217,3.19c-0.054-0.225-0.039-0.457-0.039-0.694c0-1.686,1.354-3.054,2.998-3.054
	c0.855,0,1.641,0.368,2.184,0.961c0.679-0.136,1.318-0.387,1.896-0.74c-0.221,0.713-0.691,1.314-1.308,1.69
	c0.604-0.074,1.179-0.236,1.71-0.481C22.957,10.994,22.45,11.533,21.869,11.963"/>
</svg>
