<?xml version="1.0" encoding="utf-8"?>
<!-- Generator: Adobe Illustrator 16.0.0, SVG Export Plug-In . SVG Version: 6.00 Build 0)  -->
<!DOCTYPE svg PUBLIC "-//W3C//DTD SVG 1.1//EN" "http://www.w3.org/Graphics/SVG/1.1/DTD/svg11.dtd">
<svg version="1.1" id="Layer_1" xmlns="http://www.w3.org/2000/svg" xmlns:xlink="http://www.w3.org/1999/xlink" x="0px" y="0px"
	 width="30px" height="30px" viewBox="0 0 30 30" enable-background="new 0 0 30 30" xml:space="preserve">
<path fill="#4B4B4B" d="M13.542,20.647c-0.19,0.271-0.347,0.42-0.52,0.42c-0.114,0-0.171-0.049-0.192-0.182v-0.333v-3.512h-0.902
	v3.749c0,0.33,0.043,0.554,0.101,0.697c0.097,0.236,0.289,0.367,0.565,0.367c0.316,0,0.606-0.197,0.948-0.59v0.522h0.902v-4.746
	h-0.902V20.647z"/>
<path fill="#4B4B4B" d="M14.977,12.014c0.279,0,0.427-0.236,0.38-0.71V9.405c0.048-0.475-0.101-0.697-0.38-0.697
	c-0.28,0-0.428,0.223-0.379,0.697v1.898C14.549,11.777,14.696,12.014,14.977,12.014"/>
<path fill="#4B4B4B" d="M16.917,16.965c-0.315,0-0.63,0.194-0.908,0.536l0.001-2.073h-0.854v6.359h0.854l0.001-0.478
	c0.287,0.354,0.601,0.539,0.906,0.539c0.342,0,0.592-0.184,0.707-0.536c0.057-0.201,0.095-0.511,0.095-0.949v-1.898
	c0-0.449-0.058-0.757-0.115-0.947C17.489,17.162,17.259,16.965,16.917,16.965 M16.817,20.41c0,0.476-0.112,0.657-0.36,0.657
	c-0.141,0-0.304-0.073-0.448-0.217l0.001-2.878c0.145-0.143,0.307-0.217,0.447-0.217c0.248,0,0.36,0.14,0.36,0.614V20.41z"/>
<polygon fill="#4B4B4B" points="12.071,15.428 9.081,15.428 9.081,16.329 10.078,16.329 10.078,21.787 11.027,21.787 11.027,16.329 
	12.071,16.329 "/>
<path fill="#4B4B4B" d="M15,0C6.716,0,0,6.716,0,15s6.716,15,15,15s15-6.716,15-15S23.284,0,15,0 M16.922,7.934h0.902v3.56v0.332
	c0.021,0.134,0.077,0.182,0.191,0.182c0.174,0,0.329-0.149,0.521-0.419V7.934h0.901v4.793h-0.901v-0.521
	c-0.342,0.392-0.632,0.59-0.948,0.59c-0.277,0-0.47-0.131-0.566-0.367c-0.058-0.144-0.1-0.368-0.1-0.697V7.934z M14.977,7.898
	c0.379,0,0.757,0.135,0.996,0.462c0.183,0.243,0.285,0.627,0.285,1.14v1.708c0,0.51-0.084,0.861-0.266,1.102
	c-0.24,0.327-0.637,0.5-1.016,0.5s-0.769-0.173-1.009-0.5c-0.185-0.24-0.272-0.592-0.272-1.102l0.001-1.704
	c0-0.513,0.099-0.9,0.284-1.144C14.22,8.033,14.546,7.898,14.977,7.898 M11.559,6.32l0.666,2.5l0.663-2.5h0.997l-1.187,3.797v2.609
	h-0.949v-2.609c0,0-0.983-3.201-1.187-3.797H11.559z M22.086,19.251c0,1.142-0.142,2.283-0.142,2.283s-0.138,0.973-0.563,1.4
	c-0.539,0.562-1.143,0.565-1.42,0.598C17.979,23.675,15,23.68,15,23.68s-3.686-0.032-4.818-0.142
	c-0.315-0.059-1.023-0.041-1.562-0.604c-0.425-0.428-0.562-1.4-0.562-1.4s-0.143-1.142-0.143-2.283v-1.07
	c0-1.142,0.143-2.283,0.143-2.283s0.138-0.972,0.562-1.4c0.539-0.562,1.143-0.564,1.42-0.598c1.982-0.143,4.958-0.143,4.958-0.143
	h0.006c0,0,2.976,0,4.958,0.143c0.277,0.033,0.881,0.036,1.42,0.598c0.426,0.429,0.563,1.4,0.563,1.4s0.142,1.142,0.142,2.283
	V19.251z"/>
<path fill="#4B4B4B" d="M20.9,19.557v-0.971c0-0.507-0.101-0.878-0.279-1.117c-0.241-0.325-0.583-0.497-1.014-0.497
	c-0.439,0-0.781,0.172-1.03,0.497c-0.183,0.239-0.289,0.632-0.289,1.139v1.661c0,0.504,0.116,0.856,0.3,1.094
	c0.248,0.324,0.591,0.486,1.04,0.486s0.802-0.17,1.039-0.515c0.104-0.152,0.172-0.324,0.201-0.515
	c0.008-0.086,0.03-0.282,0.03-0.559v-0.135h-0.901c0,0.345,0.001,0.55-0.007,0.597c-0.049,0.229-0.172,0.345-0.383,0.345
	c-0.296,0-0.421-0.221-0.418-0.659v-0.852H20.9z M19.189,18.32c0-0.443,0.122-0.564,0.409-0.564c0.285,0,0.398,0.132,0.398,0.57
	v0.519l-0.808,0.001V18.32z"/>
</svg>
